<svg width="336" height="330" viewBox="0 0 336 330" fill="none" xmlns="http://www.w3.org/2000/svg">
<path d="M286.023 245.942C277.359 247.253 269.254 247.168 262.051 245.665C259.509 245.176 256.793 244.343 253.766 243.137C252.427 240.233 250.794 237.253 248.793 234.075C250.643 233.817 252.419 233.49 254.164 233.092C266.55 230.056 278.361 224.337 289.028 216.257L293.209 213.927L291.4 209.711C288.072 197.213 282.613 185.936 275.148 176.162C278.268 175.309 281.129 174.356 283.81 173.286C285.352 173.912 286.735 174.543 288.036 175.228C294.324 178.461 300.541 183.323 306.5 189.641C316.334 200.142 324.839 213.578 331.798 229.601C315.871 238.275 300.475 243.773 286.023 245.942ZM249.603 279.914C249.057 294.227 245.48 309.7 238.984 325.91C221.536 320.883 206.731 313.974 194.964 305.368C187.868 300.205 182.239 294.489 178.218 288.362C176.806 286.284 175.546 283.94 174.294 281.034C175.518 278.023 176.595 274.755 177.517 271.299C178.779 272.233 179.995 273.051 181.245 273.837C192.247 280.409 204.685 284.651 217.925 286.355L222.545 287.655L224.246 283.455C230.851 272.218 235.026 260.362 236.665 248.186C239.604 249.865 242.44 251.273 245.261 252.458C245.906 253.981 246.426 255.393 246.842 256.76C248.976 263.462 249.901 271.254 249.603 279.914ZM157.429 288.262C153.403 294.35 147.752 300.037 140.63 305.181C128.826 313.745 114.003 320.599 96.5423 325.573C90.094 309.338 86.5788 293.849 86.09 279.531C85.8255 270.872 86.7793 263.074 88.9433 256.372C89.3787 254.979 89.9053 253.557 90.5528 252.054C93.3466 250.89 96.1704 249.503 99.1077 247.847C100.675 259.958 104.812 271.845 111.289 282.966L113.093 287.379L117.446 286.158C130.953 284.457 143.422 280.251 154.516 273.64C155.718 272.903 156.912 272.111 158.172 271.205C159.076 274.684 160.15 277.959 161.36 281.004C160.096 283.885 158.844 286.199 157.429 288.262ZM73.871 245.155C66.7095 246.622 58.584 246.677 49.9203 245.326C35.4682 243.102 20.0937 237.56 4.20085 228.83C11.2275 212.841 19.788 199.427 29.6598 188.962C35.6472 182.652 41.8808 177.815 48.1958 174.588C49.521 173.897 50.9301 173.256 52.4781 172.636C55.1366 173.709 57.9741 174.663 61.0741 175.52C53.5311 185.25 47.9868 196.547 44.6823 208.877L42.7828 213.316L46.7532 215.521C57.6465 223.81 69.4478 229.587 81.8774 232.678C83.5841 233.066 85.3112 233.389 87.1054 233.651C85.0945 236.823 83.4412 239.804 82.086 242.688C79.101 243.864 76.4145 244.672 73.871 245.155ZM28.4816 139.414C19.8414 127.72 12.9281 113.023 7.92861 95.7078C24.3047 89.3133 39.9193 85.8278 54.3598 85.3492C62.8922 85.097 70.9282 86.031 77.7081 88.1785C79.1213 88.6178 80.5696 89.1474 82.1155 89.8035C83.2026 92.3645 84.5044 94.9927 86.0641 97.7413C73.722 99.2544 61.6205 103.395 50.3141 109.92L45.8746 111.711L47.1148 116.029C48.877 129.463 53.1155 141.796 59.7271 152.715C60.7028 154.253 61.7476 155.76 62.8922 157.283C59.3074 158.091 56.1041 159.019 53.1735 160.082C50.2027 158.818 47.709 157.511 45.5486 156.057C39.4045 152.074 33.6638 146.471 28.4816 139.414ZM88.8517 49.4759C91.0915 35.1577 96.6949 19.9114 105.502 4.15576C121.631 11.1157 135.154 19.5937 145.717 29.3829C152.078 35.319 156.951 41.5022 160.207 47.7561C160.964 49.1884 161.66 50.7014 162.294 52.2538C161.277 54.888 160.392 57.7108 159.607 60.7983C159.428 60.6465 159.247 60.5008 159.057 60.3449C149.27 52.7934 137.763 47.2008 125.087 43.8318L120.588 41.9309L118.365 45.8749C109.977 56.6824 104.171 68.3831 101.095 80.6643C100.681 82.4038 100.347 84.1751 100.077 86.0154C97.1003 84.1887 94.2948 82.6721 91.5626 81.4148C90.358 78.4341 89.5375 75.751 89.0466 73.2157C87.5484 66.0899 87.4849 58.1052 88.8517 49.4759ZM176.754 47.8469C180.023 41.6082 184.919 35.4451 191.3 29.5393C201.895 19.7954 215.455 11.3628 231.62 4.46844C240.369 20.2493 245.906 35.5056 248.093 49.8582C249.425 58.4834 249.331 66.4777 247.805 73.6232C247.304 76.1449 246.466 78.8442 245.248 81.8289C242.479 83.0857 239.626 84.6123 236.594 86.4642C236.328 84.5634 235.986 82.7427 235.563 80.9266C232.534 68.6408 226.781 56.9149 218.594 46.3278L216.24 42.1528L211.959 43.9579C199.091 47.3365 187.546 52.8998 177.642 60.5164C177.525 60.6011 177.414 60.6879 177.302 60.7822C176.538 57.7108 175.673 54.9016 174.679 52.2856C175.309 50.7408 176.007 49.2535 176.754 47.8469ZM174.21 234.382C175.033 234.983 175.824 235.523 176.646 236.027C183.828 240.318 191.941 243.092 200.587 244.213L203.602 245.054L204.714 242.316C209.017 234.973 211.751 227.241 212.82 219.293C214.737 220.387 216.586 221.31 218.428 222.081C218.851 223.076 219.191 223.998 219.461 224.89C220.24 227.337 220.741 230.024 221.025 232.895L221.166 237.066C221.212 237.347 221.219 237.645 221.257 237.928C221.257 238.62 221.283 239.295 221.257 240.007C220.905 249.351 218.572 259.444 214.334 270.019C202.946 266.74 193.279 262.231 185.603 256.614C183.538 255.115 181.696 253.531 180.023 251.898L177.65 248.811L177.589 249.305C176.523 248.07 175.522 246.815 174.673 245.519C173.745 244.162 172.925 242.629 172.108 240.728C172.907 238.775 173.614 236.642 174.21 234.382ZM158.212 249.179L158.161 248.752L155.929 251.616C154.202 253.31 152.281 254.944 150.134 256.492C142.429 262.085 132.767 266.566 121.361 269.796C117.148 259.205 114.856 249.105 114.541 239.755C114.521 239.057 114.549 238.391 114.553 237.706C114.589 237.414 114.603 237.11 114.646 236.823L115.358 232.234L114.8 232.662C115.096 229.788 115.612 227.085 116.401 224.634C116.685 223.72 117.029 222.802 117.45 221.815C119.283 221.058 121.117 220.15 123.032 219.071C124.056 226.975 126.76 234.745 130.988 241.988L132.157 244.879L135.005 244.086C143.819 242.971 151.959 240.227 159.2 235.905C159.979 235.426 160.768 234.916 161.584 234.321C162.172 236.59 162.874 238.73 163.667 240.706C162.842 242.597 162.027 244.101 161.102 245.452C160.259 246.723 159.265 247.96 158.212 249.179ZM115.996 98.1609C115.887 97.5794 115.829 96.9687 115.749 96.37C115.799 94.1852 115.966 91.9374 116.338 89.5907C117.798 80.2508 121.456 70.3057 127.199 60.0161C137.731 64.5607 146.562 70.0989 153.457 76.4879C154.029 77.0235 154.536 77.5576 155.068 78.0917C155.677 78.8896 156.255 79.6854 156.787 80.4929L159.812 83.5996C160.996 85.2135 162.063 86.8365 162.913 88.4756C163.404 89.4096 163.86 90.3926 164.273 91.4169C163.609 93.1271 163.035 94.973 162.526 96.9904C162.405 96.888 162.288 96.7937 162.159 96.6928C155.772 91.7639 148.261 88.119 139.994 85.9145L137.051 84.6734L135.601 87.2465C130.128 94.3012 126.343 101.937 124.334 109.951C124.059 111.09 123.843 112.241 123.666 113.447C121.729 112.251 119.899 111.262 118.108 110.446C117.329 108.5 116.787 106.748 116.469 105.09C116.292 104.252 116.181 103.364 116.066 102.487L115.996 98.1609ZM88.8721 197.975C95.972 203.381 103.676 207.154 111.781 209.175C112.9 209.427 114.029 209.64 115.203 209.811C113.892 211.868 112.811 213.82 111.926 215.706C109.977 216.474 108.221 216.998 106.565 217.321C105.715 217.497 104.82 217.609 103.932 217.713L99.453 217.884C99.1112 217.945 98.7678 217.987 98.4301 218.036C96.0153 218.017 93.5155 217.829 90.9323 217.426C81.4995 215.974 71.4669 212.362 61.0858 206.663C65.6804 196.224 71.2659 187.469 77.7081 180.634C78.0479 180.276 78.4015 179.965 78.7494 179.616C79.135 179.314 79.5043 178.976 79.894 178.694L82.8847 175.863C85.1621 174.013 87.4711 172.454 89.804 171.259C90.6703 170.806 91.5901 170.386 92.5998 169.978C94.3365 170.683 96.1847 171.304 98.2113 171.869C93.2871 178.219 89.6707 185.593 87.5128 193.637L86.2767 196.537L88.8721 197.975ZM89.0944 133.035C90.2471 141.8 93.0149 149.85 97.3292 156.985C97.9651 157.99 98.6524 158.967 99.3956 159.962C97.0586 160.492 94.9663 161.091 93.0567 161.793C91.1154 160.965 89.4897 160.114 88.079 159.165C87.4294 158.746 86.7991 158.252 86.1632 157.774L82.8806 154.748C82.4614 154.464 82.056 154.121 81.6409 153.813C80.0115 152.159 78.4295 150.339 76.9374 148.302C71.3015 140.675 66.7909 131.079 63.522 119.776C74.2128 115.606 84.4026 113.32 93.8278 113.013C94.3803 112.998 94.9129 113.023 95.4593 113.023C96.0153 113.094 96.5738 113.165 97.1222 113.25L101.224 113.301C104.024 113.598 106.677 114.107 109.069 114.863C109.995 115.151 110.931 115.49 111.946 115.917C112.652 117.588 113.5 119.302 114.527 121.108C106.46 122.091 98.5648 124.785 91.1907 129.052L88.2876 130.22L89.0944 133.035ZM177.005 83.4322L180.036 80.3829C180.569 79.5946 181.143 78.8124 181.748 78.0362C182.234 77.5576 182.687 77.0633 183.21 76.5883C190.127 70.225 198.97 64.7226 209.525 60.2229C215.232 70.5226 218.851 80.4772 220.278 89.8428C220.651 92.2682 220.816 94.5988 220.846 96.8587C220.764 97.4276 220.711 98.0132 220.604 98.5725L220.47 102.956C220.355 103.764 220.258 104.579 220.089 105.357C219.759 107.001 219.212 108.766 218.421 110.718C216.613 111.536 214.754 112.535 212.772 113.734C212.599 112.493 212.379 111.307 212.095 110.123C210.119 102.103 206.366 94.4591 201.028 87.5441L199.487 84.8191L196.695 85.9952C188.289 88.2037 180.756 91.8405 174.294 96.8032C174.214 96.8643 174.141 96.9137 174.077 96.9808C173.572 94.973 173.008 93.1407 172.363 91.427C172.772 90.4243 173.229 89.455 173.71 88.5371C174.606 86.8168 175.734 85.1167 177.005 83.4322ZM245.27 129.44C237.778 125.137 229.941 122.418 221.957 121.38C222.978 119.595 223.832 117.889 224.554 116.214C225.557 115.797 226.489 115.464 227.397 115.186C229.851 114.414 232.584 113.922 235.463 113.634L234.966 114.268L239.596 113.563C240.034 113.498 240.481 113.451 240.926 113.396C241.5 113.396 242.058 113.376 242.637 113.392C252.056 113.734 262.233 116.053 272.908 120.265C269.604 131.557 265.055 141.124 259.39 148.75C257.846 150.833 256.22 152.694 254.539 154.379C254.148 154.667 253.764 154.984 253.369 155.246L250.057 158.252C249.445 158.705 248.835 159.186 248.208 159.588C246.784 160.522 245.138 161.389 243.169 162.212C241.242 161.501 239.131 160.884 236.778 160.341C237.552 159.326 238.261 158.317 238.913 157.263C243.221 150.248 246.007 142.194 247.167 133.539L248.024 130.524L245.27 129.44ZM256.34 179.222C256.68 179.47 256.996 179.767 257.331 180.024C257.687 180.388 258.045 180.711 258.397 181.08C264.815 187.934 270.365 196.708 274.911 207.158C264.507 212.831 254.462 216.413 245.029 217.83C242.41 218.223 239.874 218.405 237.431 218.41C237.12 218.36 236.798 218.33 236.484 218.263L235.892 218.198L235.872 218.369C235.803 218.369 235.741 218.365 235.676 218.36L235.694 218.153L235.69 218.178L235.65 218.36C233.47 218.275 231.366 218.062 229.382 217.654C227.726 217.335 225.953 216.786 223.986 215.999C223.107 214.108 222.04 212.162 220.732 210.089C221.941 209.912 223.101 209.699 224.234 209.449C232.326 207.461 240.034 203.734 246.991 198.448L249.715 196.935L248.542 194.186C246.372 186.021 242.808 178.668 237.935 172.287C239.972 171.724 241.838 171.103 243.588 170.408C244.592 170.819 245.498 171.233 246.344 171.682C248.705 172.894 251.044 174.498 253.349 176.393L256.34 179.222ZM170.979 223.293C170.646 222.814 170.318 222.252 169.95 221.582L169.799 221.289C169.537 220.784 169.292 220.241 169.046 219.671L167.921 217.073L166.805 219.671C166.598 220.15 166.357 220.684 166.051 221.265L165.851 221.638C165.547 222.203 165.219 222.778 164.814 223.358C164.148 224.36 163.361 225.381 162.451 226.393C162.421 226.192 162.389 225.999 162.357 225.808C162.196 224.744 162.057 223.684 161.922 222.617L161.574 219.666L159.752 222.01C158.133 224.079 156.09 226.021 153.662 227.777C149.034 231.123 143.271 233.903 136.557 236.041C134.274 229.691 133.002 223.645 132.801 218.042C132.751 215.912 132.875 213.846 133.178 211.868L133.638 208.883L131.223 210.733C130.357 211.399 129.459 212.03 128.562 212.67C128.409 212.776 128.26 212.877 128.095 212.989C128.298 210.926 128.678 208.999 129.21 207.234L129.341 206.744C129.568 206.032 129.844 205.363 130.128 204.681L131.217 202.095L127.859 203.339C126.692 203.753 125.707 204.011 124.733 204.199C123.845 204.38 122.903 204.519 121.892 204.6C122.003 204.474 122.108 204.334 122.228 204.193C122.849 203.406 123.48 202.615 124.123 201.832C124.169 201.832 124.208 201.826 124.254 201.823C124.262 201.823 124.266 201.823 124.272 201.823C124.28 201.823 124.28 201.823 124.28 201.823L124.248 201.687C124.31 201.626 124.366 201.554 124.421 201.484L126.611 198.891L123.261 199.512C122.653 199.628 122.046 199.734 121.415 199.795C121.222 199.815 121.033 199.819 120.849 199.831L120.149 199.86C119.219 199.925 118.1 199.925 116.983 199.854L116.326 199.831C115.452 199.754 114.573 199.66 113.665 199.512C107.968 198.635 101.921 196.566 95.6719 193.369C98.5806 187.258 102.013 182.098 105.882 178.006C107.324 176.489 108.88 175.118 110.493 173.938L112.93 172.151L109.929 171.753C108.846 171.611 107.769 171.44 106.694 171.255C106.502 171.219 106.318 171.188 106.126 171.152C107.715 169.872 109.333 168.769 110.962 167.88L111.471 167.598L110.919 166.513L111.767 167.456C112.379 167.159 112.956 166.907 113.524 166.67L116.179 165.6L112.769 164.078C112.602 164.007 112.429 163.932 112.262 163.845C111.491 163.451 110.746 163.037 110.058 162.578C109.317 162.106 108.578 161.56 107.841 160.961C108.013 160.939 108.195 160.91 108.368 160.89C109.532 160.758 110.704 160.622 111.861 160.522L115.273 160.218L112.439 158.313C109.997 156.648 107.674 154.354 105.553 151.483C102.17 146.924 99.3579 141.237 97.202 134.548C103.582 132.273 109.689 131.024 115.382 130.817C117.544 130.74 119.672 130.896 121.737 131.225L124.763 131.709L122.913 129.288C122.241 128.421 121.603 127.527 120.968 126.635C120.857 126.479 120.745 126.323 120.63 126.172C122.697 126.378 124.614 126.757 126.446 127.3L126.768 127.381C127.471 127.594 128.167 127.881 128.867 128.183L131.555 129.349L130.225 125.913C129.786 124.694 129.501 123.685 129.341 122.812C129.141 121.92 129.003 120.992 128.912 120.023C129.051 120.129 129.192 120.246 129.341 120.346C130.262 121.067 131.176 121.798 132.076 122.529L134.673 124.662L134.053 121.37C133.514 118.464 133.514 115.263 134.053 111.847C134.927 106.24 137.013 100.233 140.247 94.0037C146.457 96.9233 151.661 100.334 155.758 104.151C157.719 105.957 159.376 107.873 160.678 109.841L162.566 112.69L162.924 109.296C163.037 108.125 163.18 106.955 163.341 105.791C163.367 105.629 163.389 105.462 163.404 105.302C164.426 106.622 165.32 107.974 166.047 109.325L166.24 109.658C166.314 109.79 166.373 109.932 166.429 110.068L166.604 110.45C166.781 110.809 166.947 111.177 167.105 111.54L168.231 114.132L169.356 111.54C169.537 111.116 169.728 110.718 169.928 110.304L170.069 109.977C170.117 109.9 170.158 109.79 170.216 109.684L169.131 109.124L170.375 109.416C171.142 107.979 172.056 106.593 173.143 105.222C173.169 105.387 173.195 105.549 173.219 105.714C173.376 106.89 173.501 108.055 173.624 109.231L173.962 112.59L175.852 109.77C177.13 107.873 178.713 106.059 180.696 104.213C184.879 100.385 190.115 97.0005 196.257 94.1398C199.469 100.395 201.523 106.405 202.377 112.03C202.906 115.494 202.894 118.732 202.338 121.642L201.71 124.95L204.313 122.812C205.217 122.066 206.135 121.344 207.069 120.633C207.205 120.523 207.343 120.421 207.492 120.311C207.391 121.264 207.246 122.186 207.061 123.068C206.885 123.941 206.628 124.859 206.236 125.935C206.124 126.039 206.008 126.155 205.891 126.266L200.105 131.574L206.771 128.687L207.514 128.4C208.218 128.112 208.926 127.83 209.77 127.584L210.03 127.517C211.836 126.973 213.786 126.599 215.852 126.392C215.739 126.553 215.626 126.711 215.513 126.873C214.875 127.74 214.239 128.632 213.573 129.485L211.709 131.885L214.73 131.426C216.721 131.124 218.914 131.024 220.918 131.089C226.571 131.309 232.683 132.582 239.098 134.871C236.906 141.534 234.08 147.241 230.69 151.802C228.53 154.692 226.185 156.991 223.721 158.634L220.868 160.532L224.288 160.855C225.46 160.951 226.624 161.087 227.797 161.243C227.966 161.263 228.139 161.288 228.31 161.298C227.586 161.889 226.855 162.417 226.13 162.882C225.285 163.428 224.276 163.977 222.942 164.582L219.993 165.882L222.615 166.972C223.294 167.256 223.968 167.553 224.606 167.864L225.216 168.229C226.841 169.131 228.465 170.23 230.03 171.521C229.842 171.556 229.659 171.591 229.47 171.617C228.389 171.798 227.314 171.97 226.233 172.106L223.233 172.5L225.659 174.281C227.24 175.455 228.765 176.806 230.178 178.29C234.019 182.406 237.434 187.604 240.33 193.737C234.11 196.88 228.059 198.917 222.308 199.799C221.432 199.931 220.568 200.032 219.711 200.097L218.789 200.132C218.263 200.152 217.748 200.184 217.184 200.184H217.182C216.737 200.178 216.298 200.152 215.862 200.128L215.182 200.087C214.988 200.077 214.797 200.077 214.608 200.051C213.957 199.986 213.333 199.89 212.699 199.76L212.311 199.715L212.147 200.914L212.089 201.302L212.043 201.344L212.083 200.904L212.186 199.695L212.182 199.708V199.695L211.805 201.529L211.558 201.742C211.608 201.813 211.669 201.878 211.729 201.949L211.701 202.075L211.846 202.095C212.484 202.871 213.11 203.659 213.73 204.445C213.843 204.597 213.949 204.723 214.056 204.858C213.055 204.768 212.095 204.626 211.209 204.451C210.31 204.267 209.321 203.976 208.077 203.536L204.661 202.262L205.793 204.894C206.064 205.544 206.342 206.21 206.614 207.138L206.68 207.396C207.214 209.175 207.584 211.102 207.775 213.174C207.63 213.07 207.475 212.958 207.315 212.847C206.429 212.211 205.529 211.567 204.661 210.891L202.239 209.035L202.704 212.03C203.004 214.012 203.125 216.086 203.052 218.194C202.829 223.801 201.545 229.859 199.238 236.203C192.523 234.029 186.779 231.22 182.176 227.845C179.746 226.08 177.716 224.134 176.118 222.067L174.306 219.695L173.93 222.662C173.803 223.72 173.646 224.78 173.473 225.844C173.449 226.041 173.422 226.238 173.386 226.439C172.468 225.404 171.665 224.347 170.979 223.293ZM254.649 90.2624C256.189 89.6164 257.61 89.106 259.003 88.6728C265.78 86.5611 273.864 85.6528 282.341 85.9307C296.782 86.4642 312.381 90.0007 328.731 96.4548C323.664 113.75 316.7 128.431 308.022 140.096C302.808 147.141 297.05 152.715 290.876 156.704C288.71 158.142 286.182 159.462 283.166 160.728C280.207 159.645 276.98 158.695 273.377 157.858C274.562 156.306 275.643 154.752 276.648 153.157C283.243 142.385 287.516 130.07 289.3 116.796L290.614 112.18L286.389 110.511C274.908 103.925 262.901 99.7743 250.668 98.1806C252.236 95.442 253.548 92.824 254.649 90.2624ZM336 229.949C331.447 212.589 323.873 197.035 313.465 183.702C308.029 176.928 302.001 171.335 295.544 167.043C296.189 166.604 296.785 166.176 297.336 165.743C304.259 160.537 310.447 153.648 315.749 145.259C324.717 130.568 330.476 113.86 332.856 95.5979L331.946 93.7515C316.359 84.6834 299.913 78.9899 283.037 76.8465C274.359 75.8671 266.083 76.1353 258.486 77.6287C258.629 76.8722 258.736 76.1707 258.83 75.4691C260.004 66.9367 259.467 57.7325 257.236 48.089C253.103 31.4104 245.259 15.5539 233.923 0.963318L231.974 0.297607C214.469 4.81146 198.773 12.316 185.316 22.6298C178.475 28.0212 172.829 33.9926 168.517 40.3776C164.209 33.9321 158.566 27.9305 151.712 22.4836C138.305 12.1244 122.651 4.55923 105.168 0L103.211 0.65567C91.8149 15.1958 83.9123 31.022 79.7094 47.7107C77.4477 57.3229 76.8795 66.5272 78.022 75.046C78.1039 75.7213 78.2107 76.4072 78.3379 77.144C70.6896 75.6013 62.4354 75.3037 53.6781 76.2614C36.8116 78.3398 20.3404 83.9723 4.72379 93.001L3.80559 94.8373C6.12272 113.104 11.8197 129.838 20.7535 144.58C26.0114 152.957 32.1753 159.862 39.0611 165.08C39.6013 165.49 40.1675 165.908 40.7759 166.337C34.2681 170.613 28.1993 176.208 22.7008 183.016C12.2546 196.31 4.62002 211.832 0 229.164L0.659784 231.1C15.3368 242.386 31.2953 250.223 48.1358 254.4C57.8174 256.644 67.1465 257.199 75.6993 256.088C76.3748 256.014 77.0702 255.907 77.8017 255.777C76.2578 263.352 75.9597 271.548 76.9293 280.206C79.0277 296.93 84.7028 313.25 93.8039 328.745L95.6658 329.654C114.078 327.348 130.953 321.698 145.836 312.843C154.296 307.633 161.255 301.52 166.522 294.696C166.945 294.166 167.361 293.613 167.79 293.002C168.233 293.638 168.666 294.224 169.103 294.783C174.357 301.637 181.296 307.77 189.758 313.024C204.583 321.927 221.434 327.636 239.852 330L241.705 329.104C250.863 313.644 256.598 297.334 258.762 280.6C259.755 271.997 259.495 263.821 257.995 256.256C258.756 256.392 259.479 256.508 260.191 256.593C268.783 257.753 278.071 257.229 287.806 255.011C304.632 250.899 320.622 243.118 335.329 231.886L336 229.949Z" fill="#382405"/>
<circle cx="162" cy="164" r="109" fill="#141414" stroke="#222222" stroke-width="22"/>
<path d="M247.997 217.939L155.379 235.343L132.754 114.939L185.404 37.9232L199.157 47.325C200.44 48.2025 201.605 49.5019 202.651 51.2232C203.697 52.9444 204.376 54.6547 204.689 56.3538L205.298 59.5955L202.681 101.799L253.158 92.3139C258.097 91.3857 262.768 92.4259 267.169 95.4345C271.569 98.443 274.234 102.417 275.162 107.357L278.643 125.881C278.846 126.961 278.949 128.14 278.953 129.418C278.957 130.696 278.825 131.919 278.559 133.088L263.043 203.605C262.234 206.953 260.412 210.013 257.576 212.783C254.74 215.553 251.548 217.272 247.997 217.939ZM114.23 118.42L136.855 238.824L99.8075 245.785L77.1826 125.381L114.23 118.42Z" fill="url(#paint0_linear_116_49)"/>
<defs>
<linearGradient id="paint0_linear_116_49" x1="115" y1="63.5" x2="197.057" y2="227.511" gradientUnits="userSpaceOnUse">
<stop stop-color="#623F0B"/>
<stop offset="0.567708" stop-color="#5C3D0D"/>
<stop offset="0.567808" stop-color="#2F1E03"/>
<stop offset="1" stop-color="#623F0B"/>
</linearGradient>
</defs>
</svg>
