<svg width="79" height="21" viewBox="0 0 79 21" fill="none" xmlns="http://www.w3.org/2000/svg">
<path d="M39.4986 18.8089C32.8905 18.8089 30.4843 15.4157 29.6861 14.0821C28.665 9.06438 34.2696 6.93963 37.3242 7.7135C35.1822 9.35669 35.9715 11.7276 36.4234 12.8578C36.4439 12.9105 36.4703 12.9632 36.4938 13.0159C35.7778 13.2094 35.0853 13.5807 35.1264 14.0212C35.2585 15.4494 37.3595 15.6502 38.2251 15.6032C38.6799 15.5803 39.1054 15.5111 39.4986 15.4032C39.8947 15.5111 40.3172 15.5803 40.7721 15.6032C41.6406 15.6502 43.7387 15.4494 43.8737 14.0212C43.9148 13.5807 43.2222 13.2094 42.5063 13.0159C42.5297 12.9632 42.5562 12.9105 42.5767 12.8578C43.0286 11.7276 43.8179 9.35669 41.6759 7.7135C44.7305 6.93963 50.3351 9.06438 49.3139 14.0821C48.5158 15.4157 46.1096 18.8089 39.4986 18.8089ZM39.4986 8.70127C41.221 9.947 40.15 11.3019 39.7744 11.8287C39.6952 11.9383 39.6013 12.0355 39.4986 12.1284C39.3988 12.0355 39.302 11.9383 39.2257 11.8287C38.8501 11.3019 37.7791 9.947 39.4986 8.70127ZM78.0821 5.97652C76.2218 3.11078 72.2633 1.89245 67.9029 2.33523C64.7632 2.65304 60.5671 4.57949 58.739 6.68696C61.2038 2.29077 57.7941 0.503635 56.2595 0.151266C53.6421 -0.444727 51.1538 0.838724 50.3292 1.94093C49.6191 2.88529 49.4548 5.182 52.4272 6.06124C54.7659 6.75038 56.2654 4.77126 54.7454 4.02289C54.1057 3.70677 53.3721 3.24504 53.5863 2.74367C53.7888 2.27349 54.7014 1.83723 55.4614 1.8463C56.685 1.86274 58.023 3.03682 58.0142 4.09055C58.0025 5.51541 57.8088 6.68273 56.0776 8.44689C55.4437 9.02645 52.2805 11.9893 51.3269 12.8405C50.4466 6.32468 43.8854 5.89243 41.8226 6.16661C40.9247 6.28674 40.1559 6.45302 39.4986 6.65554C38.8442 6.45302 38.0754 6.28674 37.1775 6.16661C35.1147 5.89243 28.5535 6.32468 27.6732 12.8405C26.7195 11.9893 23.5563 9.02645 22.9225 8.44689C21.1913 6.68273 20.9947 5.51541 20.9859 4.09055C20.9771 3.03682 22.3122 1.86274 23.5387 1.8463C24.2987 1.83723 25.2084 2.27349 25.4138 2.74367C25.628 3.24504 24.8944 3.70677 24.2547 4.02289C22.7318 4.77126 24.2342 6.75038 26.5728 6.06124C29.5453 5.182 29.381 2.88529 28.6709 1.94093C27.8434 0.838724 25.3551 -0.444727 22.7406 0.151266C21.2059 0.503635 17.7962 2.29077 20.2581 6.68696C18.433 4.57949 14.234 2.65304 11.0971 2.33523C6.73673 1.89245 2.77833 3.11078 0.917962 5.97652C-1.24464 9.30885 0.923805 12.5055 2.21198 13.7322C3.9403 15.372 7.83712 16.3731 10.123 15.9533C14.9529 15.0681 17.9664 9.69831 12.3178 7.86902C10.5191 7.28547 7.93689 7.57609 6.78663 8.4528C4.88225 9.90737 6.2203 10.9059 6.85705 11.2033C9.32776 12.3539 10.6042 9.61423 11.9188 11.469C12.5907 12.4151 10.9798 13.7215 9.36588 14.0507C7.78134 14.375 5.80069 13.9767 4.32472 13.0365C1.95671 11.5276 1.17325 8.83235 2.49957 6.76914C3.82589 4.70613 7.19155 3.38665 10.3254 3.70277C12.2357 3.89624 15.2287 4.60245 17.1125 5.87937C19.9618 7.81466 23.524 11.5316 26.388 14.371C26.0006 14.2277 25.5928 14.0985 25.1556 13.9957C24.378 13.8144 23.524 13.6983 22.6437 13.7156C22.4237 13.7198 22.2036 13.7428 21.9835 13.7577C21.7634 13.7699 21.5434 13.8037 21.3175 13.8416C20.8714 13.9198 20.3902 14.0523 19.9618 14.2673C19.862 14.3183 19.7593 14.3685 19.6566 14.4212C19.5657 14.4821 19.4717 14.5438 19.3778 14.6064C19.1842 14.7291 19.0345 14.8789 18.8702 15.0279C18.7851 15.0996 18.7323 15.186 18.6619 15.2667C18.5973 15.3489 18.521 15.4287 18.4741 15.5168C18.3714 15.6922 18.2599 15.8667 18.2012 16.0544C18.0486 16.4232 18.031 16.8192 18.0779 17.1988C18.1542 17.5699 18.2892 17.924 18.5122 18.2146C18.9318 18.8089 19.551 19.1885 20.0557 19.344C20.3022 19.4289 20.5369 19.4494 20.713 19.4306C20.8949 19.4116 21.0211 19.3482 21.1062 19.2386C21.1913 19.1292 21.2118 19.0091 21.1913 18.8871C21.1825 18.8262 21.1619 18.763 21.1326 18.7021C21.1062 18.6361 21.0768 18.567 21.0357 18.4995C20.8832 18.2293 20.6601 17.9158 20.5281 17.5676C20.4489 17.3946 20.4254 17.2135 20.4048 17.039C20.4137 16.8662 20.4225 16.6892 20.5017 16.5179C20.5604 16.3434 20.6895 16.1895 20.8069 16.0488C20.9506 15.9236 21.0915 15.8058 21.2558 15.7425C21.4055 15.6601 21.6197 15.6075 21.8691 15.5548C22.1185 15.5004 22.4208 15.4856 22.7054 15.4494C23.2893 15.4205 23.9026 15.4477 24.51 15.5301C25.1233 15.6058 25.7189 15.7573 26.2882 15.9219C26.8575 16.0841 27.3886 16.3031 27.8903 16.5056C28.4801 16.7609 29.0113 17.0175 29.4719 17.2473C30.0823 17.7619 30.9068 18.4361 30.9068 18.4361C30.9068 18.4361 31.9691 19.1482 32.5794 19.4584C34.6745 20.5181 37.0748 21.0285 39.4986 20.9988C41.9223 21.0285 44.3255 20.5181 46.4207 19.4584C46.852 19.2386 48.3485 18.1307 49.3902 17.3172C49.8832 17.0702 50.4612 16.7864 51.1097 16.5056C51.6086 16.3031 52.1426 16.0841 52.709 15.9219C53.2782 15.7573 53.8768 15.6058 54.4871 15.5301C55.0975 15.4477 55.7078 15.4205 56.2947 15.4494C56.5793 15.4856 56.8786 15.5004 57.131 15.5548C57.3804 15.6075 57.5946 15.6601 57.7442 15.7425C57.9086 15.8058 58.0494 15.9236 58.1932 16.0488C58.3106 16.1895 58.4397 16.3434 58.4955 16.5179C58.5776 16.6892 58.5864 16.8662 58.5952 17.039C58.5717 17.2135 58.5512 17.3946 58.472 17.5676C58.3399 17.9158 58.114 18.2293 57.9643 18.4995C57.9232 18.567 57.8939 18.6361 57.8675 18.7021C57.8382 18.763 57.8176 18.8262 57.8088 18.8871C57.7883 19.0091 57.8088 19.1292 57.8939 19.2386C57.9761 19.3482 58.1052 19.4116 58.2842 19.4306C58.4632 19.4494 58.695 19.4289 58.9444 19.344C59.4491 19.1885 60.0653 18.8089 60.4879 18.2146C60.7109 17.924 60.8459 17.5699 60.9222 17.1988C60.9662 16.8192 60.9485 16.4232 60.796 16.0544C60.7402 15.8667 60.6258 15.6922 60.526 15.5168C60.4761 15.4287 60.3998 15.3489 60.3382 15.2667C60.2678 15.186 60.212 15.0996 60.1269 15.0279C59.9655 14.8789 59.8159 14.7291 59.6193 14.6064C59.5254 14.5438 59.4344 14.4821 59.3435 14.4212C59.2378 14.3685 59.1381 14.3183 59.0383 14.2673C58.6099 14.0523 58.1257 13.9198 57.6797 13.8416C57.4567 13.8037 57.2337 13.7699 57.0165 13.7577C56.7965 13.7428 56.5764 13.7198 56.3563 13.7156C55.4731 13.6983 54.6221 13.8144 53.8445 13.9957C53.4073 14.0985 52.9965 14.2277 52.6121 14.371C55.476 11.5316 59.0383 7.81466 61.8875 5.87937C63.7714 4.60245 66.7644 3.89624 68.6717 3.70277C71.8085 3.38665 75.1713 4.70613 76.5005 6.76914C77.8268 8.83235 77.0434 11.5276 74.6754 13.0365C73.1994 13.9767 71.2187 14.375 69.6312 14.0507C68.0203 13.7215 66.4094 12.4151 67.0784 11.469C68.393 9.61423 69.6694 12.3539 72.143 11.2033C72.7798 10.9059 74.1178 9.90737 72.2135 8.4528C71.0603 7.57609 68.481 7.28547 66.6793 7.86902C61.0337 9.69831 64.0472 15.0681 68.8771 15.9533C71.16 16.3731 75.0598 15.372 76.7851 13.7322C78.0763 12.5055 80.2447 9.30885 78.0821 5.97652Z" fill="#C19859"/>
</svg>
