<svg width="176" height="22" viewBox="0 0 176 22" fill="none" xmlns="http://www.w3.org/2000/svg">
<path d="M128.628 10.1081C118.464 10.1441 102.937 10.0548 102.697 10.9188C102.457 11.7828 118.765 11.5854 128.868 11.6228C150.395 11.7014 175.447 11.0908 175.447 10.9188C175.447 10.7468 150.159 10.0308 128.628 10.1081Z" fill="#FFA51E"/>
<path d="M46.8187 11.6241C56.9827 11.5881 72.5093 11.6775 72.7493 10.8135C72.9893 9.94945 56.6814 10.1454 46.5787 10.1094C25.052 10.0308 0 10.6415 0 10.8135C0 10.9855 25.2867 11.7001 46.8187 11.6241Z" fill="#FFA51E"/>
<path d="M94.376 14.6988C94.1253 15.0228 92.8773 16.6814 92.5 17.1574C92.1187 13.5388 89.4973 13.3201 88.676 13.4788C88.3173 13.5481 88.012 13.6428 87.7507 13.7574C87.488 13.6481 87.18 13.5574 86.8213 13.4948C85.996 13.3481 83.38 13.6108 83.0587 17.2348C82.6733 16.7654 81.3973 15.1281 81.1413 14.8081C80.4427 13.8348 80.36 13.1854 80.348 12.3948C80.344 12.0814 80.4973 11.7548 80.712 11.5108C80.8293 11.5735 80.9413 11.6214 81.036 11.6428C81.404 11.7241 81.756 11.6788 82.0853 11.5908C82.092 11.6041 82.1053 11.6174 82.1093 11.6308C82.1973 11.9081 81.9067 12.1681 81.6533 12.3455C81.0493 12.7668 81.6573 13.8614 82.588 13.4694C83.7693 12.9721 83.6947 11.6961 83.4067 11.1734C83.356 11.0814 83.284 10.9868 83.204 10.8934C83.272 10.8054 83.3573 10.7201 83.3947 10.6294C83.6267 10.0788 83.7293 8.82545 82.5387 8.34679C81.6013 7.97079 81.012 9.07609 81.6227 9.48676C81.876 9.65876 82.1653 9.90943 82.0907 10.1854C81.76 10.0934 81.3987 10.0788 81.0307 10.2001C80.9387 10.2294 80.8293 10.2841 80.7133 10.3534C80.4867 10.1108 80.3187 9.78143 80.3173 9.4601C80.3147 8.6681 80.388 8.01877 81.0707 7.0321C81.32 6.70811 82.5693 5.05078 82.9467 4.57478C83.328 8.19345 85.9493 8.41209 86.7707 8.25209C87.1293 8.18276 87.4347 8.08811 87.696 7.97345C87.9587 8.08411 88.2667 8.17344 88.6253 8.23744C89.4493 8.38278 92.0667 8.12144 92.388 4.4961C92.7733 4.96677 94.0493 6.60276 94.3053 6.92276C95.004 7.89743 95.0867 8.54544 95.0973 9.33744C95.1027 9.65078 94.9493 9.97743 94.7347 10.2214C94.6173 10.1588 94.504 10.1094 94.4107 10.0894C94.0413 10.0081 93.6907 10.0534 93.3613 10.1414C93.3547 10.1268 93.3413 10.1148 93.3373 10.1001C93.248 9.82277 93.54 9.56409 93.7933 9.38676C94.3973 8.96543 93.7893 7.87077 92.8587 8.26143C91.676 8.75877 91.752 10.0348 92.04 10.5574C92.0907 10.6508 92.1613 10.7454 92.2413 10.8388C92.1733 10.9268 92.0893 11.0108 92.0507 11.1028C91.82 11.6521 91.7173 12.9068 92.908 13.3841C93.844 13.7601 94.4347 12.6561 93.824 12.2441C93.5693 12.0735 93.2813 11.8215 93.356 11.5468C93.6853 11.6375 94.0467 11.6521 94.416 11.5321C94.508 11.5014 94.6173 11.4468 94.732 11.3788C94.96 11.6215 95.128 11.9508 95.1293 12.2721C95.1307 13.0641 95.0587 13.7134 94.376 14.6988ZM87.76 14.8961C88.4533 15.5814 88.0307 16.3388 87.884 16.6321C87.8533 16.6934 87.816 16.7481 87.776 16.8001C87.7347 16.7494 87.696 16.6948 87.6653 16.6334C87.512 16.3428 87.0787 15.5934 87.76 14.8961ZM91.7027 17.8534C91.3893 18.5974 90.4453 20.4908 87.8067 20.5134C85.168 20.5348 84.192 18.6561 83.8667 17.9175C83.436 15.1335 85.664 13.9334 86.8867 14.3534C86.0387 15.2748 86.3653 16.5881 86.5507 17.2161C86.56 17.2455 86.5693 17.2734 86.58 17.3028C86.2947 17.4134 86.02 17.6214 86.0387 17.8654C86.0987 18.6601 86.9373 18.7641 87.2827 18.7361C87.4653 18.7214 87.6333 18.6814 87.7907 18.6214C87.9493 18.6788 88.1187 18.7161 88.3 18.7268C88.6467 18.7494 89.484 18.6321 89.5307 17.8374C89.5453 17.5921 89.2667 17.3895 88.98 17.2828C88.9893 17.2535 88.9987 17.2254 89.0067 17.1948C89.1827 16.5654 89.4867 15.2454 88.624 14.3388C89.84 13.8988 92.0867 15.0614 91.7027 17.8534ZM87.6867 6.83611C86.9933 6.14944 87.4147 5.39344 87.5627 5.10011C87.5933 5.03877 87.6307 4.9841 87.6707 4.93077C87.712 4.98277 87.7507 5.03744 87.7813 5.09744C87.9333 5.38944 88.368 6.13878 87.6867 6.83611ZM83.744 3.87878C84.056 3.13478 85.0013 1.24009 87.64 1.21876C90.2787 1.19742 91.2547 3.07612 91.5787 3.81345C92.0107 6.59878 89.7827 7.79878 88.56 7.37878C89.4067 6.45745 89.0813 5.14279 88.896 4.51612C88.8867 4.48679 88.876 4.45743 88.8667 4.42943C89.152 4.31743 89.4267 4.11077 89.408 3.86677C89.348 3.07077 88.5093 2.9681 88.1627 2.9961C87.9813 3.01077 87.812 3.05078 87.656 3.11078C87.4973 3.05345 87.328 3.01611 87.1467 3.00411C86.8 2.98144 85.9627 3.09877 85.916 3.89477C85.9013 4.1401 86.18 4.34279 86.4667 4.44945C86.4573 4.47745 86.4467 4.50677 86.4387 4.53611C86.264 5.16677 85.96 6.48543 86.8213 7.39343C85.6067 7.83343 83.36 6.67078 83.744 3.87878ZM103.148 13.2534C102.392 11.6681 100.807 11.0028 99.068 11.2628C97.8173 11.4508 96.1493 12.5348 95.4307 13.7121C95.9907 12.2868 95.76 11.3521 95.3507 10.7828C95.744 10.2095 95.9533 9.29343 95.376 7.8921C96.1147 9.05743 97.7987 10.1135 99.0533 10.2815C100.795 10.5135 102.369 9.82143 103.099 8.22276C103.947 6.3641 103.068 4.59479 102.547 3.91746C101.851 3.01079 100.289 2.46811 99.3787 2.70945C97.456 3.21745 96.2773 6.21078 98.54 7.20945C99.2613 7.52812 100.289 7.35744 100.745 6.86544C101.499 6.0521 100.961 5.50144 100.704 5.33878C99.7133 4.70678 99.216 6.23345 98.6827 5.20678C98.4107 4.68411 99.048 3.9521 99.6893 3.7641C100.321 3.57744 101.113 3.79212 101.707 4.31078C102.659 5.14145 102.984 6.63609 102.464 7.78809C101.944 8.94009 100.607 9.68279 99.3547 9.51746C98.592 9.41746 97.3933 9.03344 96.636 8.33077C95.4893 7.26544 94.0507 5.21078 92.8947 3.64145C93.0493 3.72011 93.212 3.79078 93.388 3.84678C93.6987 3.94412 94.04 4.00677 94.392 3.99343C94.4787 3.99077 94.568 3.97744 94.6547 3.96811C94.7427 3.96144 94.8307 3.94143 94.92 3.92009C95.0973 3.87476 95.2893 3.80012 95.46 3.67878C95.4987 3.65078 95.54 3.62143 95.58 3.5921C95.616 3.55743 95.6533 3.52276 95.6907 3.48809C95.768 3.42009 95.8267 3.33476 95.8907 3.25209C95.9253 3.21076 95.9467 3.16409 95.9733 3.11876C95.9987 3.07342 96.0293 3.02812 96.048 2.97878C96.088 2.88145 96.132 2.78412 96.1533 2.67878C96.2133 2.47345 96.2187 2.25345 96.1987 2.04278C96.1667 1.83611 96.1107 1.64012 96.02 1.48012C95.8493 1.15078 95.6013 0.942763 95.3987 0.857429C95.2987 0.810763 95.2067 0.800115 95.136 0.810782C95.064 0.822782 95.0133 0.858757 94.98 0.918757C94.9467 0.980091 94.9387 1.04679 94.948 1.11479C94.952 1.14945 94.96 1.18279 94.972 1.21746C94.9827 1.25346 94.9947 1.2921 95.0107 1.32943C95.0733 1.4801 95.164 1.65345 95.2187 1.84678C95.2507 1.94145 95.26 2.04144 95.2693 2.14011C95.268 2.23611 95.264 2.33343 95.2333 2.42943C95.212 2.52677 95.16 2.6121 95.1147 2.69076C95.0573 2.76143 95.0013 2.82677 94.936 2.86143C94.8773 2.90943 94.792 2.94011 94.692 2.96811C94.5933 3.00011 94.4733 3.00943 94.3587 3.02943C94.1253 3.04943 93.8813 3.03476 93.6373 2.9921C93.3933 2.9521 93.1547 2.86945 92.9267 2.78012C92.6987 2.69078 92.4853 2.5721 92.2853 2.46143C92.048 2.32143 91.8347 2.18009 91.6507 2.05343C91.4027 1.76943 91.072 1.39744 91.072 1.39744C91.072 1.39744 90.6453 1.00544 90.4 0.836108C89.5587 0.253441 88.5973 -0.0225604 87.6293 0.00143957C86.6627 -0.00656043 85.7053 0.285453 84.8747 0.881453C84.7027 1.00412 84.1107 1.62545 83.6987 2.08145C83.5027 2.22012 83.2733 2.37878 83.016 2.53744C82.8173 2.65211 82.6067 2.77477 82.38 2.86677C82.1533 2.9601 81.916 3.04676 81.672 3.09076C81.4293 3.13743 81.1853 3.15611 80.952 3.14011C80.8373 3.12144 80.7173 3.11476 80.6173 3.08542C80.5173 3.05742 80.432 3.02812 80.372 2.98279C80.3067 2.94812 80.2493 2.88412 80.1907 2.81479C80.1427 2.73612 80.0907 2.65209 80.068 2.55476C80.0347 2.46009 80.0307 2.36144 80.0267 2.26544C80.0347 2.1681 80.0413 2.06678 80.0733 1.97211C80.124 1.77744 80.212 1.60279 80.272 1.45079C80.2867 1.41346 80.2987 1.37478 80.3093 1.33878C80.32 1.30411 80.328 1.26944 80.332 1.23611C80.3387 1.16811 80.3307 1.10144 80.296 1.04011C80.2627 0.980112 80.2107 0.94544 80.1387 0.934773C80.068 0.92544 79.9747 0.937424 79.876 0.985424C79.6747 1.07476 79.4307 1.28676 79.2653 1.61876C79.1773 1.78009 79.1253 1.97746 79.096 2.18412C79.08 2.39479 79.0893 2.61476 79.152 2.82009C79.1747 2.92409 79.2213 3.02146 79.2613 3.11746C79.2827 3.16679 79.3133 3.21076 79.3387 3.25609C79.3667 3.30143 79.3893 3.34809 79.424 3.38809C79.4893 3.47076 79.5493 3.55343 79.628 3.62009C79.6653 3.65476 79.7027 3.68943 79.74 3.72276C79.7813 3.75076 79.8213 3.78011 79.8627 3.80678C80.0347 3.92678 80.2267 3.99744 80.4053 4.04011C80.4947 4.06011 80.584 4.07746 80.672 4.08412C80.7587 4.09212 80.848 4.10278 80.9347 4.10544C81.2867 4.11211 81.6267 4.04411 81.936 3.94145C82.1107 3.88278 82.2733 3.80943 82.4267 3.7281C81.296 5.3161 79.892 7.39478 78.7627 8.47878C78.0173 9.19345 76.8253 9.59745 76.064 9.71078C74.8147 9.89612 73.4653 9.17477 72.9267 8.03211C72.3867 6.88944 72.688 5.38945 73.6267 4.54278C74.2107 4.01478 74.9987 3.78677 75.6347 3.96277C76.2787 4.14143 76.928 4.86143 76.6653 5.38943C76.1493 6.4241 75.6267 4.90676 74.6453 5.55343C74.392 5.72009 73.8627 6.28012 74.6293 7.08145C75.0933 7.56679 76.1253 7.71876 76.8413 7.38943C79.0867 6.35343 77.8587 3.37877 75.9267 2.90277C75.0133 2.67744 73.396 3.20144 72.78 4.1641C71.3147 6.45344 72.0893 8.03745 72.2987 8.47745C73.0547 10.0641 74.64 10.7294 76.3787 10.4681C77.6293 10.2814 79.296 9.19609 80.016 8.01876C79.456 9.44543 79.6853 10.3801 80.096 10.9495C79.7027 11.5228 79.4933 12.4388 80.0707 13.8401C79.332 12.6748 77.6467 11.6175 76.3933 11.4508C74.6507 11.2188 73.0773 11.9094 72.3467 13.5094C71.4987 15.3668 72.3787 17.1375 72.9 17.8148C73.596 18.7201 75.1573 19.2628 76.0667 19.0228C77.9907 18.5148 79.1693 15.5214 76.9067 14.5228C76.1853 14.2041 75.1573 14.3734 74.7013 14.8654C73.9467 15.6801 74.4853 16.2308 74.7413 16.3934C75.7333 17.0254 76.2307 15.4988 76.764 16.5241C77.036 17.0481 76.3987 17.7788 75.7573 17.9681C75.1253 18.1534 74.3333 17.9388 73.7387 17.4214C72.788 16.5908 72.4613 15.0948 72.9813 13.9441C73.5027 12.7921 74.8387 12.0481 76.092 12.2135C76.8547 12.3148 78.0533 12.6974 78.8107 13.4014C79.9573 14.4668 81.396 16.5214 82.552 18.0894C82.3973 18.0108 82.2333 17.9414 82.0587 17.8854C81.7467 17.7868 81.4067 17.7254 81.0547 17.7388C80.9667 17.7414 80.8787 17.7534 80.7907 17.7628C80.704 17.7708 80.616 17.7908 80.5267 17.8121C80.348 17.8561 80.1573 17.9321 79.9867 18.0534C79.9467 18.0814 79.9067 18.1108 79.8653 18.1401C79.8293 18.1734 79.7933 18.2081 79.756 18.2441C79.6787 18.3121 79.62 18.3961 79.5547 18.4788C79.5213 18.5201 79.5 18.5681 79.472 18.6134C79.448 18.6588 79.4173 18.7041 79.3987 18.7521C79.3587 18.8508 79.3147 18.9481 79.292 19.0534C79.2333 19.2574 79.228 19.4788 79.248 19.6894C79.28 19.8948 79.336 20.0908 79.4267 20.2521C79.5973 20.5801 79.8453 20.7894 80.048 20.8748C80.1467 20.9201 80.24 20.9321 80.3107 20.9201C80.3827 20.9094 80.4333 20.8734 80.4667 20.8121C80.5 20.7521 80.508 20.6854 80.4987 20.6161C80.4947 20.5828 80.4867 20.5481 80.4747 20.5134C80.464 20.4774 80.4507 20.4388 80.4347 20.4014C80.3733 20.2521 80.2827 20.0788 80.228 19.8854C80.196 19.7908 80.1853 19.6894 80.1773 19.5921C80.1787 19.4961 80.1813 19.3974 80.2133 19.3028C80.2347 19.2054 80.2853 19.1188 80.332 19.0401C80.3893 18.9708 80.4453 18.9054 80.5107 18.8694C80.5693 18.8228 80.6547 18.7921 80.7547 18.7628C80.8533 18.7321 80.9733 18.7228 81.0867 18.7014C81.32 18.6828 81.5653 18.6961 81.808 18.7401C82.0533 18.7801 82.292 18.8628 82.52 18.9521C82.748 19.0401 82.9613 19.1601 83.1613 19.2708C83.3987 19.4108 83.6107 19.5521 83.796 19.6788C84.0427 19.9614 84.3747 20.3348 84.3747 20.3348C84.3747 20.3348 84.8013 20.7268 85.0467 20.8961C85.888 21.4788 86.8493 21.7548 87.816 21.7308C88.784 21.7388 89.74 21.4468 90.572 20.8508C90.7427 20.7281 91.336 20.1054 91.748 19.6508C91.9427 19.5121 92.172 19.3521 92.4307 19.1948C92.6293 19.0801 92.84 18.9561 93.0667 18.8641C93.292 18.7721 93.5307 18.6854 93.7747 18.6401C94.0173 18.5934 94.2613 18.5761 94.4947 18.5908C94.6093 18.6094 94.7293 18.6174 94.8293 18.6468C94.9293 18.6748 95.0147 18.7028 95.0747 18.7494C95.14 18.7828 95.1973 18.8481 95.256 18.9174C95.3027 18.9948 95.3547 19.0801 95.3787 19.1774C95.412 19.2721 95.416 19.3708 95.42 19.4654C95.412 19.5641 95.404 19.6654 95.3733 19.7601C95.3227 19.9548 95.2347 20.1294 95.1747 20.2801C95.16 20.3174 95.148 20.3561 95.1373 20.3921C95.1267 20.4268 95.1187 20.4614 95.1147 20.4961C95.1067 20.5641 95.116 20.6308 95.1507 20.6908C95.184 20.7521 95.236 20.7868 95.308 20.7974C95.3787 20.8068 95.472 20.7934 95.5707 20.7468C95.7707 20.6574 96.016 20.4441 96.1813 20.1134C96.2693 19.9508 96.3213 19.7534 96.3507 19.5481C96.3667 19.3361 96.3573 19.1161 96.2947 18.9121C96.272 18.8081 96.2253 18.7108 96.184 18.6134C96.164 18.5654 96.1333 18.5214 96.108 18.4748C96.08 18.4308 96.0573 18.3828 96.0227 18.3428C95.9573 18.2614 95.8973 18.1775 95.8187 18.1108C95.78 18.0761 95.744 18.0428 95.7067 18.0094C95.6653 17.9801 95.624 17.9521 95.584 17.9241C95.412 17.8054 95.2187 17.7334 95.04 17.6921C94.9507 17.6721 94.8627 17.6535 94.7747 17.6481C94.6867 17.6401 94.5987 17.6281 94.512 17.6268C94.16 17.6188 93.82 17.6881 93.5107 17.7908C93.336 17.8494 93.1733 17.9214 93.02 18.0028C94.1493 16.4148 95.5547 14.3374 96.684 13.2534C97.4293 12.5374 98.6213 12.1348 99.3813 12.0214C100.632 11.8348 101.981 12.5561 102.52 13.7001C103.059 14.8414 102.759 16.3428 101.82 17.1894C101.235 17.7161 100.447 17.9441 99.812 17.7694C99.168 17.5908 98.5173 16.8694 98.7813 16.3428C99.2973 15.3081 99.82 16.8255 100.801 16.1775C101.055 16.0108 101.584 15.4508 100.816 14.6495C100.353 14.1655 99.3213 14.0121 98.6053 14.3428C96.36 15.3788 97.588 18.3521 99.52 18.8294C100.433 19.0534 102.051 18.5308 102.667 17.5681C104.132 15.2788 103.357 13.6948 103.148 13.2534Z" fill="#FFA51E"/>
</svg>
