<svg width="665" height="473" viewBox="0 0 665 473" fill="none" xmlns="http://www.w3.org/2000/svg">
<g filter="url(#filter0_f_112_1952)">
<path d="M292.402 90.5399C292.774 90.627 288.037 83.3966 291.507 70.8367C293.242 64.6201 297.17 57.3584 303.23 49.4154C309.234 41.4565 317.29 32.8403 326.4 23.2106C335.351 13.4778 345.878 3.00067 353.887 -10.6679C355.827 -14.1128 357.538 -17.7953 358.671 -21.7866C359.78 -25.865 360.335 -29.4602 360.644 -33.5465C361.222 -41.5212 360.129 -49.8603 357.332 -58.0567C351.795 -74.5762 339.668 -89.8602 326.487 -104.083L306.343 -125.267L301.424 -130.565L295.206 -137.605C288.893 -144.994 282.873 -153.879 276.757 -162.099L275.363 -164C269.311 -156.136 263.196 -147.631 257.034 -140.084L252.312 -134.485L249.92 -131.777L245.144 -126.55C238.68 -119.629 231.796 -112.937 224.921 -106.15C218.069 -99.3634 211.185 -92.4182 205.268 -84.9107C199.351 -77.4191 194.574 -69.3256 191.81 -61.1055C188.982 -52.8853 188.016 -44.6889 188.229 -36.936C188.277 -35.0116 188.404 -33.0872 188.578 -31.0362C188.95 -28.407 189.584 -26.5539 190.329 -24.5424C191.818 -20.662 193.703 -17.2251 195.628 -13.9149C203.502 -0.856079 212.104 10.1992 219.463 20.5496C234.45 41.0288 245.049 58.0235 249.081 70.5121C253.39 82.9849 250.792 90.3101 250.918 90.2468C250.752 90.3339 255.14 83.3412 253.247 70.029C251.647 56.8038 243.852 38.2966 231.796 16.59C225.95 5.73274 218.782 -6.05092 212.967 -18.5C211.573 -21.5885 210.282 -24.7325 209.49 -27.7181C209.102 -29.1277 208.825 -30.7749 208.817 -31.7173L209.047 -36.6351C209.538 -43.3981 211.019 -50.161 213.871 -56.7103C219.344 -69.9037 231.448 -81.9489 245.754 -95.0078C252.835 -101.549 260.265 -108.391 267.347 -115.693L272.599 -121.244L275.102 -124.016C275.126 -124.032 275.141 -124.032 275.149 -124.032C275.173 -124.032 275.173 -124.008 275.173 -124.008C275.173 -124.008 275.173 -124.024 275.205 -124.024L275.26 -123.976L276.298 -122.836L278.904 -120.001L284.188 -114.481L305.02 -93.6694C318.304 -80.2939 329.537 -67.243 335.2 -53.8515C338.068 -47.1835 339.573 -40.476 339.771 -33.8634C339.882 -30.6719 339.66 -27.0766 339.193 -24.194C338.694 -21.2164 337.696 -18.1912 336.396 -15.2056C331.034 -3.20007 322.225 7.9343 314.724 18.1897C307.088 28.453 300.228 38.0038 295.42 46.8258C290.556 55.6161 287.831 63.7173 287.301 70.4329C286.714 77.1563 288.227 82.3277 289.677 85.63C291.198 88.9403 292.449 90.5241 292.402 90.5399Z" fill="#FFBB55" fill-opacity="0.1"/>
<path d="M369.428 68.4057C369.634 68.572 370.45 63.7966 376.312 58.562C382.055 53.1373 393.105 48.362 407.949 42.9215C415.292 40.0626 423.657 37.1168 431.951 31.7238C440.648 26.0061 446.542 17.5325 450.146 7.37215C453.742 -2.83574 454.035 -14.7305 453.196 -26.1817L450.993 -50.5413C450.471 -62.0955 451.073 -76.4372 451.009 -88.7437V-89.3138C440.561 -83.4219 428.877 -76.4212 418.524 -70.7748C415.879 -69.3414 413.312 -68.1932 410.754 -66.9341L403.625 -63.806L395.949 -60.5036C385.588 -56.1005 374.339 -50.1056 367.424 -41.6716C363.915 -37.5299 361.246 -33.1348 359.194 -28.7317C358.172 -26.7519 356.96 -23.2991 356.659 -20.8442C356.208 -18.2388 356.049 -15.8155 355.986 -13.511C355.709 -4.17419 356.311 4.17268 356.659 11.8306C357.554 26.9722 357.657 38.9779 356.192 46.8496C354.956 54.7847 352.16 58.3482 352.239 58.3798C352.081 58.3482 356.54 56.0438 360.707 48.9719C365.032 42.0188 368.763 30.5676 371.694 16.1546C373.183 9.05109 374.474 1.0367 376.344 -6.74791C376.858 -8.64853 377.389 -10.5411 378.039 -12.1566C378.736 -14.0097 379.243 -14.5483 380.558 -16.3935C382.863 -19.6008 385.588 -22.6417 388.685 -25.2551C394.832 -30.5768 403.054 -34.0058 413.708 -37.7358L421.812 -40.6579C422.818 -41.038 422.477 -40.9035 422.556 -40.9193L422.659 -40.8955L422.73 -40.8402C422.794 -40.7215 422.754 -40.6423 422.754 -40.6423C422.754 -40.6423 422.794 -40.7134 422.897 -40.6817L423.024 -40.6502L423.071 -40.6106C423.095 -40.5393 423.071 -40.7531 423.119 -40.3888L423.245 -39.3276L424.521 -31.0599C426.073 -20.3373 426.747 -10.9372 425.321 -2.82793C423.816 5.19426 420.592 12.5989 415.744 17.5088C410.547 22.7988 403.735 27.2573 397.644 31.4782C385.255 39.7934 375.71 48.1561 372.145 55.7744C368.383 63.2739 369.682 68.572 369.428 68.4057Z" fill="#FFBB55" fill-opacity="0.1"/>
<path d="M292.402 345.46C292.774 345.373 288.037 352.603 291.507 365.171C293.242 371.372 297.17 378.642 303.23 386.585C309.234 394.543 317.29 403.159 326.4 412.797C335.351 422.522 345.878 432.999 353.887 446.668C355.827 450.105 357.538 453.787 358.671 457.786C359.78 461.873 360.335 465.468 360.644 469.554C361.222 477.521 360.129 485.86 357.332 494.057C351.795 510.576 339.668 525.868 326.487 540.091L306.343 561.267L301.424 566.565L295.206 573.613C288.893 580.994 282.873 589.887 276.757 598.107L275.363 600C269.311 592.144 263.196 583.639 257.034 576.092L252.312 570.493L249.92 567.777L245.144 562.55C238.68 555.629 231.796 548.945 224.921 542.15C218.069 535.363 211.185 528.426 205.268 520.911C199.351 513.419 194.574 505.326 191.81 497.097C188.982 488.885 188.016 480.689 188.229 472.944C188.277 471.011 188.404 469.095 188.578 467.044C188.95 464.407 189.584 462.554 190.329 460.542C191.818 456.662 193.703 453.233 195.628 449.923C203.502 436.856 212.104 425.801 219.463 415.458C234.45 394.971 245.049 377.976 249.081 365.488C253.39 353.015 250.792 345.698 250.918 345.753C250.752 345.682 255.14 352.659 253.247 365.963C251.647 379.188 243.852 397.711 231.796 419.41C225.95 430.267 218.782 442.051 212.967 454.5C211.573 457.588 210.282 460.74 209.49 463.718C209.102 465.135 208.825 466.783 208.817 467.725L209.047 472.635C209.538 479.39 211.019 486.153 213.871 492.718C219.344 505.911 231.448 517.957 245.754 531.016C252.835 537.549 260.265 544.399 267.347 551.693L272.599 557.252L275.102 560.024C275.126 560.031 275.141 560.031 275.149 560.031C275.173 560.031 275.173 560.008 275.173 560C275.173 560 275.173 560.024 275.205 560.024L275.26 559.976L276.298 558.836L278.904 556.009L284.188 550.489L305.02 529.677C318.304 516.294 329.537 503.243 335.2 489.851C338.068 483.183 339.573 476.476 339.771 469.871C339.882 466.672 339.66 463.084 339.193 460.202C338.694 457.224 337.696 454.199 336.396 451.205C331.034 439.2 322.225 428.065 314.724 417.81C307.088 407.547 300.228 397.996 295.42 389.174C290.556 380.392 287.831 372.29 287.301 365.567C286.714 358.844 288.227 353.664 289.677 350.37C291.198 347.068 292.449 345.476 292.402 345.46Z" fill="#FFBB55" fill-opacity="0.1"/>
<path d="M193.221 375.451C193.45 375.522 189.735 378.706 188.167 386.395C186.393 394.053 187.826 405.988 190.638 421.589C191.858 429.349 193.538 438.013 193.11 447.952C192.508 458.334 188.191 467.639 181.244 475.93C174.225 484.158 164.094 490.422 153.765 495.443L131.601 505.849C121.446 511.274 109.335 519.034 98.6963 525.196L98.1419 525.457C97.9676 513.499 98.134 499.854 97.7934 488.055C97.7142 485.101 97.4131 482.281 97.1438 479.343L96.2805 471.646L95.2745 463.331C93.8328 452.188 93.3574 439.518 97.1517 429.246C98.9419 424.162 101.374 419.609 104.17 415.586C105.374 413.788 107.735 410.961 109.675 409.393C111.695 407.761 113.715 406.376 115.703 405.116C123.632 400.159 131.118 396.54 137.883 393.008C151.436 386.079 161.837 380.076 167.92 374.912C174.123 369.852 175.802 365.631 175.873 365.687C175.794 365.607 176.016 370.581 172.047 377.732C168.221 385.017 160.165 393.927 149.25 403.683C143.832 408.688 137.566 413.788 131.815 419.347C130.397 420.749 129.066 422.174 127.981 423.552C126.738 425.057 126.508 425.754 125.605 427.789C123.981 431.408 122.777 435.344 122.009 439.367C120.527 447.302 121.692 456.148 123.87 467.195L125.454 475.669C125.613 476.762 125.573 476.358 125.613 476.421L125.66 476.461L125.787 476.603C125.874 476.619 125.922 476.453 125.922 476.453C125.922 476.453 125.882 476.619 125.953 476.682L126.08 476.738L126.136 476.754C126.199 476.738 125.961 476.825 126.302 476.714L127.316 476.279L135.102 473.214C145.146 469.135 153.591 464.962 159.92 459.577C166.114 454.319 170.804 447.738 172.625 441.133C174.542 433.903 174.986 425.865 175.54 418.445C176.467 403.517 178.859 391.036 183.644 384.241C188.294 377.106 193.482 375.578 193.221 375.451Z" fill="#FFBB55" fill-opacity="0.1"/>
<path d="M173.036 138.768C173.29 138.483 164.663 138.974 155.522 129.692C150.999 125.083 146.674 118.043 142.824 108.833C138.935 99.6546 135.505 88.3698 131.711 75.6673C127.758 63.052 123.94 48.7024 116.106 34.9308C114.094 31.5335 111.765 28.2074 108.874 25.2298C105.888 22.2205 103.044 19.9555 99.6616 17.6431C93.0394 13.1529 85.2767 9.92967 76.7851 8.25079C59.7069 4.798 40.3948 7.64113 21.4788 11.9492L-6.93458 18.7993L-13.9767 20.399L-23.189 22.2601C-32.742 24.0419 -43.4515 24.8021 -53.6382 25.9979L-55.9752 26.2514C-52.1967 35.4219 -47.8954 44.9724 -44.4259 54.0795L-41.9465 60.9612L-40.7821 64.3903L-38.6434 71.1455C-35.8868 80.2051 -33.5341 89.5022 -31.0944 98.8469C-28.6388 108.176 -26.0645 117.6 -22.5158 126.485C-18.9829 135.347 -14.3569 143.535 -8.62191 150.045C-2.91069 156.602 3.70369 161.536 10.5239 165.218C12.219 166.145 13.9458 166.992 15.7994 167.871C18.2708 168.861 20.2036 169.241 22.3106 169.605C26.4217 170.255 30.3348 170.334 34.1528 170.326C49.4171 170.049 63.2951 168.116 75.9295 166.913C101.175 164.188 121.192 163.507 134.024 166.263C146.983 168.766 152.037 174.682 152.037 174.539C152.029 174.721 148.171 167.435 135.695 162.415C123.433 157.188 103.503 154.685 78.6782 154.266C66.3448 153.901 52.5539 154.21 38.866 153.022C35.4915 152.682 32.1251 152.23 29.1388 151.423C27.7209 151.058 26.1525 150.464 25.3366 150.005L21.1938 147.352C15.5855 143.543 10.4683 138.879 6.21458 133.137C-2.48295 121.805 -6.85548 105.293 -11.0141 86.382C-13.137 76.9819 -15.355 67.1305 -18.1433 57.3423L-20.3216 50.0247L-21.4781 46.469C-21.4781 46.4373 -21.4622 46.4296 -21.4622 46.4216C-21.4464 46.3979 -21.4305 46.4137 -21.4305 46.4137C-21.4305 46.4216 -21.4464 46.4057 -21.4305 46.382L-21.3592 46.3503L-19.8542 46.0257L-16.0916 45.1862L-8.66948 43.3727L19.7679 35.7386C38.0026 30.9237 54.9223 27.7243 69.3628 29.514C76.5711 30.3614 83.1299 32.4205 88.9599 35.5485C91.7799 37.0611 94.7743 39.0409 97.0398 40.894C99.3686 42.8105 101.491 45.1862 103.424 47.8075C111.147 58.451 116.391 71.6444 121.524 83.2619C126.602 95.0141 131.442 105.721 136.67 114.305C141.858 122.913 147.522 129.312 153.067 133.137C158.596 137.002 163.832 138.285 167.42 138.673C171.048 139.013 173.044 138.728 173.036 138.768Z" fill="#FFBB55" fill-opacity="0.1"/>
<path d="M192.389 60.994C192.619 60.9148 188.888 57.8026 187.264 50.1209C185.45 42.4789 186.805 30.4892 189.53 14.92C190.75 7.14326 192.382 -1.63129 191.89 -11.467C191.217 -21.8333 186.852 -31.1621 179.858 -39.3981C172.792 -47.6104 162.677 -53.8032 152.316 -58.7685L130.097 -69.0477C119.855 -74.409 107.688 -82.0906 97.0731 -88.1884L96.5106 -88.4974C96.4155 -76.4839 96.6215 -62.8945 96.3363 -51.0948C96.2809 -48.0935 95.9878 -45.2663 95.7502 -42.4233L94.9263 -34.7336L93.9679 -26.4105C92.5896 -15.2206 92.146 -2.52618 95.9957 7.7213C97.8652 12.845 100.329 17.3274 103.141 21.287C104.321 23.1797 106.697 25.9832 108.686 27.4482C110.729 29.1113 112.694 30.4892 114.69 31.7404C122.651 36.6424 130.208 40.2219 136.949 43.7776C150.534 50.6198 160.982 56.5118 167.089 61.6831C173.323 66.7514 175.018 70.9643 175.097 70.9089C175.01 70.9881 175.216 66.0228 171.192 58.84C167.327 51.6256 159.271 42.669 148.244 32.9679C142.81 28.1055 136.505 22.9817 130.77 17.4541C129.289 16.0761 127.998 14.611 126.849 13.2251C125.661 11.7284 125.376 11.0316 124.512 8.99638C122.865 5.39314 121.573 1.4731 120.853 -2.49443C119.308 -10.477 120.425 -19.3228 122.587 -30.4018L124.069 -38.8753C124.259 -39.9286 124.243 -39.5565 124.267 -39.6357L124.314 -39.7227L124.401 -39.7465C124.496 -39.7782 124.584 -39.6516 124.584 -39.6516C124.584 -39.6516 124.504 -39.7704 124.623 -39.8496L124.694 -39.889L124.742 -39.9128C124.821 -39.897 124.623 -39.9919 124.972 -39.8652L125.978 -39.4772L133.733 -36.4205C143.808 -32.3975 152.268 -28.2796 158.637 -22.9895C164.855 -17.6599 169.576 -11.2056 171.398 -4.51387C173.41 2.60551 173.846 10.7465 174.503 18.0956C175.517 32.9837 177.981 45.4486 182.765 52.3225C187.447 59.3231 192.643 60.8673 192.389 60.994Z" fill="#FFBB55" fill-opacity="0.1"/>
<path d="M393.856 266.228C393.975 265.856 397.864 273.577 410.483 276.864C416.733 278.471 424.987 278.693 434.888 277.418C444.798 276.198 456.291 273.53 469.187 270.457C482.091 267.574 496.428 263.694 512.271 263.599C516.224 263.639 520.271 263.995 524.303 265.017C528.383 266.094 531.773 267.416 535.472 269.198C542.665 272.682 549.35 277.79 555.038 284.308C566.587 297.359 573.764 315.517 579.499 334.033L587.776 362.067L589.899 368.972L592.909 377.881C596.141 387.028 600.83 396.682 604.886 406.098L605.837 408.252C596.006 409.566 585.574 410.612 575.95 412.156L568.75 413.455L565.201 414.167L558.278 415.696C549.049 417.834 539.829 420.447 530.506 422.997C521.19 425.539 511.74 428.034 502.274 429.396C492.832 430.766 483.43 430.861 474.914 429.151C466.391 427.48 458.81 424.225 452.204 420.17C450.549 419.164 448.956 418.087 447.269 416.915C445.17 415.268 443.879 413.795 442.508 412.14C439.902 408.917 437.867 405.567 435.966 402.241C428.575 388.897 423.307 375.925 418.032 364.371C407.766 341.16 398.348 323.484 389.547 313.759C380.905 303.789 373.253 302.371 373.364 302.292C373.221 302.395 381.467 302.094 392.042 310.386C402.704 318.376 414.839 334.389 427.616 355.668C434.096 366.161 440.718 378.269 448.6 389.523C450.58 392.271 452.656 394.971 454.842 397.141C455.88 398.194 457.171 399.255 457.979 399.731L462.343 401.98C468.443 404.934 475.049 407.032 482.146 407.856C496.318 409.717 512.81 405.242 531.266 399.39C540.471 396.523 550.119 393.514 559.989 391.035L567.419 389.277L571.07 388.485C571.094 388.477 571.102 388.454 571.102 388.454C571.118 388.43 571.102 388.422 571.094 388.422C571.094 388.422 571.11 388.43 571.126 388.398L571.11 388.327L570.643 386.862L569.494 383.187L567.355 375.854L559.743 347.408C554.792 329.218 549.105 312.975 540.336 301.374C535.995 295.553 530.941 290.896 525.317 287.412C522.592 285.733 519.376 284.118 516.636 283.088C513.816 282.035 510.695 281.386 507.463 281.021C494.369 279.651 480.325 281.718 467.698 283.072C454.977 284.561 443.285 285.725 433.233 285.48C423.189 285.298 414.808 283.595 408.724 280.697C402.601 277.846 398.87 273.949 396.747 271.043C394.648 268.073 393.896 266.196 393.856 266.228Z" fill="#FFBB55" fill-opacity="0.1"/>
<path d="M370.212 367.08C370.418 366.953 371.258 371.752 377.159 376.876C382.926 382.269 394 387.028 408.892 392.397C416.251 395.201 424.615 398.099 432.957 403.445C441.63 409.115 447.579 417.588 451.294 427.685C454.891 437.917 455.263 449.772 454.447 461.271L452.387 485.638C451.976 497.193 452.617 511.487 452.633 523.785V524.419C442.153 518.527 430.43 511.606 420.037 506.015C417.431 504.613 414.809 503.417 412.243 502.277L405.098 499.149L397.398 495.831C387.029 491.538 375.781 485.551 368.81 477.173C365.285 473.047 362.584 468.723 360.509 464.233C359.487 462.372 358.196 458.911 357.926 456.416C357.459 453.811 357.285 451.427 357.206 449.02C356.873 439.731 357.475 431.408 357.792 423.789C358.544 408.584 358.568 396.618 357.103 388.715C355.835 380.835 352.96 377.295 353.087 377.256C352.92 377.288 357.396 379.521 361.61 386.561C365.982 393.498 369.729 404.981 372.739 419.378C374.276 426.474 375.607 434.417 377.579 442.241C378.054 444.086 378.641 445.995 379.259 447.689C379.979 449.448 380.478 450.049 381.793 451.871C384.114 455.007 386.871 458.087 389.976 460.63C396.162 465.959 404.401 469.349 415.031 472.952L423.198 475.937C424.212 476.246 423.871 476.119 423.942 476.127L423.998 476.104L424.069 476.056C424.188 475.985 424.14 475.914 424.14 475.914C424.14 475.914 424.188 475.985 424.275 475.945L424.362 475.914L424.41 475.874C424.473 475.708 424.41 476.024 424.505 475.613L424.639 474.599L425.851 466.316C427.34 455.537 427.958 446.193 426.477 438.036C424.972 429.966 421.661 422.688 416.789 417.802C411.553 412.496 404.757 408.133 398.658 403.841C386.205 395.605 376.621 387.289 373.009 379.695C369.206 372.275 370.466 366.953 370.212 367.08Z" fill="#FFBB55" fill-opacity="0.1"/>
<path d="M155.127 266.228C155.008 265.864 151.127 273.578 138.508 276.864C132.258 278.472 123.997 278.693 114.103 277.426C104.194 276.199 92.7078 273.53 79.8041 270.465C66.9083 267.575 52.5628 263.702 36.7203 263.599C32.7755 263.639 28.7199 264.003 24.6959 265.017C20.6085 266.102 17.2181 267.416 13.5189 269.198C6.32641 272.683 -0.351173 277.791 -6.05447 284.316C-17.5878 297.359 -24.7723 315.518 -30.4993 334.033L-38.777 362.067L-40.9159 368.973L-43.9102 377.874C-47.142 387.029 -51.8392 396.698 -55.8949 406.098L-56.8454 408.252C-47.0152 409.567 -36.5829 410.612 -26.9586 412.156L-19.7583 413.455L-16.2014 414.176L-9.28621 415.696C-0.0579529 417.834 9.17015 420.448 18.4855 423.006C27.8009 425.54 37.2511 428.034 46.717 429.404C56.1591 430.766 65.5617 430.862 74.077 429.151C82.6003 427.48 90.1888 424.225 96.7951 420.17C98.4427 419.165 100.043 418.088 101.722 416.916C103.821 415.268 105.112 413.795 106.483 412.14C109.097 408.917 111.125 405.567 113.026 402.241C120.416 388.897 125.684 375.934 130.967 364.372C141.225 341.16 150.636 323.492 159.444 313.76C168.086 303.789 175.738 302.372 175.627 302.301C175.77 302.396 167.524 302.095 156.949 310.386C146.279 318.392 134.152 334.389 121.375 355.668C114.903 366.169 108.265 378.27 100.391 389.523C98.4111 392.271 96.3356 394.971 94.1493 397.149C93.1117 398.187 91.8285 399.256 91.0284 399.731L86.6479 401.98C80.5406 404.942 73.9502 407.04 66.8448 407.848C52.6816 409.717 36.1975 405.243 17.7251 399.39C8.52065 396.524 -1.11951 393.514 -10.9894 391.036L-18.4274 389.278L-22.0791 388.486C-22.1108 388.478 -22.1109 388.47 -22.1109 388.454C-22.1267 388.438 -22.1109 388.422 -22.1109 388.422C-22.095 388.422 -22.1109 388.43 -22.1267 388.406L-22.1188 388.327L-21.6514 386.862L-20.5028 383.188L-18.3641 375.854L-10.7517 347.408C-5.80093 329.218 -0.11348 312.976 8.65534 301.374C12.9962 295.553 18.0579 290.897 23.6819 287.412C26.391 285.733 29.6149 284.118 32.3477 283.088C35.1756 282.035 38.2967 281.386 41.5285 281.022C54.6065 279.652 68.6588 281.718 81.2932 283.073C94.0068 284.561 105.706 285.734 115.759 285.48C125.803 285.298 134.183 283.595 140.267 280.705C146.39 277.846 150.105 273.95 152.244 271.051C154.351 268.082 155.095 266.197 155.127 266.228Z" fill="#FFBB55" fill-opacity="0.1"/>
<path d="M148.377 137.834C148.48 137.683 144.449 136.986 140.013 132.021C135.442 127.19 131.363 117.862 126.768 105.31C124.345 99.0771 121.833 92.0053 117.279 84.9968C112.415 77.6873 105.278 72.706 96.6677 69.6333C88.0098 66.632 77.9735 66.3865 68.2937 67.1151L47.6667 69C37.9236 69.4118 25.7565 68.9287 15.3797 68.9841H14.849C19.8553 77.822 25.7803 87.6893 30.5726 96.44C31.7846 98.6574 32.7748 100.851 33.8204 103.037L36.4662 109.032L39.2939 115.541C43.0011 124.284 48.1025 133.779 55.2474 139.632C58.7407 142.609 62.4477 144.842 66.2103 146.577C67.8738 147.424 70.7968 148.485 72.8643 148.731C75.0506 149.079 77.11 149.238 79.0824 149.301C86.9798 149.531 94.0377 148.976 100.486 148.675C113.334 147.939 123.481 147.836 130.119 149.047C136.828 150.101 139.862 152.484 139.894 152.405C139.862 152.508 137.929 148.755 131.917 145.223C126.032 141.588 116.336 138.444 104.169 136.004C98.1331 134.722 91.3525 133.652 84.7858 132.037C83.1461 131.633 81.5697 131.158 80.1756 130.611C78.6389 130.017 78.1557 129.622 76.6348 128.521C73.902 126.549 71.3355 124.252 69.1017 121.631C64.5866 116.444 61.6794 109.507 58.5347 100.503L56.0475 93.6287C55.7227 92.7892 55.8574 93.0743 55.8415 92.9951L55.8653 92.9398L55.9127 92.8764C55.984 92.8051 56.0633 92.8526 56.0633 92.8526C56.0633 92.8526 55.9841 92.8131 56.0237 92.718L56.0633 92.6467L56.0869 92.5912C56.1662 92.5754 55.9524 92.5913 56.2614 92.5438L57.1643 92.4091L64.1509 91.3559C73.2207 90.0176 81.1815 89.4473 88.0572 90.659C94.8536 91.9102 101.096 94.6344 105.254 98.7365C109.746 103.132 113.508 108.881 117.096 114.005C124.13 124.482 131.22 132.576 137.66 135.545C144.037 138.721 148.48 137.636 148.377 137.834Z" fill="#FFBB55" fill-opacity="0.1"/>
<path d="M375.955 138.769C375.694 138.484 384.328 138.983 393.477 129.693C397.977 125.084 402.317 118.052 406.167 108.834C410.049 99.6556 413.486 88.3708 417.281 75.6684C421.233 63.053 425.043 48.7034 432.885 34.9319C434.89 31.5345 437.234 28.2084 440.125 25.2308C443.104 22.2373 445.948 19.9565 449.33 17.6441C455.944 13.1539 463.715 9.93071 472.214 8.25975C489.285 4.79904 508.597 7.64217 527.505 11.9502L555.934 18.8003L562.976 20.4L572.196 22.2611C581.742 24.0429 592.443 24.8031 602.63 25.9989L604.967 26.2524C601.196 35.4229 596.887 44.9734 593.41 54.0805L590.938 60.9623L589.774 64.3914L587.635 71.1465C584.87 80.214 582.526 89.5033 580.078 98.848C577.63 108.185 575.048 117.609 571.499 126.494C567.974 135.348 563.348 143.536 557.613 150.054C551.902 156.603 545.296 161.537 538.468 165.219C536.773 166.154 535.054 166.993 533.192 167.872C530.713 168.862 528.796 169.242 526.681 169.606C522.578 170.256 518.657 170.343 514.831 170.327C499.574 170.05 485.696 168.125 473.054 166.914C447.817 164.19 427.8 163.508 414.968 166.264C402.008 168.767 396.963 174.683 396.955 174.548C396.97 174.722 400.82 167.436 413.296 162.424C425.55 157.189 445.488 154.686 470.313 154.267C482.639 153.902 496.438 154.211 510.126 153.031C513.492 152.691 516.875 152.231 519.845 151.432C521.271 151.059 522.839 150.465 523.655 150.006L527.798 147.353C533.398 143.544 538.515 138.88 542.785 133.138C551.475 121.806 555.855 105.294 560.006 86.3831C562.129 76.983 564.347 67.1315 567.135 57.3433L569.313 50.0258L570.462 46.47C570.462 46.4463 570.454 46.4306 570.454 46.4306C570.446 46.3989 570.422 46.4148 570.414 46.4227C570.414 46.4227 570.43 46.4068 570.414 46.383L570.343 46.3513L568.846 46.0267L565.083 45.1793L557.661 43.3737L529.224 35.7396C510.989 30.9247 494.069 27.7332 479.637 29.515C472.428 30.3703 465.862 32.4294 460.032 35.5496C457.212 37.0701 454.217 39.0499 451.952 40.903C449.623 42.8115 447.5 45.1873 445.567 47.8165C437.836 58.452 432.608 71.6534 427.467 83.263C422.39 95.023 417.558 105.722 412.314 114.306C407.141 122.915 401.478 129.313 395.917 133.138C390.396 137.003 385.152 138.294 381.572 138.674C377.944 139.014 375.947 138.729 375.955 138.769Z" fill="#FFBB55" fill-opacity="0.1"/>
<path d="M408.233 286.605C408.313 286.431 410.966 289.559 417.47 290.866C423.957 292.362 434.08 291.159 447.23 288.767C453.828 287.706 461.195 286.296 469.544 286.668C478.321 287.167 486.226 290.794 493.236 296.671C500.215 302.61 505.514 311.131 509.784 319.874L518.592 338.603C523.163 347.211 529.745 357.451 534.95 366.431L535.211 366.882C525.056 367.057 513.547 366.938 503.574 367.239C501.039 367.302 498.647 367.556 496.239 367.762L489.719 368.522L482.685 369.369C473.251 370.596 462.478 371.016 453.82 367.817C449.487 366.304 445.669 364.237 442.279 361.877C440.711 360.864 438.311 358.892 437.051 357.213C435.641 355.51 434.461 353.823 433.415 352.145C429.209 345.453 426.12 339.086 423.118 333.384C417.248 321.925 412.202 313.127 407.798 308.011C403.489 302.768 399.908 301.367 399.964 301.279C399.892 301.382 404.099 301.137 410.182 304.518C416.305 307.765 423.925 314.544 432.195 323.802C436.346 328.355 440.703 333.653 445.424 338.5C446.596 339.711 447.8 340.836 448.98 341.747C450.279 342.784 450.858 342.998 452.577 343.742C455.666 345.097 458.945 346.15 462.336 346.752C469.1 348.027 476.554 347.021 485.901 345.168L493.094 343.837C493.989 343.687 493.68 343.727 493.751 343.687L493.783 343.647L493.823 343.576C493.838 343.481 493.767 343.433 493.767 343.433C493.767 343.433 493.839 343.473 493.894 343.394L493.949 343.331L493.973 343.267C493.949 343.196 494.044 343.394 493.926 343.101L493.593 342.254L490.955 335.697C487.525 327.199 483.992 320.048 479.454 314.734C474.946 309.492 469.425 305.508 463.793 303.996C457.726 302.341 450.858 302.008 444.624 301.517C432.029 300.749 421.462 298.73 415.632 294.683C409.667 290.794 408.352 286.399 408.233 286.605Z" fill="#FFBB55" fill-opacity="0.1"/>
<path d="M141.803 287.84C141.723 287.674 139.101 290.818 132.582 292.164C126.11 293.709 115.987 292.576 102.822 290.28C96.2235 289.266 88.841 287.904 80.484 288.339C71.7152 288.894 63.8337 292.584 56.8709 298.5C49.9319 304.502 44.7038 313.071 40.4976 321.814L31.8159 340.614C27.3087 349.262 20.7975 359.541 15.6566 368.561L15.4031 369.028C25.5502 369.116 37.0598 368.91 47.0405 369.131C49.5674 369.187 51.9596 369.424 54.3756 369.622L60.9027 370.327L67.9448 371.135C77.379 372.299 88.1598 372.632 96.794 369.369C101.119 367.833 104.905 365.734 108.296 363.35C109.856 362.329 112.24 360.333 113.492 358.654C114.878 356.944 116.043 355.233 117.096 353.57C121.239 346.839 124.281 340.456 127.243 334.73C133.026 323.231 138.024 314.402 142.381 309.246C146.658 303.964 150.231 302.531 150.175 302.459C150.262 302.546 146.04 302.341 139.973 305.786C133.881 309.064 126.308 315.883 118.11 325.188C113.983 329.781 109.666 335.118 104.985 339.997C103.82 341.208 102.616 342.341 101.452 343.267C100.16 344.312 99.5744 344.534 97.8634 345.294C94.79 346.672 91.5105 347.742 88.1361 348.367C81.3713 349.69 73.9095 348.732 64.5466 346.95L57.3461 345.667C56.451 345.532 56.7678 345.564 56.6965 345.54L56.657 345.492L56.6253 345.413C56.6016 345.318 56.6806 345.271 56.6806 345.271C56.6806 345.271 56.6094 345.31 56.5381 345.239L56.4905 345.176L56.4669 345.112C56.4907 345.049 56.3876 345.239 56.5222 344.946L56.8472 344.099L59.4295 337.518C62.8119 328.997 66.2892 321.822 70.7805 316.461C75.256 311.21 80.7456 307.179 86.3697 305.627C92.4294 303.932 99.2892 303.552 105.523 303.006C118.11 302.151 128.661 300.06 134.46 295.973C140.393 292.03 141.684 287.642 141.803 287.84Z" fill="#FFBB55" fill-opacity="0.1"/>
<path d="M400.607 137.233C400.488 137.082 404.528 136.354 408.908 131.365C413.455 126.502 417.471 117.134 421.97 104.55C424.354 98.3175 426.81 91.2219 431.317 84.1817C436.133 76.8327 443.223 71.8039 451.825 68.6679C460.459 65.6031 470.488 65.2785 480.183 65.9437L500.818 67.6859C510.569 68.0264 522.736 67.4485 533.113 67.4406L533.628 67.4326C528.701 76.3101 522.847 86.2248 518.11 95.0073C516.914 97.2326 515.94 99.4263 514.902 101.612L512.296 107.646L509.516 114.164C505.864 122.939 500.85 132.473 493.744 138.373C490.259 141.374 486.584 143.624 482.821 145.397C481.166 146.245 478.258 147.338 476.183 147.591C474.005 147.955 471.953 148.138 469.973 148.201C462.067 148.494 455.01 147.995 448.578 147.734C435.706 147.092 425.558 147.06 418.936 148.32C412.235 149.42 409.225 151.82 409.185 151.741C409.225 151.852 411.126 148.074 417.098 144.502C422.96 140.828 432.648 137.613 444.799 135.087C450.819 133.764 457.6 132.648 464.143 130.984C465.783 130.565 467.359 130.09 468.753 129.527C470.29 128.925 470.765 128.522 472.27 127.413C474.995 125.409 477.538 123.097 479.756 120.468C484.239 115.241 487.099 108.288 490.172 99.2679L492.612 92.3782C492.929 91.5309 492.802 91.8159 492.81 91.7288L492.794 91.6812L492.739 91.6178C492.675 91.5545 492.588 91.5942 492.588 91.5942C492.588 91.5942 492.659 91.5466 492.628 91.4595L492.596 91.3883L492.556 91.3328C492.493 91.317 492.699 91.3328 492.382 91.2853L491.479 91.1586L484.485 90.1608C475.415 88.8858 467.446 88.363 460.578 89.6301C453.79 90.9209 447.572 93.7086 443.445 97.8266C438.985 102.253 435.262 108.034 431.713 113.182C424.75 123.707 417.716 131.848 411.3 134.873C404.947 138.08 400.48 137.035 400.607 137.233Z" fill="#FFBB55" fill-opacity="0.1"/>
<path d="M268.449 368.529C268.267 368.513 269.685 372.346 267.601 378.674C265.692 385.041 259.656 393.245 251.086 403.501C246.895 408.711 242.024 414.413 238.237 421.865C234.324 429.737 233.58 438.409 235.227 447.389C236.954 456.393 241.754 465.207 247.228 473.222L259.181 490.137C264.417 498.373 270.065 509.151 275.317 518.1L275.578 518.559C280.735 509.816 286.312 499.743 291.5 491.222C292.815 489.06 294.217 487.112 295.595 485.108L299.453 479.818L303.683 474.116C309.402 466.53 315.089 457.367 316.579 448.26C317.41 443.746 317.497 439.422 317.109 435.296C317.014 433.435 316.476 430.378 315.636 428.446C314.86 426.387 313.973 424.526 313.03 422.792C309.283 415.831 305.267 410.002 301.798 404.578C294.732 393.815 289.567 385.08 287.286 378.729C284.854 372.386 285.401 368.577 285.305 368.593C285.424 368.561 283.143 372.117 283.087 379.086C282.882 386.007 284.996 395.962 288.973 407.722C290.882 413.582 293.346 419.996 295.231 426.482C295.698 428.098 296.078 429.705 296.3 431.186C296.554 432.818 296.451 433.435 296.261 435.304C295.912 438.654 295.199 442.028 294.051 445.259C291.817 451.776 287.27 457.755 281.028 464.978L276.331 470.568C275.768 471.273 275.943 471.012 275.887 471.068L275.824 471.076L275.737 471.068C275.642 471.036 275.642 470.949 275.642 470.949C275.642 470.949 275.641 471.028 275.546 471.044L275.467 471.052H275.404C275.356 470.996 275.467 471.178 275.285 470.925L274.707 470.212L270.303 464.685C264.607 457.494 260.14 450.897 257.739 444.332C255.426 437.831 254.674 431.059 256.147 425.413C257.708 419.331 260.821 413.194 263.459 407.524C269.003 396.191 272.465 386.015 271.831 378.943C271.388 371.839 268.227 368.537 268.449 368.529Z" fill="#FFBB55" fill-opacity="0.1"/>
<path d="M267.394 69.1581C267.204 69.1818 268.59 65.3172 266.459 59.0293C264.518 52.6623 258.411 44.5055 249.761 34.3134C245.547 29.1263 240.644 23.4561 236.794 16.0437C232.833 8.18784 232.018 -0.459961 233.61 -9.47997C235.265 -18.4841 240.01 -27.3299 245.436 -35.3996L257.255 -52.3863C262.435 -60.654 268.012 -71.4796 273.192 -80.46L273.446 -80.9193C278.666 -72.2161 284.321 -62.1825 289.565 -53.6931C290.888 -51.547 292.306 -49.5987 293.692 -47.611L297.613 -42.3527L301.867 -36.6826C307.642 -29.1277 313.392 -20.0205 314.953 -10.9134C315.808 -6.40735 315.919 -2.07544 315.579 2.05048C315.484 3.90358 314.969 6.97617 314.153 8.90054C313.385 10.9754 312.513 12.8284 311.586 14.5865C307.871 21.5713 303.919 27.4236 300.473 32.8721C293.486 43.6898 288.385 52.4564 286.159 58.8234C283.767 65.1826 284.345 68.9839 284.242 68.9759C284.361 68.9997 282.048 65.4598 281.937 58.5067C281.684 51.5932 283.751 41.5992 287.625 29.8154C289.502 23.9393 291.918 17.5168 293.756 11.0072C294.207 9.38374 294.58 7.78391 294.785 6.30301C295.031 4.67165 294.928 4.04608 294.722 2.19298C294.35 -1.15686 293.613 -4.52258 292.441 -7.76155C290.159 -14.2553 285.573 -20.2027 279.284 -27.3696L274.539 -32.9446C273.968 -33.6335 274.159 -33.3802 274.079 -33.4277H273.953C273.865 -33.396 273.858 -33.309 273.858 -33.309C273.858 -33.309 273.85 -33.3881 273.755 -33.4039L273.675 -33.4198L273.612 -33.4119C273.557 -33.3564 273.683 -33.5307 273.485 -33.2852L272.923 -32.5724L268.55 -27.0051C262.918 -19.7907 258.49 -13.1546 256.146 -6.57367C253.864 -0.0402985 253.167 6.72285 254.68 12.3693C256.28 18.4433 259.433 24.5411 262.118 30.1955C267.75 41.4804 271.283 51.6408 270.697 58.7206C270.301 65.8162 267.164 69.1581 267.394 69.1581Z" fill="#FFBB55" fill-opacity="0.1"/>
<path d="M369.428 68.4057C369.634 68.572 370.45 63.7966 376.312 58.562C382.055 53.1373 393.105 48.362 407.949 42.9215C415.292 40.0626 423.657 37.1168 431.951 31.7238C440.648 26.0061 446.542 17.5325 450.146 7.37215C453.742 -2.83574 454.035 -14.7305 453.196 -26.1817L450.993 -50.5413C450.471 -62.0955 451.073 -76.4372 451.009 -88.7437V-89.3138C440.561 -83.4219 428.877 -76.4212 418.524 -70.7748C415.879 -69.3414 413.312 -68.1932 410.754 -66.9341L403.625 -63.806L395.949 -60.5036C385.588 -56.1005 374.339 -50.1056 367.424 -41.6716C363.915 -37.5299 361.246 -33.1348 359.194 -28.7317C358.172 -26.7519 356.96 -23.2991 356.659 -20.8442C356.208 -18.2388 356.049 -15.8155 355.986 -13.511C355.709 -4.17419 356.311 4.17268 356.659 11.8306C357.554 26.9722 357.657 38.9779 356.192 46.8496C354.956 54.7847 352.16 58.3482 352.239 58.3798C352.081 58.3482 356.54 56.0438 360.707 48.9719C365.032 42.0188 368.763 30.5676 371.694 16.1546C373.183 9.05109 374.474 1.0367 376.344 -6.74791C376.858 -8.64853 377.389 -10.5411 378.039 -12.1566C378.736 -14.0097 379.243 -14.5483 380.558 -16.3935C382.863 -19.6008 385.588 -22.6417 388.685 -25.2551C394.832 -30.5768 403.054 -34.0058 413.708 -37.7358L421.812 -40.6579C422.818 -41.038 422.477 -40.9035 422.556 -40.9193L422.659 -40.8955L422.73 -40.8402C422.794 -40.7215 422.754 -40.6423 422.754 -40.6423C422.754 -40.6423 422.794 -40.7134 422.897 -40.6817L423.024 -40.6502L423.071 -40.6106C423.095 -40.5393 423.071 -40.7531 423.119 -40.3888L423.245 -39.3276L424.521 -31.0599C426.073 -20.3373 426.747 -10.9372 425.321 -2.82793C423.816 5.19426 420.592 12.5989 415.744 17.5088C410.547 22.7988 403.735 27.2573 397.644 31.4782C385.255 39.7934 375.71 48.1561 372.145 55.7744C368.383 63.2739 369.682 68.572 369.428 68.4057Z" fill="#FFBB55" fill-opacity="0.1"/>
<path d="M193.221 375.451C193.45 375.522 189.735 378.706 188.167 386.395C186.393 394.053 187.826 405.988 190.638 421.589C191.858 429.349 193.538 438.013 193.11 447.952C192.508 458.334 188.191 467.639 181.244 475.93C174.225 484.158 164.094 490.422 153.765 495.443L131.601 505.849C121.446 511.274 109.335 519.034 98.6963 525.196L98.1419 525.457C97.9676 513.499 98.134 499.854 97.7934 488.055C97.7142 485.101 97.4131 482.281 97.1438 479.343L96.2805 471.646L95.2745 463.331C93.8328 452.188 93.3574 439.518 97.1517 429.246C98.9419 424.162 101.374 419.609 104.17 415.586C105.374 413.788 107.735 410.961 109.675 409.393C111.695 407.761 113.715 406.376 115.703 405.116C123.632 400.159 131.118 396.54 137.883 393.008C151.436 386.079 161.837 380.076 167.92 374.912C174.123 369.852 175.802 365.631 175.873 365.687C175.794 365.607 176.016 370.581 172.047 377.732C168.221 385.017 160.165 393.927 149.25 403.683C143.832 408.688 137.566 413.788 131.815 419.347C130.397 420.749 129.066 422.174 127.981 423.552C126.738 425.057 126.508 425.754 125.605 427.789C123.981 431.408 122.777 435.344 122.009 439.367C120.527 447.302 121.692 456.148 123.87 467.195L125.454 475.669C125.613 476.762 125.573 476.358 125.613 476.421L125.66 476.461L125.787 476.603C125.874 476.619 125.922 476.453 125.922 476.453C125.922 476.453 125.882 476.619 125.953 476.682L126.08 476.738L126.136 476.754C126.199 476.738 125.961 476.825 126.302 476.714L127.316 476.279L135.102 473.214C145.146 469.135 153.591 464.962 159.92 459.577C166.114 454.319 170.804 447.738 172.625 441.133C174.542 433.903 174.986 425.865 175.54 418.445C176.467 403.517 178.859 391.036 183.644 384.241C188.294 377.106 193.482 375.578 193.221 375.451Z" fill="#FFBB55" fill-opacity="0.1"/>
<path d="M192.389 60.994C192.619 60.9148 188.888 57.8026 187.264 50.1209C185.45 42.4789 186.805 30.4892 189.53 14.92C190.75 7.14326 192.382 -1.63129 191.89 -11.467C191.217 -21.8333 186.852 -31.1621 179.858 -39.3981C172.792 -47.6104 162.677 -53.8032 152.316 -58.7685L130.097 -69.0477C119.855 -74.409 107.688 -82.0906 97.0731 -88.1884L96.5106 -88.4974C96.4155 -76.4839 96.6215 -62.8945 96.3363 -51.0948C96.2809 -48.0935 95.9878 -45.2663 95.7502 -42.4233L94.9263 -34.7336L93.9679 -26.4105C92.5896 -15.2206 92.146 -2.52618 95.9957 7.7213C97.8652 12.845 100.329 17.3274 103.141 21.287C104.321 23.1797 106.697 25.9832 108.686 27.4482C110.729 29.1113 112.694 30.4892 114.69 31.7404C122.651 36.6424 130.208 40.2219 136.949 43.7776C150.534 50.6198 160.982 56.5118 167.089 61.6831C173.323 66.7514 175.018 70.9643 175.097 70.9089C175.01 70.9881 175.216 66.0228 171.192 58.84C167.327 51.6256 159.271 42.669 148.244 32.9679C142.81 28.1055 136.505 22.9817 130.77 17.4541C129.289 16.0761 127.998 14.611 126.849 13.2251C125.661 11.7284 125.376 11.0316 124.512 8.99638C122.865 5.39314 121.573 1.4731 120.853 -2.49443C119.308 -10.477 120.425 -19.3228 122.587 -30.4018L124.069 -38.8753C124.259 -39.9286 124.243 -39.5565 124.267 -39.6357L124.314 -39.7227L124.401 -39.7465C124.496 -39.7782 124.584 -39.6516 124.584 -39.6516C124.584 -39.6516 124.504 -39.7704 124.623 -39.8496L124.694 -39.889L124.742 -39.9128C124.821 -39.897 124.623 -39.9919 124.972 -39.8652L125.978 -39.4772L133.733 -36.4205C143.808 -32.3975 152.268 -28.2796 158.637 -22.9895C164.855 -17.6599 169.576 -11.2056 171.398 -4.51387C173.41 2.60551 173.846 10.7465 174.503 18.0956C175.517 32.9837 177.981 45.4486 182.765 52.3225C187.447 59.3231 192.643 60.8673 192.389 60.994Z" fill="#FFBB55" fill-opacity="0.1"/>
<path d="M370.212 367.08C370.418 366.953 371.258 371.752 377.159 376.876C382.926 382.269 394 387.028 408.892 392.397C416.251 395.201 424.615 398.099 432.957 403.445C441.63 409.115 447.579 417.588 451.294 427.685C454.891 437.917 455.263 449.772 454.447 461.271L452.387 485.638C451.976 497.193 452.617 511.487 452.633 523.785V524.419C442.153 518.527 430.43 511.606 420.037 506.015C417.431 504.613 414.809 503.417 412.243 502.277L405.098 499.149L397.398 495.831C387.029 491.538 375.781 485.551 368.81 477.173C365.285 473.047 362.584 468.723 360.509 464.233C359.487 462.372 358.196 458.911 357.926 456.416C357.459 453.811 357.285 451.427 357.206 449.02C356.873 439.731 357.475 431.408 357.792 423.789C358.544 408.584 358.568 396.618 357.103 388.715C355.835 380.835 352.96 377.295 353.087 377.256C352.92 377.288 357.396 379.521 361.61 386.561C365.982 393.498 369.729 404.981 372.739 419.378C374.276 426.474 375.607 434.417 377.579 442.241C378.054 444.086 378.641 445.995 379.259 447.689C379.979 449.448 380.478 450.049 381.793 451.871C384.114 455.007 386.871 458.087 389.976 460.63C396.162 465.959 404.401 469.349 415.031 472.952L423.198 475.937C424.212 476.246 423.871 476.119 423.942 476.127L423.998 476.104L424.069 476.056C424.188 475.985 424.14 475.914 424.14 475.914C424.14 475.914 424.188 475.985 424.275 475.945L424.362 475.914L424.41 475.874C424.473 475.708 424.41 476.024 424.505 475.613L424.639 474.599L425.851 466.316C427.34 455.537 427.958 446.193 426.477 438.036C424.972 429.966 421.661 422.688 416.789 417.802C411.553 412.496 404.757 408.133 398.658 403.841C386.205 395.605 376.621 387.289 373.009 379.695C369.206 372.275 370.466 366.953 370.212 367.08Z" fill="#FFBB55" fill-opacity="0.1"/>
<path d="M97.4598 210.58C97.4756 210.398 92.9366 212.021 85.4431 209.614C77.8942 207.285 68.1986 200.182 56.1266 190.005C49.9559 185.08 43.1754 179.33 34.3986 174.816C25.0674 170.168 14.8489 169.297 4.21066 171.229C-6.44342 173.264 -16.8677 178.95 -26.3811 185.413L-46.3981 199.501C-56.1333 205.694 -68.8865 212.298 -79.4456 218.499L-80 218.879C-69.6628 224.985 -57.7731 231.542 -47.6815 237.679C-45.1546 239.303 -42.8256 240.918 -40.4572 242.518L-34.2074 247.127L-27.49 252.092C-18.5152 258.879 -7.69493 265.634 3.07005 267.345C8.44858 268.374 13.5658 268.461 18.4374 268.081C20.6316 267.883 24.2278 267.234 26.525 266.292C28.9568 265.405 31.1351 264.304 33.2025 263.258C41.4406 258.76 48.34 254.112 54.7879 249.994C67.5174 241.647 77.8467 235.525 85.3402 232.825C92.8496 229.958 97.3567 230.623 97.3409 230.528C97.3725 230.647 93.1823 227.939 84.9283 227.875C76.7853 227.669 64.9984 230.117 51.0491 234.821C44.118 237.054 36.5374 239.952 28.8617 242.146C26.9764 242.74 25.0516 243.207 23.3089 243.437C21.3603 243.69 20.6316 243.603 18.4374 243.397C14.5084 242.954 10.4923 242.13 6.66633 240.752C-1.03313 238.099 -8.07505 232.698 -16.6379 225.389L-23.2443 219.829C-24.0523 219.164 -23.7909 219.346 -23.8463 219.283V219.228L-23.8384 219.14C-23.8147 218.935 -23.6721 218.935 -23.6721 218.935C-23.6721 218.935 -23.8067 218.943 -23.8305 218.84L-23.8384 218.76L-23.8305 218.697C-23.775 218.642 -23.9572 218.768 -23.6483 218.578L-22.8324 217.889L-16.2894 212.647C-7.76617 205.987 0.0203552 200.657 7.80695 197.83C15.4826 195.098 23.491 194.242 30.2003 196.032C37.3611 197.806 44.617 201.544 51.35 204.617C64.7132 211.245 76.7615 215.347 85.1184 214.603C93.515 214.048 97.4598 210.35 97.4598 210.58Z" fill="#FFBB55" fill-opacity="0.1"/>
<path d="M451.485 209.622C451.461 209.431 456.024 211.039 463.493 208.592C471.027 206.216 480.69 199.049 492.747 188.802C498.893 183.837 505.587 178.079 514.332 173.55C523.631 168.885 533.89 167.919 544.56 169.819C555.166 171.799 565.67 177.359 575.183 183.829L595.279 197.79C605.038 203.92 617.831 210.556 628.43 216.701L629 216.963C618.687 223.132 606.836 229.76 596.792 235.961C594.218 237.616 591.944 239.232 589.584 240.831L583.366 245.504L576.633 250.509C567.69 257.351 556.909 264.153 546.16 265.935C540.837 266.996 535.719 267.115 530.84 266.664C528.614 266.569 525.002 265.951 522.705 265.017C520.249 264.051 518.079 263.061 515.995 261.928C507.726 257.58 500.802 252.869 494.394 248.782C481.609 240.522 471.225 234.456 463.684 231.803C456.214 228.984 451.707 229.665 451.723 229.578C451.691 229.689 455.873 226.949 464.111 226.838C472.262 226.592 484.073 228.968 497.99 233.609C504.937 235.779 512.534 238.741 520.273 240.895C522.158 241.449 524.083 241.821 525.834 242.146C527.727 242.391 528.471 242.272 530.689 242.074C534.634 241.591 538.634 240.744 542.468 239.374C550.136 236.666 557.162 231.217 565.67 223.868L572.236 218.166C573.044 217.477 572.791 217.771 572.831 217.707L572.846 217.644V217.47C572.807 217.375 572.672 217.367 572.672 217.367C572.672 217.367 572.799 217.367 572.815 217.272L572.823 217.184V217.129C572.759 217.073 572.949 217.2 572.64 216.994L571.832 216.337L565.242 211.11C556.687 204.411 548.877 199.232 541.066 196.46C533.359 193.751 525.358 192.952 518.712 194.678C511.504 196.594 504.28 200.285 497.61 203.492C484.247 210.089 472.215 214.262 463.85 213.573C455.461 213.074 451.485 209.392 451.485 209.622Z" fill="#FFBB55" fill-opacity="0.1"/>
<path d="M275.307 420.02C270.428 420.02 266.364 424.091 266.364 428.961V430.759C266.364 435.637 270.428 439.699 275.307 439.699C280.187 439.699 284.258 435.637 284.258 430.759V428.961C284.258 424.091 280.187 420.02 275.307 420.02Z" fill="#FFBB55" fill-opacity="0.1"/>
<path d="M273.518 -4.07907C261.976 -4.07907 261.976 13.8183 273.518 13.8183C285.067 13.8183 285.067 -4.07907 273.518 -4.07907Z" fill="#FFBB55" fill-opacity="0.1"/>
<path d="M450.098 318.265C447.65 322.494 449.139 328.054 453.369 330.485L454.922 331.387C459.144 333.827 464.697 332.338 467.144 328.117C469.584 323.888 468.095 318.329 463.865 315.882L462.32 314.995C458.09 312.556 452.529 314.044 450.098 318.265Z" fill="#FFBB55" fill-opacity="0.1"/>
<path d="M81.8326 107.772C76.0659 117.766 91.5599 126.715 97.3345 116.721C103.109 106.727 87.5992 97.7782 81.8326 107.772Z" fill="#FFBB55" fill-opacity="0.1"/>
<path d="M449.347 116.064C451.787 120.293 457.347 121.782 461.569 119.335L463.122 118.44C467.344 116.009 468.841 110.45 466.393 106.221C463.954 102 458.393 100.511 454.171 102.95L452.618 103.837C448.396 106.276 446.907 111.836 449.347 116.064Z" fill="#FFBB55" fill-opacity="0.1"/>
<path d="M82.8766 329.662C88.6432 339.656 104.145 330.707 98.3785 320.713C92.6039 310.719 77.102 319.667 82.8766 329.662Z" fill="#FFBB55" fill-opacity="0.1"/>
<path d="M399.132 432.017C393.991 435.027 392.098 441.845 395.1 447.016L396.186 448.909C399.188 454.08 406.008 455.941 411.22 452.948C416.361 449.938 418.167 443.16 415.252 437.949L414.159 436.056C411.173 430.885 404.352 429.063 399.132 432.017Z" fill="#FFBB55" fill-opacity="0.1"/>
<path d="M137.596 -17.2955C125.342 -10.2474 136.241 8.75871 148.527 1.67892C160.805 -5.36127 149.882 -24.3832 137.596 -17.2955Z" fill="#FFBB55" fill-opacity="0.1"/>
<path d="M522.53 217.018C522.506 222.973 527.433 227.994 533.477 227.978L535.664 227.994C541.628 228.01 546.595 222.989 546.626 217.026C546.65 211.031 541.62 206.05 535.664 206.026L533.477 206.058C527.528 206.042 522.467 211.007 522.53 217.018Z" fill="#FFBB55" fill-opacity="0.1"/>
<path d="M2.46822 218.767C2.48407 232.943 24.4181 232.959 24.3785 218.815C24.4498 204.64 2.4603 204.632 2.46822 218.767Z" fill="#FFBB55" fill-opacity="0.1"/>
<path d="M397.856 2.69237C403.037 5.69376 409.881 3.85646 412.923 -1.29895L414 -3.22348C416.978 -8.36305 415.141 -15.2052 409.944 -18.2066C404.764 -21.208 397.999 -19.3548 394.965 -14.1756L393.856 -12.283C390.902 -7.10385 392.747 -0.309021 397.856 2.69237Z" fill="#FFBB55" fill-opacity="0.1"/>
<path d="M139.412 453.82C151.714 460.915 162.629 441.941 150.406 434.845C138.184 427.75 127.181 446.756 139.412 453.82Z" fill="#FFBB55" fill-opacity="0.1"/>
</g>
<defs>
<filter id="filter0_f_112_1952" x="-116" y="-200" width="781" height="836" filterUnits="userSpaceOnUse" color-interpolation-filters="sRGB">
<feFlood flood-opacity="0" result="BackgroundImageFix"/>
<feBlend mode="normal" in="SourceGraphic" in2="BackgroundImageFix" result="shape"/>
<feGaussianBlur stdDeviation="18" result="effect1_foregroundBlur_112_1952"/>
</filter>
</defs>
</svg>
