<svg width="79" height="78" viewBox="0 0 79 78" fill="none" xmlns="http://www.w3.org/2000/svg">
<path d="M62.4352 52.6881C66.1419 52.6881 66.1419 46.7521 62.4352 46.7521C58.7325 46.7521 58.7325 52.6881 62.4352 52.6881Z" fill="#382405"/>
<path d="M48.2697 67.1961C51.9724 67.1961 51.9724 61.2601 48.2697 61.2601C44.5644 61.2601 44.5644 67.1961 48.2697 67.1961Z" fill="#382405"/>
<path d="M67.6323 41.7574C66.367 40.3148 64.8657 38.9521 63.1123 37.7814C62.2377 37.1948 61.2976 36.6561 60.2896 36.1961L59.503 35.8561C59.083 35.6988 58.659 35.5401 58.1803 35.3961C57.2563 35.1068 56.3203 34.9068 55.4243 34.7921L52.815 34.4308C52.6216 36.3521 52.399 38.2828 52.3043 40.0854L52.2657 40.7548L52.259 41.1614L52.251 41.9094C52.251 42.4081 52.2603 42.9014 52.2803 43.3921C52.3603 45.3561 52.6016 47.2668 53.0243 49.0588C53.843 52.6508 55.5176 55.7534 57.515 57.6881C59.503 59.6534 61.559 60.4587 62.9163 60.8468C64.299 61.2188 65.0697 61.2414 65.067 61.2601C65.0777 61.2441 64.371 60.8934 63.2536 60.0988C62.1523 59.2934 60.6577 57.9894 59.511 55.9974C58.3483 54.0188 57.6043 51.3814 57.3816 48.3081C57.263 46.7681 57.263 45.1267 57.351 43.4041L57.431 42.0988L57.511 41.1321L57.523 41.0921C57.5576 40.9881 57.5723 41.0614 57.583 41.0508L57.587 41.0601C57.587 41.0601 57.587 41.0561 57.591 41.0508C57.579 41.0441 57.6136 41.0534 57.6496 41.0628L58.211 41.2828C58.9803 41.5961 59.7337 41.9614 60.4603 42.3681C61.915 43.1761 63.263 44.1308 64.467 45.1494C66.8817 47.1881 68.707 49.4894 69.775 51.6721C70.8643 53.8561 71.131 55.9268 71.0443 57.3814C70.955 58.8388 70.6537 59.6614 70.6763 59.6614C70.6537 59.6494 71.2483 59.0428 71.8657 57.5814C72.4763 56.1454 72.951 53.6947 72.3337 50.7774C71.7457 47.8761 70.1643 44.6388 67.6323 41.7574Z" fill="#382405"/>
<path d="M34.1056 64.7175L34.6149 65.3361C34.9442 65.7215 35.2856 66.0868 35.6323 66.4348C37.0296 67.8215 38.5576 68.9255 40.1136 69.7668C43.2309 71.4668 46.4509 72.0188 49.0256 71.8681C51.6189 71.7255 53.5616 70.9895 54.8056 70.3948C56.0563 69.7895 56.6603 69.3268 56.6643 69.3361C56.6643 69.3268 55.9163 69.4668 54.5976 69.5508C53.2843 69.6281 51.3869 69.6161 49.2416 69.0881C47.0976 68.5681 44.7269 67.4988 42.5123 65.7641C41.4043 64.9001 40.3269 63.8815 39.3589 62.7281C39.1162 62.4415 38.8802 62.1454 38.6522 61.8428L38.3429 61.4148C38.3323 61.3895 38.3336 61.3814 38.3403 61.3801C38.3523 61.3628 38.3683 61.3681 38.3683 61.3681C38.3683 61.3681 38.3536 61.3614 38.3522 61.3388C38.3562 61.3361 38.3469 61.3361 38.3616 61.3268L38.6216 61.2081L39.1589 60.9748C39.5163 60.8214 39.8723 60.6788 40.2296 60.5481C41.6536 60.0188 43.0656 59.6481 44.4162 59.4495C47.1216 59.0428 49.5696 59.4108 51.4616 60.3668C53.3603 61.3081 54.6696 62.7321 55.4749 63.7881C56.2856 64.8588 56.6563 65.5521 56.6643 65.5441C56.6523 65.5454 56.6189 64.7681 56.2269 63.3881C55.8269 62.0361 55.0163 59.9734 53.0043 58.0761C51.0283 56.1708 47.7749 54.7934 44.2029 54.7441C42.4176 54.6988 40.5629 54.9348 38.7216 55.4361C38.2602 55.5615 37.8003 55.7041 37.3429 55.8615L36.6576 56.1094L36.3083 56.2481L35.7123 56.5054C34.0789 57.2174 32.6336 58.1228 31.0842 58.9935L31.0376 59.0215C31.7696 60.6188 32.3243 62.1441 33.3443 63.6495C33.5909 64.0215 33.8509 64.3841 34.1056 64.7175Z" fill="#382405"/>
<path d="M53.3176 28.1801C54.6229 28.0521 56.251 28.4641 57.971 29.2694C58.8256 29.6747 59.7043 30.1721 60.5483 30.7454C60.9656 31.0321 61.379 31.3361 61.7603 31.6534C61.9496 31.8121 62.1296 31.9694 62.303 32.1361L62.9043 32.7201C66.1616 36.0121 68.9963 39.6214 70.9509 42.3174C72.9083 45.0267 73.9416 47.0027 73.9536 46.9987C73.9389 47.0187 73.1923 40.3281 73.067 39.8987L72.343 33.7814C72.0856 31.4481 71.9296 28.9334 71.6976 26.1601C71.347 21.0481 71.3056 16.0027 72.0883 12.8334C72.4776 11.2334 73.1816 10.1441 73.9763 9.62941C74.7683 9.10808 75.4056 9.06405 75.3896 9.04405C75.3843 9.07605 74.8709 8.72675 73.7203 8.79741C72.5643 8.83341 70.8709 9.81607 69.6816 11.5654C68.4563 13.2867 67.5416 15.5774 66.9563 18.1374C66.379 20.7174 66.0669 23.5374 66.3149 26.6561C66.3683 27.3014 66.443 27.9401 66.5256 28.5801C66.3083 28.3654 66.099 28.1654 65.8549 27.9481C65.5549 27.6841 65.2456 27.4401 64.939 27.2174C64.3216 26.7694 63.6963 26.3987 63.0683 26.0787C61.811 25.4427 60.5376 25.0121 59.2803 24.7587C56.7843 24.2494 54.2456 24.4761 52.3923 25.5547C50.5003 26.6361 49.799 28.3507 49.6136 29.3454C49.4123 30.3881 49.5083 30.9441 49.491 30.9441C49.5003 30.9547 49.7616 30.4361 50.371 29.7334C50.975 29.0307 52.0016 28.2734 53.3176 28.1801Z" fill="#382405"/>
<path d="M5.13221 73.2788C5.61088 72.4455 6.64954 71.6935 8.1882 71.2535C11.2362 70.3708 16.1176 70.2948 21.0736 70.5375C23.7602 70.7135 26.1975 70.8135 28.4602 71.0255L34.3949 71.6295C34.8149 71.7482 41.3029 72.3628 41.2869 72.3801C41.2895 72.3668 39.3522 71.3441 36.6855 69.3841C34.0322 67.4308 30.4722 64.5855 27.2122 61.2988L26.6322 60.6908C26.4682 60.5148 26.3109 60.3335 26.1535 60.1401C25.8362 59.7561 25.5322 59.3361 25.2456 58.9095C24.6709 58.0521 24.1695 57.1588 23.7575 56.2828C22.9375 54.5255 22.5029 52.8522 22.5949 51.5002C22.6522 50.1402 23.3629 49.0615 24.0282 48.4215C24.6922 47.7748 25.1896 47.4921 25.1776 47.4841C25.1789 47.4988 24.6389 47.4161 23.6362 47.6481C22.6775 47.8628 21.0335 48.6268 20.0335 50.6055C19.0309 52.5468 18.8722 55.1748 19.4242 57.7415C19.7002 59.0348 20.1442 60.3388 20.7909 61.6241C21.1149 62.2655 21.4869 62.9028 21.9335 63.5295C22.1575 63.8415 22.4002 64.1562 22.6642 64.4588C22.8789 64.7042 23.0775 64.9175 23.2909 65.1362C22.6709 65.0642 22.0495 65.0042 21.4269 64.9642C18.4029 64.7815 15.6815 65.1708 13.1989 65.8255C10.7349 66.4935 8.54022 67.4895 6.90422 68.7962C5.24155 70.0655 4.32954 71.8402 4.3242 73.0362C4.28287 74.2242 4.63221 74.7481 4.60021 74.7535C4.61888 74.7681 4.64821 74.1081 5.13221 73.2788Z" fill="#382405"/>
<path d="M0.860352 77.7041H78.7044V0.138771C77.9097 1.47211 75.7403 23.4588 75.5603 48.5094C75.5163 54.4521 75.6177 58.5055 75.8177 62.9015C76.459 71.7681 73.7923 68.8268 73.7923 68.8268C72.6243 67.6601 71.2737 65.8815 70.407 64.2281C68.859 61.1535 68.011 57.3614 67.671 55.1774C67.4964 54.0761 67.6484 53.2055 68.0084 52.6628C68.363 52.1215 68.747 51.9161 68.731 51.9081C68.7377 51.9294 68.3284 51.8561 67.6337 52.2188C66.9244 52.5628 66.1297 53.6441 65.8457 55.0588C65.5364 56.4695 65.5657 58.1441 65.8684 59.8948C66.1844 61.6561 66.723 63.4935 67.6883 65.3588C67.8897 65.7441 68.1017 66.1201 68.3203 66.4935C68.1297 66.4201 67.947 66.3548 67.7417 66.2868C67.4844 66.2081 67.231 66.1415 66.9817 66.0881C66.483 65.9841 65.9977 65.9281 65.5257 65.9028C64.579 65.8575 63.6763 65.9454 62.831 66.1388C61.151 66.5161 59.635 67.3628 58.7644 68.5468C57.8724 69.7441 57.883 71.0028 58.0297 71.6708C58.1764 72.3748 58.379 72.6921 58.3684 72.6988C58.3764 72.7015 58.4044 72.3081 58.599 71.7015C58.791 71.0975 59.231 70.3414 60.023 69.9188C60.799 69.4774 61.9163 69.2788 63.1937 69.3001C63.8297 69.3148 64.503 69.3788 65.1764 69.4988C65.511 69.5601 69.2297 70.6161 70.247 71.2321C73.2804 73.0668 72.6577 74.9628 68.3563 74.7361C67.435 74.6775 52.5643 74.2175 43.8497 74.1988C10.9137 74.1268 0.860352 77.7041 0.860352 77.7041Z" fill="#382405"/>
<path d="M51.6018 53.8455C51.6018 53.8388 50.9897 53.9388 49.8604 53.9455C48.7378 53.9388 47.0604 53.8562 45.0391 53.1135C43.0311 52.3948 40.7404 50.8269 38.9671 48.4855C38.0711 47.3282 37.2857 46.0148 36.6244 44.6108L36.5537 44.4655L36.4484 44.2229L36.2378 43.7309C36.1084 43.4015 35.9671 43.0655 35.8431 42.7309C35.5871 42.0562 35.3591 41.3802 35.1418 40.7042L33.8964 36.5829L33.8511 36.4269L37.9817 37.2482C38.6551 37.3868 39.3378 37.5469 40.0111 37.7215C40.6618 37.8855 41.4044 38.1109 41.9551 38.2962C43.3871 38.8042 44.7791 39.4695 46.0044 40.3349C47.2311 41.1962 48.2578 42.2562 49.0124 43.3349C49.7751 44.4175 50.2937 45.4975 50.6831 46.4869C51.4524 48.4709 51.7684 50.1055 51.9817 51.2349C52.1844 52.3655 52.2484 52.9975 52.2511 52.9975L51.3271 51.5015C50.7324 50.5522 49.8857 49.1562 48.7298 47.6535C47.5684 46.1415 46.0764 44.6548 44.0871 43.7415C43.0924 43.2682 41.9591 42.8975 40.7151 42.5802C40.5377 42.5948 40.6511 42.6695 40.6364 42.6629V42.6642C40.6364 42.6642 40.6218 42.6522 40.6018 42.6522C40.5951 42.6535 40.5844 42.6562 40.5764 42.6642C40.5684 42.6695 40.5658 42.6749 40.5604 42.6828L40.5537 42.6949C40.5537 42.6989 40.5511 42.6975 40.5524 42.7029L40.5911 42.8068C41.0537 44.0548 41.5604 45.2135 42.1217 46.2549C43.2311 48.3442 44.6204 49.9348 46.0844 51.0388C47.5417 52.1468 48.9844 52.8029 49.9924 53.2269C51.0084 53.6455 51.6044 53.8402 51.6018 53.8455Z" fill="#382405"/>
</svg>
