<svg width="78" height="78" viewBox="0 0 78 78" fill="none" xmlns="http://www.w3.org/2000/svg">
<path d="M25.016 61.5739C25.016 65.2805 30.952 65.2805 30.952 61.5739C30.952 57.8712 25.016 57.8712 25.016 61.5739Z" fill="#382405"/>
<path d="M10.508 47.4084C10.508 51.1111 16.444 51.1111 16.444 47.4084C16.444 43.7031 10.508 43.7031 10.508 47.4084Z" fill="#382405"/>
<path d="M35.9467 66.771C37.3893 65.5057 38.752 64.0043 39.9227 62.251C40.5093 61.3763 41.048 60.4363 41.508 59.4283L41.848 58.6417C42.0053 58.2217 42.164 57.7977 42.308 57.319C42.5973 56.395 42.7973 55.459 42.912 54.563L43.2733 51.9536C41.352 51.7603 39.4213 51.5377 37.6187 51.443L36.9493 51.4043L36.5427 51.3977L35.7947 51.3897C35.296 51.3896 34.8027 51.399 34.312 51.419C32.348 51.499 30.4373 51.7403 28.6453 52.163C25.0533 52.9817 21.9507 54.6563 20.016 56.6536C18.0507 58.6416 17.2453 60.6976 16.8573 62.055C16.4853 63.4376 16.4627 64.2083 16.444 64.2057C16.46 64.2163 16.8107 63.5097 17.6053 62.3923C18.4107 61.291 19.7147 59.7963 21.7067 58.6497C23.6853 57.487 26.3227 56.743 29.396 56.5203C30.936 56.4016 32.5774 56.4016 34.3 56.4896L35.6053 56.5697L36.572 56.6497L36.612 56.6617C36.716 56.6963 36.6427 56.711 36.6533 56.7216L36.644 56.7257C36.644 56.7257 36.648 56.7257 36.6533 56.7297C36.66 56.7177 36.6507 56.7523 36.6413 56.7883L36.4213 57.3497C36.108 58.119 35.7427 58.8723 35.336 59.599C34.528 61.0537 33.5733 62.4017 32.5547 63.6057C30.516 66.0203 28.2147 67.8457 26.032 68.9137C23.848 70.003 21.7773 70.2697 20.3227 70.183C18.8653 70.0937 18.0427 69.7923 18.0427 69.815C18.0547 69.7923 18.6613 70.387 20.1227 71.0043C21.5587 71.615 24.0094 72.0897 26.9267 71.4723C29.828 70.8843 33.0653 69.303 35.9467 66.771Z" fill="#382405"/>
<path d="M12.9866 33.2443L12.368 33.7536C11.9826 34.0829 11.6173 34.4243 11.2693 34.7709C9.88263 36.1683 8.77863 37.6963 7.9373 39.2523C6.2373 42.3696 5.6853 45.5896 5.83596 48.1643C5.97863 50.7576 6.71464 52.7003 7.3093 53.9443C7.91464 55.1949 8.37729 55.7989 8.36796 55.8029C8.37729 55.8029 8.23731 55.0549 8.15331 53.7363C8.07598 52.4229 8.08798 50.5256 8.61598 48.3803C9.13597 46.2363 10.2053 43.8656 11.94 41.6509C12.804 40.5429 13.8226 39.4656 14.976 38.4976C15.2626 38.2549 15.5587 38.0189 15.8613 37.7909L16.2893 37.4816C16.3146 37.4709 16.3227 37.4723 16.324 37.4789C16.3413 37.4909 16.336 37.5069 16.336 37.5069C16.336 37.5069 16.3427 37.4923 16.3653 37.4909C16.368 37.4949 16.368 37.4856 16.3773 37.5003L16.496 37.7603L16.7293 38.2976C16.8827 38.6549 17.0253 39.0109 17.156 39.3683C17.6853 40.7923 18.056 42.2043 18.2546 43.5549C18.6613 46.2603 18.2933 48.7083 17.3373 50.6003C16.396 52.4989 14.972 53.8083 13.916 54.6136C12.8453 55.4243 12.152 55.7949 12.16 55.8029C12.1587 55.7909 12.936 55.7576 14.316 55.3656C15.668 54.9656 17.7307 54.1549 19.628 52.1429C21.5333 50.1669 22.9107 46.9136 22.96 43.3416C23.0053 41.5563 22.7693 39.7016 22.268 37.8603C22.1426 37.3989 22 36.9389 21.8426 36.4816L21.5947 35.7963L21.456 35.4469L21.1987 34.8509C20.4867 33.2176 19.5813 31.7723 18.7106 30.2229L18.6826 30.1763C17.0853 30.9083 15.56 31.4629 14.0546 32.4829C13.6826 32.7296 13.32 32.9896 12.9866 33.2443Z" fill="#382405"/>
<path d="M49.524 52.4563C49.652 53.7616 49.24 55.3896 48.4347 57.1096C48.0294 57.9643 47.532 58.8429 46.9587 59.6869C46.672 60.1043 46.368 60.5176 46.0507 60.899C45.892 61.0883 45.7347 61.2683 45.568 61.4416L44.984 62.043C41.692 65.3003 38.0827 68.135 35.3867 70.0896C32.6774 72.047 30.7014 73.0803 30.7054 73.0923C30.6854 73.0776 37.376 72.331 37.8054 72.2056L43.9227 71.4816C46.256 71.2243 48.7707 71.0683 51.544 70.8363C56.656 70.4856 61.7014 70.4443 64.8707 71.227C66.4707 71.6163 67.56 72.3203 68.0747 73.115C68.596 73.907 68.64 74.5443 68.66 74.5283C68.628 74.523 68.9774 74.0096 68.9067 72.859C68.8707 71.703 67.888 70.0096 66.1387 68.8203C64.4174 67.595 62.1267 66.6803 59.5667 66.095C56.9867 65.5176 54.1667 65.2056 51.048 65.4536C50.4027 65.507 49.764 65.5816 49.124 65.6643C49.3387 65.447 49.5387 65.2376 49.756 64.9936C50.02 64.6936 50.264 64.3843 50.4867 64.0776C50.9347 63.4603 51.3054 62.835 51.6254 62.207C52.2614 60.9496 52.692 59.6763 52.9454 58.419C53.4547 55.923 53.228 53.3843 52.1494 51.531C51.068 49.639 49.3534 48.9376 48.3587 48.7523C47.316 48.551 46.76 48.647 46.76 48.6296C46.7494 48.639 47.268 48.9003 47.9707 49.5096C48.6734 50.1136 49.4307 51.1403 49.524 52.4563Z" fill="#382405"/>
<path d="M4.4253 4.27088C5.25863 4.74955 6.01062 5.78821 6.45062 7.32687C7.33329 10.3749 7.4093 15.2562 7.16664 20.2122C6.99064 22.8989 6.89062 25.3362 6.67862 27.5989L6.07461 33.5335C5.95595 33.9535 5.34129 40.4415 5.32396 40.4255C5.33729 40.4282 6.35996 38.4909 8.31996 35.8242C10.2733 33.1709 13.1186 29.6109 16.4053 26.3509L17.0133 25.7709C17.1893 25.6069 17.3706 25.4495 17.564 25.2922C17.948 24.9749 18.368 24.6709 18.7946 24.3842C19.652 23.8096 20.5453 23.3082 21.4213 22.8962C23.1786 22.0762 24.8519 21.6415 26.2039 21.7335C27.5639 21.7909 28.6426 22.5015 29.2826 23.1669C29.9293 23.8309 30.212 24.3282 30.22 24.3162C30.2053 24.3176 30.288 23.7776 30.056 22.7749C29.8413 21.8162 29.0773 20.1722 27.0986 19.1722C25.1573 18.1696 22.5293 18.0109 19.9626 18.5629C18.6693 18.8389 17.3653 19.2829 16.08 19.9295C15.4386 20.2535 14.8013 20.6256 14.1746 21.0722C13.8626 21.2962 13.5479 21.5389 13.2453 21.8029C12.9999 22.0175 12.7866 22.2162 12.5679 22.4295C12.6399 21.8095 12.6999 21.1882 12.7399 20.5655C12.9226 17.5415 12.5333 14.8202 11.8786 12.3376C11.2106 9.87355 10.2146 7.67889 8.90795 6.04289C7.63861 4.38022 5.86394 3.46821 4.66794 3.46288C3.47994 3.42154 2.95596 3.77089 2.95062 3.73889C2.93596 3.75755 3.59596 3.78688 4.4253 4.27088Z" fill="#382405"/>
<path d="M0 -0.000976562L-3.40267e-06 77.843L77.5653 77.843C76.232 77.0484 54.2453 74.879 29.1947 74.699C23.252 74.655 19.1986 74.7563 14.8026 74.9563C5.93597 75.5977 8.87731 72.931 8.87731 72.931C10.044 71.763 11.8226 70.4124 13.476 69.5457C16.5506 67.9977 20.3427 67.1497 22.5267 66.8097C23.628 66.635 24.4986 66.787 25.0413 67.147C25.5826 67.5017 25.788 67.8857 25.796 67.8697C25.7747 67.8764 25.848 67.467 25.4853 66.7724C25.1413 66.063 24.06 65.2684 22.6453 64.9844C21.2346 64.675 19.56 64.7044 17.8093 65.007C16.048 65.323 14.2106 65.8617 12.3453 66.827C11.96 67.0283 11.584 67.2403 11.2106 67.459C11.284 67.2683 11.3493 67.0857 11.4173 66.8804C11.496 66.623 11.5626 66.3697 11.616 66.1203C11.72 65.6217 11.776 65.1364 11.8013 64.6644C11.8466 63.7177 11.7587 62.815 11.5653 61.9697C11.188 60.2897 10.3413 58.7737 9.15732 57.903C7.95999 57.011 6.70133 57.0217 6.03333 57.1684C5.32933 57.315 5.01197 57.5177 5.0053 57.507C5.00264 57.515 5.39597 57.543 6.00263 57.7377C6.60663 57.9297 7.36265 58.3697 7.78532 59.1617C8.22665 59.9377 8.4253 61.055 8.40397 62.3324C8.3893 62.9684 8.3253 63.6417 8.2053 64.315C8.14397 64.6497 7.08797 68.3684 6.47197 69.3857C4.6373 72.419 2.7413 71.7963 2.96797 67.495C3.02663 66.5737 3.48664 51.703 3.5053 42.9883C3.57731 10.0523 0 -0.000976562 0 -0.000976562Z" fill="#382405"/>
<path d="M23.8586 50.7404C23.8653 50.7404 23.7653 50.1284 23.7586 48.9991C23.7653 47.8764 23.8479 46.1991 24.5906 44.1778C25.3093 42.1698 26.8772 39.8791 29.2186 38.1058C30.3759 37.2098 31.6893 36.4244 33.0933 35.7631L33.2386 35.6924L33.4812 35.5871L33.9732 35.3764C34.3026 35.2471 34.6386 35.1058 34.9732 34.9818C35.6479 34.7258 36.3239 34.4978 36.9999 34.2804L41.1212 33.0351L41.2772 32.9897L40.4559 37.1204C40.3173 37.7937 40.1572 38.4764 39.9826 39.1498C39.8186 39.8004 39.5932 40.5431 39.4079 41.0938C38.8999 42.5258 38.2346 43.9178 37.3692 45.1431C36.5079 46.3698 35.4479 47.3964 34.3692 48.1511C33.2866 48.9138 32.2066 49.4324 31.2172 49.8217C29.2332 50.5911 27.5986 50.9071 26.4692 51.1204C25.3386 51.3231 24.7066 51.3871 24.7066 51.3897L26.2026 50.4658C27.1519 49.8711 28.5479 49.0244 30.0506 47.8684C31.5626 46.7071 33.0493 45.2151 33.9626 43.2258C34.4359 42.2311 34.8066 41.0977 35.1239 39.8537C35.1093 39.6764 35.0346 39.7898 35.0412 39.7751L35.0399 39.7751C35.0399 39.7751 35.0519 39.7604 35.0519 39.7404C35.0506 39.7338 35.0479 39.7231 35.0399 39.7151C35.0346 39.7071 35.0292 39.7044 35.0212 39.6991L35.0092 39.6924C35.0052 39.6924 35.0066 39.6897 35.0012 39.6911L34.8973 39.7298C33.6493 40.1924 32.4906 40.6991 31.4492 41.2604C29.3599 42.3698 27.7693 43.7591 26.6653 45.2231C25.5573 46.6804 24.9012 48.1231 24.4772 49.1311C24.0586 50.1471 23.8639 50.7431 23.8586 50.7404Z" fill="#382405"/>
</svg>
