<svg width="305" height="257" viewBox="0 0 305 257" fill="none" xmlns="http://www.w3.org/2000/svg">
<path d="M182.408 193.88C182.309 191.896 182.126 190.146 181.752 188.157C181.369 186.21 180.784 184.413 180.116 182.734C177.374 176.068 173.746 170.936 170.662 166.177C167.527 161.461 164.749 157.246 162.681 153.358C160.601 149.484 159.255 145.938 158.667 142.909C158.657 142.857 158.654 142.814 158.645 142.762C158.194 142.995 157.724 143.206 157.238 143.392C157.443 146.6 158.351 150.433 159.965 154.596C161.614 158.9 163.969 163.561 166.6 168.579C169.176 173.59 172.206 179.028 174.037 184.884C174.478 186.341 174.817 187.811 174.989 189.26C175.143 190.668 175.207 192.41 175.165 193.966C175.079 197.178 174.542 200.433 173.529 203.665C171.531 210.153 167.603 216.459 162.959 222.918L155.682 232.961L153.835 235.628L152.92 236.995L152.559 237.542L152.537 237.571C152.531 237.571 152.53 237.561 152.53 237.561C152.53 237.561 152.531 237.571 152.521 237.571C152.518 237.575 152.511 237.571 152.505 237.565L151.642 236.212L149.836 233.494C147.391 229.923 144.831 226.569 142.389 223.369C137.458 216.97 133.284 211.077 131.417 204.647C130.449 201.449 129.95 198.156 129.79 194.868L129.723 192.48C129.73 192.019 129.832 191.224 129.969 190.537C130.251 189.09 130.708 187.563 131.2 186.066C133.245 180.039 135.757 174.328 137.816 169.071C142.047 158.574 144.796 149.605 145.387 143.185C144.917 142.98 144.47 142.755 144.042 142.509C144.007 142.65 143.981 142.785 143.943 142.925C142.517 148.982 138.797 157.203 133.546 167.111C130.966 172.115 127.953 177.458 125.191 183.783C124.514 185.384 123.855 187.045 123.328 188.928C123.063 189.903 122.839 190.805 122.705 192.081C122.637 193.079 122.586 194.009 122.57 194.946C122.474 198.712 122.788 202.7 123.75 206.703C124.693 210.71 126.329 214.662 128.365 218.319C130.398 221.987 132.769 225.392 135.131 228.714C137.506 232.037 139.871 235.308 142.102 238.69L143.744 241.252L144.569 242.579L146.196 245.313C148.315 249.006 150.415 253.159 152.499 257L152.988 256.082C155.132 252.11 157.242 247.81 159.45 244.241L161.627 240.839L163.343 238.281L170.384 228.053C174.993 221.184 179.24 213.791 181.2 205.782C182.19 201.81 182.587 197.756 182.408 193.88Z" fill="#FFBB55" fill-opacity="0.2"/>
<path d="M165.501 170.075C164.191 166.453 162.506 163.668 161.065 161.128C158.102 156.131 156.012 152.13 155.36 149.033C154.644 145.957 155.139 144.089 155.075 144.102C155.152 144.102 154.053 145.707 153.889 149.158C153.656 152.595 154.852 157.544 156.763 163.063C157.674 165.822 158.744 168.809 159.278 171.766C159.783 174.521 159.515 177.804 158.703 180.963C157.865 184.154 156.306 187.354 154.321 190.837L152.586 193.862C152.518 193.98 152.56 193.897 152.544 193.923L152.522 193.925L152.493 193.923C152.461 193.909 152.461 193.872 152.461 193.872C152.461 193.872 152.461 193.913 152.426 193.925L152.397 193.932L152.378 193.929C152.355 193.903 152.419 194.028 152.221 193.689L150.598 190.962C148.443 187.44 146.871 184.525 146.104 181.357C145.708 179.78 145.465 178.139 145.346 176.511C145.279 175.603 145.247 175.3 145.337 174.51C145.417 173.791 145.551 173.01 145.717 172.227C146.379 169.077 147.238 165.963 147.91 163.118C149.303 157.414 150.048 152.569 149.987 149.201C149.977 146.34 149.415 144.678 149.262 144.237C149.249 144.233 149.236 144.23 149.22 144.227C149.226 144.678 149.252 146.398 148.527 149.027C147.731 152.115 145.925 156.352 143.464 161.567C142.249 164.198 140.853 167.028 139.542 170.399C139.216 171.246 138.903 172.144 138.628 173.151C138.337 174.082 138.149 175.568 138.11 176.474C137.973 178.479 137.999 180.582 138.28 182.779C138.788 187.208 140.744 191.671 142.726 195.368L144.18 198.146L145.522 200.724C145.995 201.696 146.481 202.645 146.932 203.698C148.721 207.855 150.646 212.756 152.426 217.017L152.518 216.794C154.35 212.452 156.322 207.221 158.147 203.231L162.314 195.028C164.226 191.137 165.9 186.862 166.514 182.488C167.096 178.126 166.846 173.91 165.501 170.075Z" fill="#FFBB55" fill-opacity="0.2"/>
<path d="M181.2 51.2181C179.24 43.2118 174.993 35.8185 170.384 28.9503L163.343 18.7214L161.627 16.1602L159.45 12.7581C157.242 9.19285 155.132 4.88899 152.988 0.917684L152.499 0C150.415 3.84341 148.315 7.9938 146.196 11.6901L144.569 14.4208L143.744 15.7509L142.102 18.309C139.871 21.6919 137.506 24.963 135.131 28.2884C132.769 31.6106 130.398 35.0128 128.365 38.6803C126.329 42.3383 124.693 46.293 123.75 50.2975C122.788 54.303 122.474 58.2874 122.57 62.057C122.586 62.9913 122.637 63.9243 122.705 64.9184C122.839 66.1949 123.063 67.0995 123.328 68.0725C123.855 69.9584 124.514 71.6182 125.191 73.2169C127.953 79.5445 130.966 84.8844 133.546 89.8917C138.797 99.7975 142.517 108.019 143.943 114.078C144.102 114.707 144.23 115.308 144.342 115.888C144.716 115.683 145.096 115.497 145.496 115.324C145.464 114.838 145.445 114.363 145.387 113.828C144.799 107.404 142.051 98.4351 137.816 87.9319C135.757 82.6723 133.245 76.9603 131.2 70.9365C130.708 69.4375 130.251 67.9126 129.969 66.466C129.832 65.7767 129.73 64.9798 129.723 64.5226L129.79 62.1309C129.95 58.8432 130.449 55.5532 131.417 52.3557C133.284 45.9259 137.458 40.0329 142.389 33.6346C144.831 30.4307 147.391 27.0797 149.836 23.5081L151.642 20.7902L152.505 19.4345C152.511 19.4281 152.521 19.4281 152.521 19.4281C152.531 19.4281 152.53 19.4377 152.53 19.4377C152.53 19.4377 152.531 19.4281 152.537 19.4281L152.559 19.4569L152.92 20.0037L153.835 21.3722L155.682 24.0389L162.959 34.0855C167.603 40.5413 171.531 46.8464 173.529 53.3377C174.542 56.5675 175.079 59.8226 175.165 63.0364C175.207 64.5901 175.143 66.3324 174.989 67.739C174.817 69.1878 174.478 70.6615 174.037 72.1167C172.206 77.971 169.176 83.4128 166.6 88.4202C163.969 93.4412 161.614 98.1029 159.965 102.403C158.299 106.697 157.376 110.647 157.206 113.912C157.181 114.33 157.171 114.736 157.168 115.13C157.6 115.296 158.021 115.476 158.421 115.676C158.485 115.164 158.562 114.644 158.667 114.09C159.255 111.063 160.601 107.519 162.681 103.645C164.749 99.7528 167.527 95.5385 170.662 90.826C173.746 86.0646 177.374 80.9348 180.116 74.2651C180.784 72.5864 181.369 70.7904 181.752 68.8456C182.126 66.8571 182.309 65.1045 182.408 63.1224C182.587 59.2429 182.19 55.1923 181.2 51.2181Z" fill="#FFBB55" fill-opacity="0.2"/>
<path d="M155.075 112.901C155.139 112.91 154.644 111.042 155.36 107.967C156.012 104.869 158.102 100.872 161.065 95.8744C162.506 93.3327 164.191 90.5474 165.501 86.9239C166.846 83.0904 167.096 78.8787 166.514 74.5109C165.9 70.137 164.226 65.8651 162.314 61.9744L158.147 53.7696C156.322 49.7813 154.35 44.5505 152.518 40.2054L152.426 39.9848C150.646 44.2432 148.721 49.1456 146.932 53.3024C146.481 54.3541 145.995 55.3034 145.522 56.279L144.18 58.8568L142.726 61.6348C140.744 65.3318 138.788 69.792 138.28 74.2237C137.999 76.4208 137.973 78.5215 138.11 80.5264C138.149 81.4306 138.337 82.9181 138.628 83.8486C138.903 84.8555 139.216 85.7533 139.542 86.6016C140.853 89.9753 142.249 92.8042 143.464 95.4322C145.925 100.651 147.731 104.891 148.527 107.976C149.38 111.053 149.194 112.904 149.223 112.901C149.185 112.91 149.977 111.18 149.987 107.798C150.048 104.43 149.303 99.589 147.91 93.8846C147.238 91.0395 146.379 87.9254 145.717 84.7717C145.551 83.9886 145.417 83.2116 145.337 82.4922C145.247 81.6992 145.279 81.3993 145.346 80.4912C145.465 78.8601 145.708 77.2227 146.104 75.6438C146.871 72.475 148.443 69.5624 150.598 66.0413L152.221 63.3109C152.419 62.9711 152.355 63.0961 152.378 63.0711H152.397L152.426 63.0737C152.461 63.09 152.461 63.1309 152.461 63.1309C152.461 63.1309 152.461 63.09 152.493 63.0772L152.522 63.0737L152.544 63.0772C152.56 63.1025 152.518 63.02 152.586 63.1373L152.784 63.4871L154.321 66.1625C156.306 69.6484 157.865 72.8485 158.703 76.0374C159.515 79.1962 159.783 82.4797 159.278 85.2328C158.744 88.194 157.674 91.1805 156.763 93.9357C154.852 99.4553 153.656 104.405 153.889 107.842C154.053 111.292 155.152 112.901 155.075 112.901Z" fill="#FFBB55" fill-opacity="0.2"/>
<path d="M303.894 127.923C299.215 125.378 294.082 122.865 289.854 120.258L285.823 117.659L282.784 115.636L270.639 107.251C262.502 101.79 253.728 96.744 244.223 94.407C239.496 93.2268 234.696 92.7596 230.093 92.9869C227.731 93.0854 225.654 93.3166 223.292 93.7611C220.991 94.2145 218.868 94.9179 216.864 95.701C208.951 98.9634 202.856 103.276 197.212 106.925C191.631 110.651 186.617 113.947 181.998 116.412C177.399 118.874 173.193 120.475 169.607 121.18C167.635 121.557 165.9 121.681 164.41 121.672C164.592 122.02 164.762 122.379 164.912 122.742C166.331 122.925 167.967 123.015 169.812 122.9C173.685 122.707 178.383 121.617 183.472 119.622C188.573 117.671 194.099 114.886 200.056 111.762C206.004 108.693 212.476 105.096 219.409 102.912C221.147 102.401 222.902 101.987 224.609 101.796C226.271 101.595 228.342 101.53 230.202 101.575C233.999 101.681 237.863 102.317 241.705 103.516C249.413 105.889 256.889 110.573 264.544 116.089L276.462 124.732L279.645 126.909L281.269 128.01L281.908 128.44L281.94 128.463C281.94 128.473 281.934 128.473 281.934 128.473C281.934 128.473 281.943 128.473 281.943 128.483C281.943 128.483 281.943 128.489 281.937 128.495L280.323 129.525L277.114 131.661C272.86 134.573 268.878 137.605 265.087 140.521C257.493 146.369 250.497 151.323 242.871 153.545C239.068 154.702 235.165 155.297 231.266 155.473L228.434 155.565C227.885 155.559 226.942 155.434 226.114 155.274C224.411 154.922 222.601 154.395 220.824 153.809C213.672 151.386 206.886 148.374 200.644 145.944C188.192 140.908 177.533 137.637 169.914 136.956C167.82 136.729 166.005 136.703 164.464 136.774C164.305 137.087 164.138 137.397 163.959 137.698C165.558 137.832 167.453 138.113 169.62 138.664C176.801 140.371 186.572 144.776 198.33 151.012C204.272 154.088 210.6 157.667 218.117 160.947C220.003 161.74 221.991 162.52 224.225 163.166C225.366 163.476 226.43 163.725 227.961 163.902C229.147 163.972 230.243 164.019 231.346 164.064C235.84 164.16 240.551 163.796 245.307 162.648C250.062 161.538 254.764 159.594 259.104 157.164C263.451 154.75 267.487 151.93 271.441 149.119C275.372 146.324 279.255 143.511 283.276 140.857L286.3 138.904L287.895 137.918L291.123 135.983C295.508 133.468 300.455 130.986 305 128.502L303.894 127.923Z" fill="#FFBB55" fill-opacity="0.2"/>
<path d="M171.01 125.435C170.998 125.368 173.216 125.956 176.875 125.103C180.538 124.332 185.287 121.844 191.222 118.333C194.23 116.609 197.531 114.621 201.837 113.051C206.397 111.471 211.383 111.174 216.571 111.85C221.761 112.581 226.833 114.586 231.452 116.849L241.203 121.793C245.917 123.97 252.13 126.302 257.295 128.485L257.541 128.598C252.485 130.707 246.668 132.988 241.74 135.108C240.5 135.655 239.362 136.233 238.224 136.799L235.153 138.375L231.858 140.111C227.46 142.472 222.18 144.784 216.929 145.385C214.308 145.733 211.805 145.762 209.431 145.602C208.36 145.545 206.589 145.327 205.496 144.987C204.304 144.645 203.24 144.284 202.23 143.888C198.222 142.343 194.86 140.687 191.753 139.236C185.556 136.3 180.519 134.167 176.872 133.23C173.206 132.214 171.004 132.422 171.01 132.394C170.998 132.428 173.053 131.498 177.073 131.488C181.072 131.424 186.802 132.316 193.584 133.966C196.972 134.753 200.644 135.78 204.387 136.559C205.333 136.748 206.254 136.905 207.11 137.01C208.043 137.122 208.395 137.087 209.488 136.997C211.422 136.856 213.365 136.569 215.225 136.102C218.981 135.194 222.458 133.314 226.632 130.762L229.857 128.827C230.266 128.61 230.113 128.671 230.141 128.649V128.629L230.138 128.598C230.125 128.543 230.084 128.543 230.084 128.543C230.084 128.543 230.122 128.543 230.135 128.511L230.138 128.479V128.46C230.106 128.44 230.215 128.485 230.074 128.393L229.659 128.169L226.485 126.349C222.349 123.99 218.533 122.125 214.762 121.143C211.019 120.169 207.123 119.856 203.857 120.45C200.334 121.08 196.787 122.363 193.511 123.441C186.962 125.704 181.097 127.13 177.025 126.852C172.922 126.667 171.01 125.355 171.01 125.435Z" fill="#FFBB55" fill-opacity="0.2"/>
<path d="M138.688 136.741C137.592 136.754 136.397 136.815 135.089 136.956C127.473 137.637 116.811 140.908 104.362 145.944C98.117 148.374 91.3317 151.386 84.1788 153.809C82.3986 154.395 80.5928 154.922 78.8893 155.274C78.0615 155.434 77.1186 155.559 76.5721 155.565L73.7372 155.473C69.838 155.297 65.9355 154.702 62.1322 153.545C54.5031 151.323 47.51 146.369 39.9161 140.521C36.1063 137.605 32.1431 134.573 27.8891 131.661L24.6803 129.525L23.0663 128.495C23.0599 128.489 23.0599 128.485 23.0599 128.485C23.0631 128.473 23.0727 128.473 23.0727 128.473C23.0727 128.473 23.0663 128.473 23.0663 128.463L23.0918 128.44L23.7342 128.01L25.3579 126.909L28.538 124.732L40.4594 116.089C48.1141 110.573 55.5897 105.889 63.2987 103.516C67.1404 102.317 71.0013 101.681 74.8014 101.575C76.6584 101.53 78.7358 101.595 80.3946 101.796C82.1013 101.987 83.8592 102.401 85.5947 102.912C92.5302 105.096 99.0023 108.693 104.95 111.762C110.901 114.886 116.431 117.671 121.532 119.622C126.62 121.617 131.315 122.707 135.192 122.9C136.262 122.967 137.256 122.961 138.19 122.912C138.365 122.468 138.57 122.039 138.787 121.615C137.745 121.543 136.617 121.412 135.396 121.18C131.807 120.475 127.604 118.874 123.002 116.412C118.387 113.947 113.372 110.651 107.792 106.925C102.144 103.276 96.0523 98.9634 88.1387 95.701C86.1348 94.9179 84.0126 94.2145 81.7114 93.7611C79.3463 93.3166 77.272 93.0854 74.9101 92.9869C70.3078 92.7596 65.5072 93.2268 60.7802 94.407C51.275 96.744 42.4985 101.79 34.3644 107.251L22.2129 115.636L19.1862 117.659L15.1463 120.258C10.9051 122.865 5.80415 125.378 1.08352 127.923L0 128.502C4.57042 130.986 9.49884 133.468 13.8711 135.983L17.1183 137.918L18.7004 138.904L21.7271 140.857C25.7477 143.511 29.6278 146.324 33.5654 149.119C37.519 151.93 41.5525 154.75 45.8992 157.164C50.2395 159.594 54.9409 161.538 59.6999 162.648C64.4525 163.796 69.1668 164.16 73.6349 164.064C74.7567 164.019 75.8562 163.972 77.0419 163.902C78.5728 163.725 79.6371 163.476 80.7781 163.166C83.0122 162.52 85.0002 161.74 86.8827 160.947C94.4031 157.667 100.731 154.088 106.67 151.012C118.431 144.776 128.199 140.371 135.38 138.664C136.819 138.299 138.135 138.053 139.327 137.889C139.097 137.518 138.886 137.135 138.688 136.741Z" fill="#FFBB55" fill-opacity="0.2"/>
<path d="M133.994 125.435C134.007 125.368 131.789 125.956 128.126 125.103C124.463 124.332 119.72 121.844 113.782 118.333C110.774 116.609 107.473 114.621 103.167 113.051C98.6067 111.471 93.6208 111.174 88.4335 111.85C83.2399 112.581 78.174 114.586 73.5525 116.849L63.8012 121.793C59.0838 123.97 52.8737 126.302 47.7088 128.485L47.4627 128.598C52.5189 130.707 58.3359 132.988 63.2643 135.108C64.5044 135.655 65.6422 136.233 66.78 136.799L69.8514 138.375L73.1466 140.111C77.5412 142.472 82.8243 144.784 88.0787 145.385C90.6963 145.733 93.1957 145.762 95.5736 145.602C96.6443 145.545 98.4117 145.327 99.5112 144.987C100.7 144.645 101.764 144.284 102.774 143.888C106.782 142.343 110.145 140.687 113.251 139.236C119.448 136.3 124.482 134.167 128.135 133.23C131.798 132.214 133.997 132.422 133.994 132.394C134.007 132.428 131.948 131.498 127.931 131.488C123.933 131.424 118.202 132.316 111.417 133.966C108.032 134.753 104.356 135.78 100.617 136.559C99.671 136.748 98.7505 136.905 97.8907 137.01C96.9607 137.122 96.6091 137.087 95.5129 136.997C93.5824 136.856 91.6392 136.569 89.7791 136.102C86.0237 135.194 82.5495 133.314 78.3722 130.762L75.1505 128.827C74.7414 128.61 74.8884 128.671 74.8628 128.649L74.8597 128.629L74.866 128.598C74.882 128.543 74.9236 128.543 74.9236 128.543C74.9236 128.543 74.882 128.543 74.8692 128.511L74.866 128.479L74.8692 128.46C74.898 128.44 74.7862 128.485 74.93 128.393L75.3455 128.169L78.5192 126.349C82.655 123.99 86.4679 122.125 90.2425 121.143C93.9851 120.169 97.8812 119.856 101.148 120.45C104.67 121.08 108.221 122.363 111.493 123.441C118.042 125.704 123.907 127.13 127.979 126.852C132.083 126.667 133.994 125.355 133.994 125.435Z" fill="#FFBB55" fill-opacity="0.2"/>
<path d="M94.6943 124.711C92.7318 124.711 91.0922 126.349 91.0922 128.313V128.552C91.0922 130.516 92.7318 132.156 94.6943 132.156C96.6567 132.156 98.2931 130.516 98.2931 128.552V128.313C98.2931 126.349 96.6567 124.711 94.6943 124.711Z" fill="#FFBB55" fill-opacity="0.2"/>
<path d="M151.822 79.0838C147.181 79.0838 147.181 86.2881 151.822 86.2881C156.469 86.2881 156.469 79.0838 151.822 79.0838Z" fill="#FFBB55" fill-opacity="0.2"/>
<path d="M207.996 125.191C203.352 125.191 203.352 132.396 207.996 132.396C212.64 132.396 212.64 125.191 207.996 125.191Z" fill="#FFBB55" fill-opacity="0.2"/>
<path d="M151.822 172.262C147.181 172.262 147.181 179.469 151.822 179.469C156.469 179.469 156.469 172.262 151.822 172.262Z" fill="#FFBB55" fill-opacity="0.2"/>
<path d="M264.647 124.955C260.003 124.955 260.003 132.159 264.647 132.159C269.294 132.159 269.294 124.955 264.647 124.955Z" fill="#FFBB55" fill-opacity="0.2"/>
<path d="M151.822 220.532C147.181 220.532 147.181 227.739 151.822 227.739C156.469 227.739 156.469 220.532 151.822 220.532Z" fill="#FFBB55" fill-opacity="0.2"/>
<path d="M151.345 28.8893C146.701 28.8893 146.701 36.0965 151.345 36.0965C155.986 36.0965 155.986 28.8893 151.345 28.8893Z" fill="#FFBB55" fill-opacity="0.2"/>
<path d="M37.081 124.472H36.5983C34.6359 124.472 32.9995 126.113 32.9995 128.075C32.9995 130.039 34.6359 131.68 36.5983 131.68H37.081C39.0434 131.68 40.683 130.039 40.683 128.075C40.683 126.113 39.0434 124.472 37.081 124.472Z" fill="#FFBB55" fill-opacity="0.2"/>
<path d="M140.207 126.247C138.82 124.859 136.503 124.859 135.115 126.247C134.997 126.365 134.873 126.487 134.754 126.608C133.367 127.997 133.367 130.315 134.754 131.703C136.141 133.09 138.462 133.09 139.846 131.703C139.967 131.584 140.089 131.463 140.207 131.34C141.597 129.953 141.597 127.634 140.207 126.247Z" fill="#FFBB55" fill-opacity="0.2"/>
<path d="M151.703 113.303C147.063 113.303 147.063 120.508 151.703 120.508C156.347 120.508 156.347 113.303 151.703 113.303Z" fill="#FFBB55" fill-opacity="0.2"/>
<path d="M165.746 125.191C161.103 125.191 161.103 132.396 165.746 132.396C170.387 132.396 170.387 125.191 165.746 125.191Z" fill="#FFBB55" fill-opacity="0.2"/>
<path d="M151.703 136.718C147.063 136.718 147.063 143.925 151.703 143.925C156.347 143.925 156.347 136.718 151.703 136.718Z" fill="#FFBB55" fill-opacity="0.2"/>
</svg>
