<svg width="78" height="78" viewBox="0 0 78 78" fill="none" xmlns="http://www.w3.org/2000/svg">
<path d="M61.5749 25.016C65.2815 25.016 65.2815 30.952 61.5749 30.952C57.8722 30.952 57.8722 25.016 61.5749 25.016Z" fill="#382405"/>
<path d="M47.4094 10.508C51.112 10.508 51.112 16.444 47.4094 16.444C43.704 16.444 43.704 10.508 47.4094 10.508Z" fill="#382405"/>
<path d="M66.772 35.9467C65.5066 37.3893 64.0053 38.752 62.252 39.9227C61.3773 40.5093 60.4373 41.048 59.4293 41.508L58.6426 41.848C58.2226 42.0053 57.7987 42.164 57.32 42.308C56.396 42.5973 55.46 42.7973 54.564 42.912L51.9546 43.2733C51.7613 41.352 51.5386 39.4213 51.444 37.6187L51.4053 36.9493L51.3986 36.5427L51.3906 35.7947C51.3906 35.296 51.4 34.8027 51.42 34.312C51.5 32.348 51.7413 30.4373 52.164 28.6453C52.9826 25.0533 54.6573 21.9507 56.6546 20.016C58.6426 18.0507 60.6986 17.2454 62.056 16.8574C63.4386 16.4854 64.2093 16.4627 64.2066 16.444C64.2173 16.46 63.5106 16.8107 62.3933 17.6053C61.292 18.4107 59.7973 19.7147 58.6507 21.7067C57.488 23.6853 56.744 26.3227 56.5213 29.396C56.4026 30.936 56.4026 32.5774 56.4906 34.3L56.5706 35.6053L56.6507 36.572L56.6626 36.612C56.6973 36.716 56.712 36.6427 56.7226 36.6533L56.7266 36.644C56.7266 36.644 56.7266 36.648 56.7306 36.6533C56.7186 36.66 56.7533 36.6507 56.7893 36.6413L57.3507 36.4213C58.12 36.108 58.8733 35.7427 59.6 35.336C61.0546 34.528 62.4026 33.5733 63.6066 32.5547C66.0213 30.516 67.8466 28.2147 68.9146 26.032C70.004 23.848 70.2707 21.7773 70.184 20.3227C70.0947 18.8654 69.7933 18.0427 69.816 18.0427C69.7933 18.0547 70.388 18.6613 71.0053 20.1227C71.616 21.5587 72.0906 24.0094 71.4733 26.9267C70.8853 29.828 69.304 33.0653 66.772 35.9467Z" fill="#382405"/>
<path d="M33.2452 12.9866L33.7546 12.368C34.0839 11.9826 34.4252 11.6173 34.7719 11.2693C36.1692 9.88263 37.6973 8.77863 39.2533 7.9373C42.3706 6.2373 45.5906 5.6853 48.1652 5.83596C50.7586 5.97863 52.7012 6.71464 53.9452 7.3093C55.1959 7.91464 55.7999 8.3773 55.8039 8.36796C55.8039 8.3773 55.0559 8.23731 53.7372 8.15331C52.4239 8.07598 50.5266 8.08798 48.3812 8.61598C46.2372 9.13598 43.8666 10.2053 41.6519 11.94C40.5439 12.804 39.4666 13.8226 38.4986 14.976C38.2559 15.2626 38.0199 15.5587 37.7919 15.8613L37.4826 16.2893C37.4719 16.3147 37.4732 16.3227 37.4799 16.324C37.4919 16.3413 37.5079 16.336 37.5079 16.336C37.5079 16.336 37.4932 16.3427 37.4919 16.3653C37.4959 16.368 37.4866 16.368 37.5012 16.3773L37.7612 16.496L38.2986 16.7293C38.6559 16.8827 39.0119 17.0253 39.3692 17.156C40.7932 17.6853 42.2052 18.056 43.5559 18.2546C46.2612 18.6613 48.7092 18.2933 50.6012 17.3373C52.4999 16.396 53.8092 14.972 54.6146 13.916C55.4252 12.8453 55.7959 12.152 55.8039 12.16C55.7919 12.1587 55.7586 12.936 55.3666 14.316C54.9666 15.668 54.1559 17.7307 52.1439 19.628C50.1679 21.5333 46.9146 22.9107 43.3426 22.96C41.5572 23.0053 39.7026 22.7693 37.8612 22.268C37.3999 22.1426 36.9399 22 36.4826 21.8426L35.7972 21.5947L35.4479 21.456L34.8519 21.1987C33.2186 20.4867 31.7732 19.5813 30.2239 18.7106L30.1772 18.6826C30.9092 17.0853 31.4639 15.56 32.4839 14.0546C32.7306 13.6826 32.9906 13.32 33.2452 12.9866Z" fill="#382405"/>
<path d="M52.4573 49.524C53.7626 49.652 55.3906 49.24 57.1106 48.4347C57.9653 48.0294 58.8439 47.532 59.6879 46.9587C60.1053 46.672 60.5186 46.368 60.8999 46.0507C61.0893 45.892 61.2693 45.7347 61.4426 45.568L62.0439 44.984C65.3013 41.692 68.1359 38.0827 70.0906 35.3867C72.0479 32.6774 73.0813 30.7014 73.0933 30.7054C73.0786 30.6854 72.3319 37.376 72.2066 37.8054L71.4826 43.9227C71.2253 46.256 71.0693 48.7707 70.8373 51.544C70.4866 56.656 70.4453 61.7014 71.2279 64.8707C71.6173 66.4707 72.3213 67.56 73.116 68.0747C73.908 68.596 74.5453 68.6401 74.5293 68.66C74.5239 68.6281 74.0106 68.9774 72.8599 68.9067C71.7039 68.8707 70.0106 67.888 68.8213 66.1387C67.5959 64.4174 66.6813 62.1267 66.0959 59.5667C65.5186 56.9867 65.2066 54.1667 65.4546 51.048C65.5079 50.4027 65.5826 49.764 65.6653 49.124C65.4479 49.3387 65.2386 49.5387 64.9946 49.756C64.6946 50.02 64.3853 50.264 64.0786 50.4867C63.4613 50.9347 62.8359 51.3054 62.2079 51.6254C60.9506 52.2614 59.6773 52.692 58.42 52.9454C55.924 53.4547 53.3853 53.228 51.5319 52.1494C49.6399 51.068 48.9386 49.3534 48.7533 48.3587C48.552 47.316 48.6479 46.76 48.6306 46.76C48.6399 46.7494 48.9013 47.268 49.5106 47.9707C50.1146 48.6734 51.1413 49.4307 52.4573 49.524Z" fill="#382405"/>
<path d="M4.27186 4.4253C4.75053 5.25863 5.78918 6.01062 7.32785 6.45062C10.3759 7.33329 15.2572 7.40931 20.2132 7.16664C22.8999 6.99064 25.3372 6.89062 27.5999 6.67862L33.5345 6.07461C33.9545 5.95595 40.4425 5.3413 40.4265 5.32396C40.4292 5.3373 38.4918 6.35996 35.8252 8.31996C33.1718 10.2733 29.6119 13.1186 26.3519 16.4053L25.7719 17.0133C25.6079 17.1893 25.4505 17.3706 25.2932 17.564C24.9758 17.948 24.6719 18.368 24.3852 18.7946C23.8105 19.652 23.3092 20.5453 22.8972 21.4213C22.0772 23.1786 21.6425 24.8519 21.7345 26.2039C21.7919 27.5639 22.5025 28.6426 23.1679 29.2826C23.8319 29.9293 24.3292 30.212 24.3172 30.22C24.3185 30.2053 23.7785 30.288 22.7759 30.056C21.8172 29.8413 20.1732 29.0773 19.1732 27.0986C18.1705 25.1573 18.0119 22.5293 18.5639 19.9626C18.8399 18.6693 19.2839 17.3653 19.9305 16.08C20.2545 15.4386 20.6265 14.8013 21.0732 14.1746C21.2972 13.8626 21.5399 13.5479 21.8039 13.2453C22.0185 12.9999 22.2172 12.7866 22.4305 12.5679C21.8105 12.6399 21.1892 12.6999 20.5665 12.7399C17.5425 12.9226 14.8212 12.5333 12.3385 11.8786C9.87453 11.2106 7.67987 10.2146 6.04387 8.90795C4.3812 7.63861 3.46919 5.86394 3.46385 4.66794C3.42252 3.47994 3.77186 2.95596 3.73986 2.95062C3.75853 2.93596 3.78786 3.59596 4.27186 4.4253Z" fill="#382405"/>
<path d="M0 0H77.844V77.5653C77.0493 76.232 74.88 54.2453 74.7 29.1947C74.656 23.252 74.7573 19.1986 74.9573 14.8026C75.5987 5.93597 72.932 8.87731 72.932 8.87731C71.764 10.044 70.4133 11.8226 69.5467 13.476C67.9987 16.5506 67.1507 20.3427 66.8107 22.5267C66.636 23.628 66.788 24.4986 67.148 25.0413C67.5027 25.5826 67.8867 25.788 67.8707 25.796C67.8773 25.7747 67.468 25.848 66.7733 25.4853C66.064 25.1413 65.2693 24.06 64.9853 22.6453C64.676 21.2346 64.7053 19.56 65.008 17.8093C65.324 16.048 65.8627 14.2106 66.828 12.3453C67.0293 11.96 67.2413 11.584 67.46 11.2106C67.2693 11.284 67.0867 11.3493 66.8813 11.4173C66.624 11.496 66.3707 11.5626 66.1213 11.616C65.6227 11.72 65.1373 11.776 64.6653 11.8013C63.7187 11.8466 62.816 11.7587 61.9707 11.5653C60.2907 11.188 58.7747 10.3413 57.904 9.15732C57.012 7.95999 57.0227 6.70133 57.1693 6.03333C57.316 5.32933 57.5187 5.01197 57.508 5.00531C57.516 5.00264 57.544 5.39597 57.7387 6.00264C57.9307 6.60664 58.3707 7.36265 59.1627 7.78532C59.9387 8.22665 61.056 8.4253 62.3333 8.40397C62.9693 8.3893 63.6427 8.3253 64.316 8.20531C64.6507 8.14397 68.3693 7.08797 69.3867 6.47197C72.42 4.63731 71.7973 2.7413 67.496 2.96797C66.5747 3.02664 51.704 3.48664 42.9893 3.50531C10.0533 3.57731 0 0 0 0Z" fill="#382405"/>
<path d="M50.7414 23.8586C50.7414 23.8653 50.1294 23.7653 49.0001 23.7586C47.8774 23.7653 46.2001 23.8479 44.1787 24.5906C42.1707 25.3093 39.8801 26.8773 38.1067 29.2186C37.2107 30.3759 36.4254 31.6893 35.7641 33.0933L35.6934 33.2386L35.5881 33.4812L35.3774 33.9732C35.2481 34.3026 35.1067 34.6386 34.9827 34.9732C34.7267 35.6479 34.4987 36.3239 34.2814 36.9999L33.0361 41.1213L32.9907 41.2772L37.1214 40.4559C37.7947 40.3173 38.4774 40.1572 39.1507 39.9826C39.8014 39.8186 40.5441 39.5932 41.0947 39.4079C42.5267 38.8999 43.9187 38.2346 45.1441 37.3692C46.3707 36.5079 47.3974 35.4479 48.1521 34.3692C48.9147 33.2866 49.4334 32.2066 49.8227 31.2172C50.5921 29.2332 50.9081 27.5986 51.1214 26.4692C51.3241 25.3386 51.3881 24.7066 51.3907 24.7066L50.4667 26.2026C49.8721 27.1519 49.0254 28.5479 47.8694 30.0506C46.7081 31.5626 45.2161 33.0493 43.2267 33.9626C42.2321 34.4359 41.0987 34.8066 39.8547 35.1239C39.6774 35.1093 39.7907 35.0346 39.7761 35.0412V35.0399C39.7761 35.0399 39.7614 35.0519 39.7414 35.0519C39.7347 35.0506 39.7241 35.0479 39.7161 35.0399C39.7081 35.0346 39.7054 35.0293 39.7001 35.0213L39.6934 35.0092C39.6934 35.0052 39.6907 35.0066 39.6921 35.0012L39.7307 34.8973C40.1934 33.6493 40.7001 32.4906 41.2614 31.4492C42.3707 29.3599 43.7601 27.7693 45.2241 26.6653C46.6814 25.5573 48.1241 24.9012 49.1321 24.4772C50.1481 24.0586 50.7441 23.8639 50.7414 23.8586Z" fill="#382405"/>
</svg>
