<svg width="152" height="46" viewBox="0 0 152 46" fill="none" xmlns="http://www.w3.org/2000/svg">
<path d="M72.5358 22.6053C72.6985 22.6329 72.8691 22.6683 73.0524 22.7186C73.4666 22.8357 73.9442 23.0287 74.3954 23.3851C74.1791 23.1045 73.9344 22.8702 73.683 22.6959C73.1274 22.3119 72.5602 22.181 72.1235 22.1662C71.8915 22.1642 71.7054 22.1869 71.5426 22.2164C71.9071 22.2902 72.2414 22.4212 72.5358 22.6053Z" fill="#FFA51E"/>
<path d="M151.963 0.00145589C151.875 -0.0270982 151.689 0.365774 151.289 1.056C150.889 1.74228 150.239 2.72197 149.153 3.73417C148.075 4.74833 146.55 5.77037 144.608 6.62502C142.671 7.48755 140.335 8.2024 137.691 8.75083C132.4 9.85755 125.908 10.3361 118.691 10.4523C111.468 10.5753 103.506 10.3233 95.1217 10.0919C90.9316 9.98161 86.8312 9.8861 82.8546 9.91268C78.877 9.95797 75.0241 10.0614 71.3077 10.6817C70.8818 10.7565 70.4578 10.8422 70.0338 10.9377C70.8701 11.3049 71.6879 11.8347 72.3623 12.581C72.4423 12.6667 72.5114 12.7592 72.5865 12.8478C75.8048 12.4422 79.2815 12.3831 82.8614 12.3772C86.7893 12.3821 90.8702 12.4944 95.0564 12.6046C103.434 12.836 111.445 13.0202 118.749 12.7681C126.047 12.5209 132.653 11.8544 138.084 10.4848C140.796 9.80339 143.207 8.93396 145.209 7.89322C147.212 6.86035 148.786 5.62957 149.846 4.4175C150.915 3.2074 151.474 2.06031 151.744 1.26868C152.014 0.471132 152.038 0.0241022 151.963 0.00145589Z" fill="#FFA51E"/>
<path d="M74.2784 23.786C73.8905 23.3616 73.409 23.1056 72.9811 22.9392C72.9763 22.9373 72.9714 22.9363 72.9665 22.9343C73.1332 23.0919 73.2784 23.272 73.4022 23.4709C73.7083 23.8097 73.9646 24.2636 74.0494 24.8061C74.1537 25.4451 73.986 26.1747 73.4714 26.7379C72.9246 27.3454 72.1488 27.8023 71.217 27.9451C69.37 28.2385 66.9333 27.3425 65.3349 25.5062C64.9421 25.0424 64.6322 24.5461 64.4392 23.9682C64.215 23.339 64.0464 22.6813 63.9558 22.0068C63.7696 20.6598 63.9187 19.239 64.4811 17.9137C64.7618 17.2521 65.1341 16.613 65.5951 16.0154C65.8242 15.718 66.0756 15.4295 66.3446 15.1528C66.6039 14.889 66.9275 14.5768 67.1585 14.4134C67.5172 14.1564 67.9665 13.9398 68.4577 13.7537C68.1585 13.6099 67.8408 13.4829 67.4948 13.3894C66.8154 13.2062 66.0825 13.1186 65.3398 13.0832C65.1448 13.2683 64.9713 13.4504 64.7852 13.6464C64.4674 13.987 64.1712 14.3464 63.8973 14.7196C63.3485 15.4669 62.9002 16.2802 62.5698 17.129C61.8992 18.8284 61.7715 20.6648 62.0581 22.3042C62.1965 23.1273 62.4294 23.9061 62.7189 24.6318C63.0171 25.4225 63.5025 26.1314 64.0269 26.6956C65.0912 27.8368 66.3583 28.5772 67.64 29.0252C68.9226 29.4663 70.2589 29.5943 71.4802 29.3245C71.8671 29.2428 72.2326 29.1099 72.5757 28.9474C73.1595 28.5506 73.6576 28.079 74.0377 27.567C74.5231 26.9132 74.8262 26.1875 74.8662 25.5052C74.9149 24.8209 74.6683 24.2064 74.2784 23.786Z" fill="#FFA51E"/>
<path d="M74.3818 27.5059C73.9422 28.0838 73.3164 28.5969 72.5757 28.9474C71.6683 29.5648 70.5513 29.996 69.3262 30.0846C67.3096 30.2579 65.1215 29.4062 63.2872 27.816C62.3603 27.0195 61.487 26.0959 60.8525 25.0266C60.2121 23.9563 59.7988 22.7344 59.7121 21.4445C59.5181 18.853 60.6546 16.101 62.5269 13.8393C62.7287 13.5941 62.9441 13.3558 63.1624 13.1195C62.5084 13.1619 61.8583 13.219 61.2228 13.2968C60.7569 13.3558 60.2998 13.4218 59.8476 13.4888C59.176 14.5069 58.6195 15.5919 58.2238 16.7321C57.6721 18.3144 57.4392 20.0099 57.6224 21.6414C57.7969 23.2739 58.3992 24.806 59.2433 26.0673C60.0932 27.3424 61.1487 28.3339 62.2306 29.162C63.3261 29.993 64.5221 30.6458 65.7657 31.0249C67.0065 31.4099 68.2872 31.5113 69.4646 31.3331C71.8379 30.9816 73.7015 29.6011 74.6878 28.0149C75.182 27.2193 75.4666 26.344 75.4432 25.511C75.4305 24.677 75.0475 23.9425 74.5524 23.5073C74.5007 23.461 74.4481 23.4265 74.3954 23.3851C74.6537 23.7189 74.8711 24.1197 74.9968 24.5983C75.2356 25.4657 75.0874 26.6118 74.3818 27.5059Z" fill="#FFA51E"/>
<path d="M65.9015 10.201C65.7533 9.91253 65.5818 9.64865 65.3586 9.4409C65.0905 9.17899 64.7367 8.96729 64.3322 8.79794C63.5925 9.34736 62.8985 9.94698 62.2484 10.586C62.9326 10.461 63.6334 10.3497 64.3722 10.2778C64.8654 10.2325 65.3771 10.2059 65.9015 10.201Z" fill="#FFA51E"/>
<path d="M69.2161 8.81285C69.4412 8.70947 69.6654 8.6041 69.8964 8.50859C71.182 7.93554 72.757 7.8361 74.3331 7.74748C75.9101 7.67856 77.4958 7.69529 79.0582 7.73173C82.185 7.8105 85.223 7.96903 88.1236 8.08324C93.9248 8.31955 99.1968 8.41309 103.622 7.99364C105.831 7.78293 107.832 7.44914 109.539 6.90661C111.235 6.37393 112.663 5.58722 113.473 4.55927C114.3 3.53034 114.361 2.4443 114.313 1.80725C114.261 1.14854 114.136 0.823613 114.147 0.821644C114.137 0.821644 114.224 1.16134 114.206 1.80922C114.188 2.43938 114.017 3.44566 113.18 4.29933C112.363 5.15694 110.989 5.76839 109.333 6.1396C107.67 6.51671 105.716 6.69 103.549 6.73923C99.2085 6.83966 94.0223 6.43892 88.2493 5.96729C85.3604 5.7359 82.3224 5.47793 79.1401 5.32827C77.5475 5.25738 75.9198 5.21208 74.2385 5.26525C73.3974 5.2938 72.5426 5.34697 71.6615 5.46808C71.22 5.52912 70.7726 5.60495 70.3106 5.72212C69.8554 5.82747 69.3389 6.02242 68.9568 6.18193C68.5172 6.36408 68.0855 6.56199 67.6595 6.77073C67.6936 6.80027 67.7307 6.8249 67.7648 6.85641C68.373 7.39992 68.8632 8.08718 69.2161 8.81285Z" fill="#FFA51E"/>
<path d="M74.9968 24.5983C74.8711 24.1197 74.6537 23.7189 74.3954 23.3851C73.9442 23.0287 73.4666 22.8357 73.0524 22.7186C72.8691 22.6683 72.6985 22.6329 72.5358 22.6053C72.6898 22.7018 72.835 22.8103 72.9665 22.9343C72.9714 22.9363 72.9763 22.9373 72.9811 22.9392C73.409 23.1056 73.8905 23.3616 74.2784 23.786C74.6683 24.2064 74.9149 24.8209 74.8662 25.5052C74.8262 26.1875 74.5231 26.9132 74.0377 27.567C73.6576 28.079 73.1595 28.5506 72.5757 28.9474C73.3164 28.5969 73.9422 28.0838 74.3818 27.5059C75.0874 26.6118 75.2356 25.4657 74.9968 24.5983Z" fill="#FFA51E"/>
<path d="M67.033 6.29707C66.5057 5.94163 65.9453 5.66889 65.3927 5.47787C64.572 5.19627 63.763 5.05744 62.9833 4.9954C61.4238 4.87725 59.9706 5.03478 58.5846 5.28488C57.8916 5.41189 57.2152 5.56845 56.5534 5.74372L55.5729 6.02137L54.684 6.29019C52.3838 6.89868 49.9004 7.23935 47.5504 7.54754C45.182 7.84588 42.8701 8.07431 40.6313 8.26041C31.6654 8.99001 23.8671 9.12787 17.5103 8.87482C11.1633 8.60504 6.19831 7.93155 3.0901 6.66828C1.54526 6.05092 0.504331 5.18445 0.206084 4.3613C-0.0980117 3.54406 0.105683 3.06259 0.0735189 3.07342C0.106658 3.06849 -0.129205 3.5096 0.104715 4.36229C0.336685 5.22383 1.32792 6.21043 2.83768 6.94791C5.86986 8.46127 10.7763 9.46657 17.1116 10.1204C23.4606 10.7545 31.2882 11.0489 40.4247 10.7466C42.7093 10.6658 45.0748 10.5428 47.5241 10.3468C49.9832 10.1351 52.4881 9.91557 55.184 9.35236C55.5076 9.28344 55.9092 9.17513 56.1908 9.10029L57.0983 8.87482C57.7035 8.73501 58.3147 8.61389 58.9277 8.52035C60.1509 8.33426 61.3946 8.25057 62.5505 8.36971C62.9443 8.4091 63.3205 8.48097 63.6753 8.57845C64.647 7.61943 65.7981 6.87603 67.033 6.29707Z" fill="#FFA51E"/>
<path d="M65.9015 10.201C66.1442 10.1991 66.3907 10.205 66.6422 10.2159C67.457 9.6891 68.3194 9.22147 69.2161 8.81285C68.8632 8.08718 68.373 7.39992 67.7648 6.85641C67.7307 6.8249 67.6936 6.80027 67.6595 6.77073C66.4831 7.34969 65.3673 8.02698 64.3322 8.79794C64.7367 8.96729 65.0905 9.17899 65.3586 9.4409C65.5818 9.64865 65.7533 9.91253 65.9015 10.201Z" fill="#FFA51E"/>
<path d="M70.0338 10.9377C69.9802 10.914 69.9258 10.8864 69.8722 10.8638C69.879 10.8992 69.8848 10.9337 69.8907 10.9691C69.9384 10.9573 69.9861 10.9485 70.0338 10.9377Z" fill="#FFA51E"/>
<path d="M72.3273 13.2791C71.2396 13.475 70.1675 13.7438 69.1412 14.1573C69.3936 14.3405 69.6168 14.5482 69.803 14.7875C70.2182 15.3074 70.4998 16.0035 70.6626 16.8148C70.6948 16.7371 70.726 16.6603 70.7659 16.5844C71.2533 15.6333 72.1753 14.8604 73.1743 14.2932C73.2659 14.241 73.3624 14.1977 73.454 14.1495C73.2806 13.8157 73.07 13.4986 72.8429 13.1914C72.6743 13.2289 72.5018 13.2574 72.3273 13.2791Z" fill="#FFA51E"/>
<path d="M61.2395 10.7801C61.1508 10.7988 61.0621 10.8155 60.9754 10.8342C56.7258 11.8041 53.2931 13.0289 50.4012 13.7044C47.5348 14.4143 45.2082 14.6004 43.7423 14.0943C43.0113 13.858 42.523 13.4897 42.2335 13.2091C41.945 12.9255 41.83 12.7434 41.8261 12.7473C41.83 12.7444 41.9119 12.9344 42.1526 13.2613C42.3953 13.5813 42.8291 14.0392 43.5542 14.4074C44.2755 14.7786 45.2667 15.0326 46.4392 15.1203C47.6137 15.2109 48.9695 15.1498 50.4724 14.9814C52.8974 14.7274 55.7258 14.1386 58.8945 13.6384C59.5426 12.5652 60.3448 11.6278 61.2395 10.7801Z" fill="#FFA51E"/>
<path d="M70.0338 10.9377C69.9861 10.9485 69.9384 10.9573 69.8907 10.9691C69.9404 11.2655 69.9802 11.5609 70.0046 11.8514L66.7872 12.0611C66.4733 12.2275 66.1614 12.4097 65.8573 12.6371C65.6556 12.7937 65.4918 12.9394 65.3398 13.0832C66.0825 13.1186 66.8154 13.2062 67.4948 13.3894C67.8408 13.4829 68.1585 13.6099 68.4577 13.7537C68.6975 13.6631 68.9431 13.5765 69.1985 13.5026C69.9792 13.2722 70.8165 13.1019 71.679 12.968C71.9773 12.9237 72.2824 12.8853 72.5865 12.8478C72.5114 12.7592 72.4423 12.6667 72.3623 12.581C71.6879 11.8347 70.8701 11.3049 70.0338 10.9377Z" fill="#FFA51E"/>
<path d="M63.1624 13.1195C64.025 12.191 65.0085 11.3443 66.0836 10.595C66.0329 10.4533 65.9658 10.328 65.9015 10.201C65.3771 10.2059 64.8654 10.2325 64.3722 10.2778C63.6334 10.3497 62.9326 10.461 62.2484 10.586C61.6899 11.1364 61.1615 11.7146 60.6781 12.325C60.3838 12.7011 60.1088 13.091 59.8476 13.4888C60.2998 13.4218 60.7569 13.3558 61.2228 13.2968C61.8583 13.219 62.5084 13.1619 63.1624 13.1195Z" fill="#FFA51E"/>
<path d="M66.7872 12.0611L70.0046 11.8514C69.9802 11.5609 69.9404 11.2655 69.8907 10.9691C69.4404 11.0735 68.9909 11.1937 68.5445 11.3345C67.9548 11.5255 67.3661 11.7549 66.7872 12.0611Z" fill="#FFA51E"/>
<path d="M65.9015 10.201C65.9658 10.328 66.0329 10.4533 66.0836 10.595C66.2688 10.467 66.4531 10.3399 66.6422 10.2159C66.3907 10.205 66.1442 10.1991 65.9015 10.201Z" fill="#FFA51E"/>
<path d="M81.0124 33.0926C80.718 32.363 80.2794 31.6777 79.7501 31.1725C79.2238 30.6635 78.6439 30.3425 78.1225 30.1495C77.0708 29.7714 76.2462 29.7921 75.6926 29.8098C75.139 29.8394 74.8427 29.9053 74.8418 29.9024L75.562 30.3366C76.0055 30.6202 76.6585 31.0426 77.2053 31.6461C77.7657 32.2625 78.0533 32.9705 78.1205 33.9167C78.1614 34.3913 78.1566 34.9535 78.1332 35.5551C78.0757 35.6073 78.0299 35.5915 78.0123 35.5738L78.0006 35.563C78.0016 35.563 78.0055 35.5709 78.0016 35.5837L77.9967 35.5965C77.9919 35.5965 78.0026 35.5984 77.986 35.6004L77.8691 35.5827L77.411 35.5088C76.8057 35.4005 76.2306 35.2656 75.7072 35.0963C74.6536 34.7605 73.8144 34.3027 73.2735 33.7168C72.7218 33.1379 72.4889 32.3876 72.4177 31.8313C72.3437 31.272 72.37 30.9244 72.3622 30.9264C72.369 30.9323 72.1293 31.1657 71.8447 31.7279C71.5717 32.2724 71.2482 33.2747 71.6 34.5478C71.9363 35.8131 72.9587 37.0783 74.292 37.9369C74.9587 38.376 75.7053 38.7315 76.5045 38.9983C76.7053 39.0623 76.908 39.1244 77.1146 39.1795L77.2706 39.2189L77.5338 39.275C77.7141 39.3105 77.8963 39.3469 78.0796 39.3735C78.8155 39.4966 79.5542 39.529 80.2657 39.529L81.7667 39.531C81.7385 38.0698 81.7297 36.6658 81.5923 35.3434C81.4812 34.5784 81.3106 33.8261 81.0124 33.0926Z" fill="#FFA51E"/>
<path d="M84.2893 22.0797L84.0924 21.9812L83.9686 21.927L83.722 21.8237L83.2298 21.6336C82.9033 21.5165 82.5778 21.415 82.2552 21.3294C80.9676 20.9857 79.7152 20.8873 78.6508 21.0685C77.5816 21.2329 76.7609 21.7734 76.4325 22.2628C76.0904 22.7472 76.0845 23.0613 76.0709 23.0544C76.0728 23.0653 76.3087 22.8427 76.761 22.701C77.2122 22.5533 77.8428 22.5799 78.5787 22.8437C79.3175 23.0997 80.1733 23.5655 81.0953 24.1493L81.799 24.6082L82.1567 24.8524L82.337 24.9774L82.4277 25.0404C82.453 25.0601 82.4374 25.0552 82.4423 25.0631C82.4501 25.1369 82.4101 25.1635 82.3877 25.1684L82.376 25.1704C82.376 25.1704 82.3858 25.1714 82.3945 25.1812L82.4014 25.1911C82.4082 25.1911 82.4131 25.1901 82.3507 25.2669L82.0758 25.5928C81.7113 26.0122 81.3419 26.3726 80.9696 26.6621C80.2327 27.245 79.4481 27.5414 78.6274 27.5689C77.8126 27.6004 77.0514 27.3927 76.5348 27.2243C76.0134 27.05 75.7151 26.9191 75.7151 26.923C75.719 26.922 75.8458 27.2164 76.1879 27.6979C76.5349 28.1666 77.1021 28.8608 78.1625 29.3944C78.6888 29.6524 79.3458 29.8523 80.0865 29.8877C80.8253 29.9261 81.6314 29.7922 82.3955 29.4978C83.1616 29.2034 83.8848 28.7584 84.5271 28.2158C84.6869 28.08 84.8439 27.9382 84.9949 27.7905C85.0515 27.7373 85.1801 27.6064 85.301 27.4695C85.4218 27.3405 85.5359 27.2046 85.6509 27.0668C86.109 26.5174 86.5027 25.9246 86.8673 25.3338L87.5437 24.2429C86.9979 23.8323 86.4842 23.4493 85.9589 23.0731C85.4277 22.7019 84.8546 22.3682 84.2893 22.0797Z" fill="#FFA51E"/>
<path d="M47.6984 22.2047C47.8183 22.3416 47.9469 22.4725 48.0025 22.5267C48.1545 22.6734 48.3105 22.8152 48.4713 22.9511C49.1146 23.4936 49.8368 23.9386 50.6029 24.232C51.367 24.5284 52.1741 24.6604 52.9119 24.6229C53.6536 24.5875 54.3105 24.3886 54.8359 24.1287C55.8963 23.596 56.4636 22.9008 56.8105 22.4322C57.1526 21.9517 57.2793 21.6563 57.2832 21.6573C57.2832 21.6543 56.985 21.7853 56.4636 21.9585C55.947 22.1279 55.1858 22.3357 54.3709 22.3041C53.5493 22.2766 52.7657 21.9792 52.0288 21.3973C51.6575 21.1069 51.2871 20.7475 50.9216 20.327L50.6477 20.0021C50.5854 19.9253 50.5912 19.9253 50.5961 19.9253L50.6039 19.9164C50.6136 19.9066 50.6224 19.9046 50.6224 19.9066L50.6107 19.9036C50.5883 19.8977 50.5483 19.8721 50.5551 19.7983C50.561 19.7904 50.5454 19.7953 50.5717 19.7756L50.6614 19.7126L50.8427 19.5866L51.2004 19.3434L51.9031 18.8836C52.8251 18.3007 53.6809 17.8349 54.4197 17.5789C55.1565 17.3151 55.7862 17.2885 56.2374 17.4362C56.6906 17.578 56.9256 17.8005 56.9275 17.7897C56.9148 17.7956 56.908 17.4834 56.5659 16.998C56.2374 16.5087 55.4168 15.9681 54.3466 15.8037C53.2832 15.6215 52.0308 15.7219 50.7442 16.0636C50.4206 16.1503 50.0961 16.2517 49.7676 16.3688L49.2764 16.5579L49.0298 16.6623L48.907 16.7164L48.7091 16.8149C48.1438 17.1034 47.5707 17.4362 47.0405 17.8084C46.5142 18.1835 46.0005 18.5675 45.4547 18.9781L46.1311 20.0691C46.4957 20.6608 46.8894 21.2526 47.3475 21.803C47.4625 21.9389 47.5766 22.0757 47.6984 22.2047Z" fill="#FFA51E"/>
<path d="M70.7795 17.5534C70.7522 17.2964 70.7113 17.0512 70.6626 16.8148C70.4969 17.2097 70.4179 17.6085 70.4247 17.9452C70.4296 18.3509 70.529 18.6679 70.6304 18.8983C70.8429 19.3592 71.0417 19.5324 71.0349 19.5374C71.0407 19.5423 71.0661 19.2627 71.2123 18.8609C71.3565 18.4513 71.6821 18.0201 72.1899 17.8015C72.6928 17.5632 73.4082 17.4135 74.2883 17.2678L75.7152 17.0315C75.8068 17.0128 75.7649 17.0305 75.7805 17.0335L75.7883 17.0473C75.7922 17.0561 75.7942 17.065 75.7942 17.0719C75.7961 17.0857 75.7922 17.0935 75.7922 17.0935C75.7932 17.0906 75.8176 17.0561 75.8731 17.0591C75.8877 17.0591 75.9033 17.063 75.9189 17.0689C75.9297 17.0463 75.9735 17.2068 75.9959 17.2924C76.0534 17.4923 76.1012 17.6902 76.1441 17.8852C76.3176 18.666 76.3731 19.3759 76.2796 19.9804C76.1957 20.585 75.9209 21.0931 75.6519 21.4229C75.3829 21.7557 75.1704 21.9241 75.1762 21.929C75.1762 21.9202 75.4267 21.9911 75.9141 21.9428C76.3907 21.8946 77.1616 21.6622 77.8605 20.9503C78.5612 20.2522 79.0983 19.1445 79.2757 17.9068C79.3195 17.5967 79.3478 17.2767 79.3498 16.9508C79.3507 16.7725 79.3556 16.6692 79.3254 16.3797C79.2952 16.1207 79.263 15.8568 79.2075 15.5959C79.0106 14.5266 78.5476 13.5932 78.1285 12.581L77.9745 12.6204L76.2981 13.0891L75.4891 13.3244L75.0943 13.4455C74.9764 13.4839 74.802 13.5381 74.761 13.5558C74.3127 13.7261 73.8771 13.9269 73.454 14.1495C73.9307 15.0632 74.225 16.0489 74.3945 16.998L70.7795 17.5534Z" fill="#FFA51E"/>
<path d="M70.7659 16.5844C70.726 16.6603 70.6948 16.7371 70.6626 16.8148C70.7113 17.0512 70.7522 17.2964 70.7795 17.5534L74.3945 16.998C74.225 16.0489 73.9307 15.0632 73.454 14.1495C73.3624 14.1977 73.2659 14.241 73.1743 14.2932C72.1753 14.8604 71.2533 15.6333 70.7659 16.5844Z" fill="#FFA51E"/>
<path d="M68.9073 32.9843C68.4863 32.5461 68.0526 32.3098 67.7007 32.1621C66.9902 31.8795 66.5886 31.8766 66.5896 31.8628C66.5798 31.8687 66.9239 32.1148 67.3605 32.6396C67.803 33.1605 68.2026 34.0102 67.9814 34.9545C67.7913 35.9066 67.112 37.0261 66.1773 38.1939C65.7085 38.7788 65.1792 39.3784 64.6071 39.9899L64.3917 40.2193C64.3644 40.2468 64.2981 40.3187 64.302 40.3108L64.2942 40.3079C64.2835 40.3059 64.2757 40.3 64.2718 40.2951C64.2611 40.2853 64.2621 40.2734 64.2621 40.2734C64.2621 40.2734 64.2611 40.2853 64.2504 40.2951C64.2445 40.3 64.2367 40.303 64.226 40.3059L64.2094 40.3069C64.2036 40.302 64.2065 40.3158 64.1938 40.2951L64.1256 40.1779C63.7601 39.5369 63.4755 38.8743 63.264 38.2028C63.0545 37.5313 62.92 36.8548 62.843 36.1892C62.7523 35.561 62.7621 35.0155 62.8517 34.4888C63.0233 33.448 63.5564 32.6938 64.1032 32.3246C64.648 31.9465 65.0788 31.8766 65.0691 31.8628C65.0671 31.8835 64.6929 31.6895 63.9063 31.7702C63.5155 31.8155 63.0252 31.9612 62.5242 32.2871C62.0252 32.6091 61.532 33.1093 61.1334 33.7542C60.7396 34.3893 60.4307 35.2125 60.2952 36.0691C60.1461 36.8844 60.0808 37.804 60.1685 38.7738C60.2552 39.7437 60.494 40.7667 60.916 41.7573L60.9979 41.9453L61.1412 42.2368C61.2406 42.4386 61.3537 42.6346 61.4648 42.8305C61.6929 43.2214 61.9453 43.5946 62.2104 43.9461C62.7465 44.6412 63.3079 45.2753 63.8936 45.9685L63.9219 46C64.5866 45.3383 65.2319 44.7023 65.8634 44.0416C66.1763 43.7058 66.4833 43.3661 66.7748 43.0186L66.9931 42.7576L67.1266 42.5903L67.3469 42.2988C67.9258 41.518 68.4288 40.7086 68.8391 39.8835C69.65 38.249 70.1383 36.4669 69.842 34.8728C69.6968 34.0861 69.3284 33.4165 68.9073 32.9843Z" fill="#FFA51E"/>
<path d="M60.9597 30.2687C60.8993 29.413 60.6332 29.0399 60.6547 29.0349C60.6371 29.0271 60.6635 29.5016 60.3925 30.181C60.1293 30.8653 59.4744 31.6235 58.3876 32.1611C57.3126 32.7125 55.8613 33.1024 54.2239 33.3328C53.4051 33.446 52.5367 33.5238 51.6566 33.5435L50.9977 33.5475C50.8398 33.5475 50.8895 33.5396 50.8798 33.5357L50.8759 33.5238C50.8729 33.5071 50.8807 33.4982 50.8827 33.4963H50.8837C50.8837 33.4963 50.8749 33.5012 50.8622 33.4953L50.8525 33.4884C50.8515 33.4845 50.8466 33.4913 50.8486 33.4776L50.8866 33.3476C50.9461 33.1546 51.0123 32.9626 51.0845 32.7726C51.3798 32.0085 51.7765 31.2759 52.2199 30.6113C53.1137 29.2811 54.1936 28.2295 55.2424 27.5747C56.2892 26.9081 57.3223 26.663 58.0718 26.6512C58.8262 26.6344 59.2687 26.7713 59.2687 26.7575C59.2609 26.7713 58.9597 26.4267 58.1917 26.0742C57.4373 25.7207 56.1264 25.4578 54.5747 25.8142C53.0318 26.1579 51.3125 27.0608 49.8232 28.5505C49.0825 29.2978 48.3924 30.1909 47.8456 31.2562C47.7082 31.5241 47.5834 31.8017 47.4675 32.0892L47.3798 32.3236L47.2628 32.681C47.1868 32.9252 47.1205 33.1733 47.0669 33.4204C46.8232 34.4366 46.8798 35.369 46.8739 36.3438L46.8758 36.7573C47.8505 36.9375 48.7228 37.1729 49.7375 37.2162C49.9879 37.2241 50.2375 37.2319 50.487 37.227C50.7297 37.228 51.0318 37.2142 51.1234 37.2044C51.4051 37.1847 51.68 37.1541 51.9519 37.1187C53.0348 36.973 54.0435 36.717 54.9792 36.3911C56.8457 35.7353 58.4354 34.7773 59.5202 33.6272C60.0602 33.0561 60.4627 32.4348 60.6937 31.8401C60.9256 31.2444 60.9851 30.694 60.9597 30.2687Z" fill="#FFA51E"/>
<path d="M65.1567 33.5032C63.7385 33.5032 63.7385 35.7246 65.1567 35.7246C66.5738 35.7246 66.5738 33.5032 65.1567 33.5032Z" fill="#FFA51E"/>
<path d="M74.5019 31.2819C73.0847 31.2819 73.0847 33.5032 74.5019 33.5032C75.92 33.5032 75.92 31.2819 74.5019 31.2819Z" fill="#FFA51E"/>
<path d="M77.9102 24.173C76.4921 24.173 76.4921 26.3953 77.9102 26.3953C79.3284 26.3953 79.3284 24.173 77.9102 24.173Z" fill="#FFA51E"/>
<path d="M73.7326 18.8423H73.6224C73.023 18.8423 72.522 19.3474 72.522 19.9529C72.522 20.5584 73.023 21.0636 73.6224 21.0636H73.7326C74.332 21.0636 74.832 20.5584 74.832 19.9529C74.832 19.3474 74.332 18.8423 73.7326 18.8423Z" fill="#FFA51E"/>
<path d="M54.4919 18.6197C53.0737 18.6197 53.0737 20.842 54.4919 20.842C55.909 20.842 55.909 18.6197 54.4919 18.6197Z" fill="#FFA51E"/>
<path d="M56.9101 28.6165C55.4929 28.6165 55.4929 30.8378 56.9101 30.8378C58.3282 30.8378 58.3282 28.6165 56.9101 28.6165Z" fill="#FFA51E"/>
<path d="M70.6538 22.8408C68.6684 22.8408 68.6684 25.9512 70.6538 25.9512C72.6401 25.9512 72.6401 22.8408 70.6538 22.8408Z" fill="#FFA51E"/>
</svg>
