<svg width="78" height="79" viewBox="0 0 78 79" fill="none" xmlns="http://www.w3.org/2000/svg">
<path d="M25.1554 17.13C25.1554 13.4233 31.0914 13.4233 31.0914 17.13C31.0914 20.8326 25.1554 20.8326 25.1554 17.13Z" fill="#382405"/>
<path d="M10.6474 31.2955C10.6474 27.5928 16.5834 27.5928 16.5834 31.2955C16.5834 35.0008 10.6474 35.0008 10.6474 31.2955Z" fill="#382405"/>
<path d="M36.0861 11.9329C37.5287 13.1982 38.8914 14.6995 40.0621 16.4528C40.6488 17.3275 41.1874 18.2675 41.6474 19.2755L41.9874 20.0622C42.1447 20.4822 42.3034 20.9062 42.4474 21.3848C42.7367 22.3088 42.9367 23.2449 43.0514 24.1409L43.4127 26.7502C41.4914 26.9435 39.5607 27.1662 37.7581 27.2609L37.0887 27.2995L36.6821 27.3062L35.9341 27.3142C35.4354 27.3142 34.9421 27.3048 34.4514 27.2848C32.4874 27.2048 30.5767 26.9635 28.7847 26.5409C25.1927 25.7222 22.0901 24.0475 20.1554 22.0502C18.1901 20.0622 17.3848 18.0062 16.9968 16.6489C16.6248 15.2662 16.6021 14.4955 16.5834 14.4982C16.5994 14.4875 16.9501 15.1942 17.7447 16.3115C18.5501 17.4129 19.8541 18.9075 21.8461 20.0542C23.8247 21.2168 26.4621 21.9609 29.5354 22.1835C31.0754 22.3022 32.7168 22.3022 34.4394 22.2142L35.7447 22.1342L36.7114 22.0542L36.7514 22.0422C36.8554 22.0075 36.7821 21.9929 36.7927 21.9822L36.7834 21.9782C36.7834 21.9782 36.7874 21.9782 36.7927 21.9742C36.7994 21.9862 36.7901 21.9515 36.7807 21.9155L36.5608 21.3542C36.2474 20.5848 35.8821 19.8315 35.4754 19.1049C34.6674 17.6502 33.7128 16.3022 32.6941 15.0982C30.6554 12.6835 28.3541 10.8582 26.1714 9.79018C23.9874 8.70085 21.9168 8.43418 20.4621 8.52085C19.0048 8.61018 18.1821 8.91152 18.1821 8.88885C18.1941 8.91152 18.8007 8.31686 20.2621 7.69953C21.6981 7.08887 24.1488 6.6142 27.0661 7.23153C29.9674 7.81953 33.2047 9.40086 36.0861 11.9329Z" fill="#382405"/>
<path d="M13.1261 45.4596L12.5074 44.9503C12.122 44.6209 11.7567 44.2796 11.4087 43.9329C10.022 42.5356 8.91803 41.0076 8.0767 39.4516C6.3767 36.3342 5.8247 33.1143 5.97537 30.5396C6.11803 27.9463 6.85404 26.0036 7.44871 24.7596C8.05404 23.5089 8.5167 22.9049 8.50736 22.9009C8.5167 22.9009 8.37672 23.6489 8.29272 24.9676C8.21538 26.2809 8.22738 28.1783 8.75538 30.3236C9.27538 32.4676 10.3447 34.8382 12.0794 37.0529C12.9434 38.1609 13.962 39.2383 15.1154 40.2063C15.402 40.4489 15.6981 40.6849 16.0007 40.9129L16.4287 41.2222C16.4541 41.2329 16.4621 41.2316 16.4634 41.2249C16.4807 41.2129 16.4754 41.1969 16.4754 41.1969C16.4754 41.1969 16.4821 41.2116 16.5047 41.2129C16.5074 41.2089 16.5074 41.2183 16.5167 41.2036L16.6354 40.9436L16.8687 40.4063C17.0221 40.0489 17.1647 39.6929 17.2954 39.3356C17.8247 37.9116 18.1954 36.4996 18.3941 35.1489C18.8007 32.4436 18.4327 29.9956 17.4767 28.1036C16.5354 26.2049 15.1114 24.8956 14.0554 24.0903C12.9847 23.2796 12.2914 22.9089 12.2994 22.9009C12.2981 22.9129 13.0754 22.9463 14.4554 23.3383C15.8074 23.7383 17.8701 24.5489 19.7674 26.5609C21.6727 28.5369 23.0501 31.7903 23.0994 35.3623C23.1447 37.1476 22.9087 39.0023 22.4074 40.8436C22.282 41.3049 22.1394 41.7649 21.982 42.2222L21.7341 42.9076L21.5954 43.2569L21.3381 43.8529C20.6261 45.4862 19.7207 46.9316 18.85 48.4809L18.822 48.5276C17.2247 47.7956 15.6994 47.2409 14.1941 46.2209C13.8221 45.9743 13.4594 45.7143 13.1261 45.4596Z" fill="#382405"/>
<path d="M49.6634 26.2476C49.7914 24.9422 49.3794 23.3142 48.5741 21.5942C48.1688 20.7396 47.6714 19.8609 47.0981 19.0169C46.8114 18.5996 46.5074 18.1862 46.1901 17.8049C46.0314 17.6156 45.8741 17.4356 45.7074 17.2622L45.1234 16.6609C41.8314 13.4036 38.2221 10.5689 35.5261 8.61424C32.8168 6.6569 30.8408 5.62357 30.8448 5.61157C30.8248 5.62623 37.5154 6.37289 37.9448 6.49822L44.0621 7.22221C46.3954 7.47954 48.9101 7.63556 51.6834 7.86756C56.7954 8.21823 61.8408 8.25957 65.0101 7.4769C66.6101 7.08757 67.6994 6.38355 68.2141 5.58888C68.7354 4.79688 68.7795 4.15957 68.7995 4.17556C68.7675 4.1809 69.1168 4.69423 69.0461 5.8449C69.0101 7.0009 68.0274 8.69424 66.2781 9.88357C64.5568 11.1089 62.2661 12.0236 59.7061 12.6089C57.1261 13.1862 54.3061 13.4982 51.1874 13.2502C50.5421 13.1969 49.9034 13.1222 49.2634 13.0396C49.4781 13.2569 49.6781 13.4662 49.8954 13.7102C50.1594 14.0102 50.4034 14.3196 50.6261 14.6262C51.0741 15.2436 51.4448 15.8689 51.7648 16.4969C52.4008 17.7542 52.8314 19.0275 53.0848 20.2849C53.5941 22.7809 53.3674 25.3196 52.2888 27.1729C51.2074 29.0649 49.4928 29.7662 48.4981 29.9515C47.4554 30.1529 46.8995 30.0569 46.8995 30.0742C46.8888 30.0649 47.4074 29.8036 48.1101 29.1942C48.8128 28.5902 49.5701 27.5636 49.6634 26.2476Z" fill="#382405"/>
<path d="M4.5647 74.433C5.39803 73.9543 6.15003 72.9157 6.59003 71.377C7.47269 68.329 7.54871 63.4476 7.30604 58.4916C7.13004 55.805 7.03002 53.3676 6.81802 51.105L6.21402 45.1703C6.09535 44.7503 5.4807 38.2623 5.46337 38.2783C5.4767 38.2757 6.49936 40.213 8.45936 42.8797C10.4127 45.533 13.258 49.093 16.5447 52.353L17.1527 52.933C17.3287 53.097 17.51 53.2543 17.7034 53.4117C18.0874 53.729 18.5074 54.033 18.934 54.3196C19.7914 54.8943 20.6847 55.3956 21.5607 55.8076C23.318 56.6276 24.9913 57.0623 26.3433 56.9703C27.7033 56.913 28.782 56.2023 29.422 55.537C30.0687 54.873 30.3514 54.3756 30.3594 54.3876C30.3447 54.3863 30.4274 54.9263 30.1954 55.929C29.9807 56.8876 29.2167 58.5316 27.238 59.5316C25.2967 60.5343 22.6687 60.693 20.102 60.141C18.8087 59.865 17.5047 59.421 16.2194 58.7743C15.578 58.4503 14.9407 58.0783 14.314 57.6316C14.002 57.4076 13.6874 57.165 13.3847 56.901C13.1394 56.6863 12.926 56.4876 12.7073 56.2743C12.7793 56.8943 12.8393 57.5156 12.8793 58.1383C13.062 61.1623 12.6727 63.8836 12.018 66.3663C11.35 68.8303 10.354 71.025 9.04735 72.661C7.77802 74.3236 6.00334 75.2356 4.80734 75.241C3.61934 75.2823 3.09536 74.933 3.09003 74.965C3.07536 74.9463 3.73537 74.917 4.5647 74.433Z" fill="#382405"/>
<path d="M0.139404 78.7048L0.139401 0.860825L77.7047 0.860821C76.3714 1.65549 54.3847 3.82483 29.3341 4.00484C23.3914 4.04883 19.338 3.94751 14.942 3.74751C6.07537 3.10618 9.01671 5.77284 9.01671 5.77284C10.1834 6.94084 11.962 8.29149 13.6154 9.15816C16.69 10.7062 20.4821 11.5542 22.6661 11.8942C23.7674 12.0688 24.638 11.9168 25.1807 11.5568C25.722 11.2022 25.9274 10.8182 25.9354 10.8342C25.9141 10.8275 25.9874 11.2368 25.6247 11.9315C25.2807 12.6408 24.1994 13.4355 22.7847 13.7195C21.374 14.0288 19.6994 13.9995 17.9487 13.6968C16.1874 13.3808 14.35 12.8422 12.4847 11.8768C12.0994 11.6755 11.7234 11.4635 11.35 11.2448C11.4234 11.4355 11.4887 11.6182 11.5567 11.8235C11.6354 12.0808 11.7021 12.3342 11.7554 12.5835C11.8594 13.0822 11.9154 13.5675 11.9407 14.0395C11.986 14.9862 11.8981 15.8888 11.7047 16.7342C11.3274 18.4142 10.4807 19.9302 9.29673 20.8008C8.09939 21.6928 6.84073 21.6822 6.17273 21.5355C5.46873 21.3888 5.15137 21.1862 5.14471 21.1968C5.14204 21.1888 5.53537 21.1608 6.14204 20.9662C6.74604 20.7742 7.50205 20.3342 7.92472 19.5422C8.36605 18.7662 8.56471 17.6488 8.54337 16.3715C8.52871 15.7355 8.46471 15.0622 8.34471 14.3888C8.28337 14.0542 7.22737 10.3355 6.61137 9.31815C4.77671 6.28482 2.8807 6.90751 3.10737 11.2088C3.16604 12.1302 3.62604 27.0008 3.64471 35.7155C3.71671 68.6515 0.139404 78.7048 0.139404 78.7048Z" fill="#382405"/>
<path d="M23.998 27.9634C24.0047 27.9634 23.9047 28.5754 23.898 29.7048C23.9047 30.8274 23.9873 32.5048 24.73 34.5261C25.4487 36.5341 27.0167 38.8248 29.358 40.5981C30.5153 41.4941 31.8287 42.2794 33.2327 42.9408L33.378 43.0114L33.6206 43.1168L34.1126 43.3274C34.442 43.4568 34.778 43.5981 35.1126 43.7221C35.7873 43.9781 36.4633 44.2061 37.1393 44.4234L41.2607 45.6688L41.4166 45.7141L40.5953 41.5834C40.4567 40.9101 40.2966 40.2274 40.122 39.5541C39.958 38.9034 39.7326 38.1608 39.5473 37.6101C39.0393 36.1781 38.374 34.7861 37.5086 33.5608C36.6473 32.3341 35.5873 31.3074 34.5086 30.5528C33.426 29.7901 32.346 29.2714 31.3567 28.8821C29.3727 28.1128 27.738 27.7968 26.6086 27.5834C25.478 27.3808 24.846 27.3168 24.846 27.3141L26.342 28.2381C27.2913 28.8328 28.6873 29.6794 30.19 30.8354C31.702 31.9968 33.1887 33.4888 34.102 35.4781C34.5753 36.4728 34.946 37.6061 35.2633 38.8501C35.2487 39.0274 35.174 38.9141 35.1806 38.9288L35.1793 38.9288C35.1793 38.9288 35.1913 38.9434 35.1913 38.9634C35.19 38.9701 35.1873 38.9808 35.1793 38.9888C35.174 38.9968 35.1687 38.9994 35.1607 39.0048L35.1486 39.0114C35.1446 39.0114 35.146 39.0141 35.1406 39.0128L35.0367 38.9741C33.7887 38.5114 32.63 38.0048 31.5886 37.4434C29.4993 36.3341 27.9087 34.9448 26.8047 33.4808C25.6967 32.0234 25.0406 30.5808 24.6166 29.5728C24.198 28.5568 24.0033 27.9608 23.998 27.9634Z" fill="#382405"/>
</svg>
