<svg width="664" height="134" viewBox="0 0 664 134" fill="none" xmlns="http://www.w3.org/2000/svg">
<path d="M190.451 92.9812C190.472 92.9898 190.396 91.9966 190.611 90.4011C190.817 88.8142 191.487 86.6743 193.082 85.0266C194.639 83.3558 197.06 82.047 200.099 81.0914C201.613 80.6078 203.272 80.2226 205.014 79.9157L206.34 79.7014L206.673 79.6522C206.723 79.6551 206.693 79.6638 206.705 79.6667L206.717 79.6985C206.731 79.7362 206.717 79.7593 206.717 79.7593L206.749 79.7275C206.804 79.6811 206.934 79.6319 207.099 79.7825C207.166 81.4968 207.181 83.1039 207.065 84.4562C206.87 87.1521 206.041 89.1704 204.423 90.9281C202.842 92.6511 200.963 93.8557 199.682 94.6636L197.602 95.9001C197.605 95.8943 198.461 96.0796 200.059 96.1664C201.656 96.2186 204.034 96.2765 207.068 95.1993C208.573 94.6491 210.249 93.7341 211.768 92.2804C213.294 90.8412 214.558 88.8866 215.405 86.8075C216.266 84.7139 216.759 82.5682 217.078 80.3848C217.475 76.6146 217.501 72.6098 217.582 68.4429L213.253 68.4487C211.197 68.4487 209.071 68.5442 206.946 68.8917C206.415 68.9699 205.89 69.0713 205.368 69.1726L204.611 69.3348L204.162 69.4477C203.565 69.6012 202.979 69.7778 202.402 69.9631C200.096 70.7247 197.942 71.7382 196.016 72.9892C192.171 75.4389 189.219 79.047 188.25 82.655C187.235 86.2891 188.169 89.1443 188.955 90.6993C189.779 92.3007 190.469 92.9667 190.451 92.9812Z" fill="#382405"/>
<path d="M219.395 118.675C220.328 118.426 221.265 118.139 222.21 117.801L223.628 117.262L224.342 116.969L224.698 116.813L225.267 116.529C226.897 115.707 228.549 114.757 230.081 113.694C231.597 112.629 233.082 111.531 234.657 110.359L232.702 107.249C231.652 105.563 230.516 103.875 229.196 102.306C228.863 101.92 228.535 101.53 228.184 101.159C227.836 100.771 227.468 100.397 227.302 100.241C226.865 99.824 226.415 99.4186 225.954 99.0306C224.098 97.4871 222.013 96.213 219.801 95.3762C217.597 94.5335 215.271 94.1571 213.14 94.2642C211.002 94.3656 209.109 94.9331 207.586 95.6715C204.527 97.1918 202.894 99.1724 201.891 100.51C200.905 101.88 200.54 102.723 200.528 102.717C200.531 102.728 201.386 102.355 202.894 101.86C204.385 101.379 206.58 100.785 208.929 100.875C211.301 100.956 213.563 101.802 215.689 103.461C216.762 104.289 217.826 105.317 218.881 106.513L219.673 107.44C219.856 107.66 219.838 107.66 219.821 107.66L219.801 107.686C219.772 107.715 219.748 107.715 219.748 107.715L219.78 107.721C219.844 107.738 219.96 107.813 219.937 108.022C219.922 108.045 219.969 108.03 219.893 108.088L219.632 108.265L219.113 108.624L218.078 109.319L216.054 110.631C213.392 112.296 210.921 113.622 208.793 114.352C206.664 115.102 204.849 115.18 203.544 114.76C202.239 114.352 201.56 113.72 201.555 113.752C201.592 113.732 201.613 114.627 202.596 116.008C203.547 117.404 205.916 118.944 208.999 119.416C212.07 119.935 215.683 119.651 219.395 118.675Z" fill="#382405"/>
<path d="M198.615 127.318C198.542 127.75 198.475 128.184 198.38 128.616C198.351 128.749 198.272 128.827 198.206 128.92C198.22 129.169 198.174 129.424 197.985 129.646C197.756 129.916 197.449 129.965 197.115 129.979C197.049 129.982 197.002 129.956 196.941 129.951C196.814 130.014 196.544 130 195.79 129.638C193.955 128.873 192.534 128.23 191.496 127.344C190.437 126.479 189.814 125.199 189.524 124.188C189.237 123.177 189.167 122.509 189.15 122.514C189.167 122.529 188.639 122.899 187.932 123.878C187.268 124.837 186.369 126.632 186.627 129.203C186.853 131.766 188.381 134.54 190.394 136.689C191.058 137.56 193.299 139.281 195.445 140.618C197.614 141.988 200.012 143.456 202.469 144.849L203.054 143.714C204.226 141.319 205.377 139.194 206.14 136.689C206.499 135.444 206.772 134.175 206.943 132.927C207.018 132.308 207.085 131.679 207.12 131.091C207.14 130.567 207.117 130.284 207.097 129.872C206.92 126.835 206.033 124.061 204.696 122.019C203.37 119.955 201.662 118.788 200.459 118.371C199.253 117.93 198.571 117.994 198.577 117.971C198.56 117.977 198.957 118.565 199.293 119.581C199.644 120.589 199.775 122.01 199.543 123.577C199.389 124.718 199.055 125.978 198.615 127.318Z" fill="#382405"/>
<path d="M249.153 54.9343C250.391 57.0482 252.047 58.2875 253.23 58.7509C254.422 59.2431 255.103 59.2084 255.098 59.2315C255.112 59.2229 254.741 58.6205 254.448 57.5926C254.141 56.5704 254.068 55.1457 254.364 53.5878C254.645 52.0212 255.263 50.2375 256.057 48.335C256.15 48.1265 256.272 47.7877 256.353 47.6834C256.417 47.64 256.478 47.6342 256.533 47.6197C256.643 47.5994 256.733 47.611 256.803 47.6371C256.948 47.6892 257 47.8079 257 47.8079L256.997 47.7992C256.982 47.7558 257.04 47.1709 257.139 47.0377C257.272 46.9392 257.139 47.0377 258.366 47.6892C260.169 48.5319 261.558 49.2297 262.562 50.1593C263.583 51.0685 264.151 52.3745 264.4 53.3967C264.647 54.416 264.687 55.0878 264.702 55.0849C264.687 55.0704 265.233 54.72 265.975 53.7673C266.68 52.8378 267.657 51.0859 267.5 48.5029C267.384 45.9373 265.972 43.0966 264.052 40.8698C263.426 39.9721 261.257 38.1594 259.169 36.7347C257.058 35.2724 254.721 33.7087 252.325 32.2145L251.693 33.3294C250.423 35.672 249.182 37.7453 248.321 40.2125C247.906 41.4461 247.581 42.7028 247.358 43.9393C247.256 44.5589 247.164 45.1815 247.103 45.7636C247.062 46.2877 247.074 46.5744 247.077 46.9856C247.126 50.0261 247.903 52.8378 249.153 54.9343Z" fill="#382405"/>
<path d="M160.249 86.3152C161.397 88.1598 162.818 89.5845 164.262 90.5025C165.704 91.432 167.122 91.8461 168.247 91.9764C170.514 92.208 171.599 91.652 171.602 91.71C171.631 91.6752 170.387 91.4754 168.815 90.3982C167.238 89.3442 165.701 87.1898 165.205 84.2245C164.947 82.7217 164.918 81.1638 165.179 79.3742C165.399 77.4775 165.788 75.549 166.397 73.6291C167.006 71.7151 167.826 69.8299 168.882 67.9969L169.076 67.6611C169.114 67.6032 169.105 67.6437 169.123 67.6321L169.172 67.635C169.201 67.6408 169.224 67.6524 169.238 67.6669C169.27 67.6958 169.273 67.7248 169.273 67.7248C169.273 67.7248 169.27 67.6929 169.302 67.6611C169.314 67.6466 169.334 67.635 169.366 67.6292L169.389 67.6176C169.378 67.5974 169.569 67.8001 169.647 67.8811L170.271 68.5384C171.921 70.2788 173.449 71.9902 174.798 73.6581C177.497 76.9911 179.455 80.1821 180.003 82.8983C180.644 85.5884 179.49 88.0121 178.214 89.4976C176.955 90.9947 175.96 91.6926 175.989 91.71C175.984 91.6752 177.146 91.6665 179.194 90.8586C180.209 90.4387 181.461 89.767 182.674 88.516C183.892 87.2824 184.953 85.3712 185.373 83.1271C186.226 78.5808 184.819 73.4988 182.479 68.8367C181.293 66.4854 179.843 64.1775 178.176 61.9507L177.538 61.1196L177.155 60.6419L176.526 59.8976C175.682 58.9044 174.795 57.9402 173.893 56.9817C172.072 55.0966 170.21 53.2809 168.29 51.3958L168.212 51.4827C166.521 53.4634 164.903 55.2732 163.355 57.2539C162.589 58.2558 161.861 59.3185 161.203 60.4333C160.884 60.9951 160.556 61.5511 160.272 62.1303L159.857 62.9584L159.617 63.4941C158.402 66.3204 157.709 69.2392 157.462 72.0017C157.21 74.7729 157.398 77.3907 157.83 79.7159C158.219 82.1599 159.109 84.5054 160.249 86.3152Z" fill="#382405"/>
<path d="M120.228 89.3791L120.564 90.3984L120.819 91.0643C121.153 91.8867 121.518 92.683 121.907 93.4417C123.487 96.4851 125.477 99.0304 127.62 101.159C131.911 105.413 136.873 107.984 141.324 108.96C145.802 109.976 149.583 109.226 151.761 108.221C153.976 107.217 154.846 106.235 154.867 106.273C154.87 106.235 153.591 106.626 151.416 106.58C149.253 106.542 146.271 105.844 143.253 103.942C140.225 102.074 137.111 99.0739 134.533 95.2805C133.251 93.3867 132.103 91.296 131.256 89.1184C131.047 88.574 130.856 88.0267 130.682 87.4766L130.575 87.1088C130.566 87.0682 130.58 87.0885 130.583 87.0769L130.612 87.0567C130.647 87.0393 130.676 87.0567 130.676 87.0567H130.673C130.667 87.048 130.644 87.0219 130.65 86.9785L130.662 86.9408C130.693 86.9293 130.546 86.9119 131.004 86.9119L132.906 86.9206C135.446 86.9756 137.949 87.1986 140.309 87.52C145.036 88.1773 149.224 89.2893 152.323 90.8617C155.461 92.3935 157.349 94.5595 158.109 96.5054C158.889 98.4484 158.816 99.8007 158.866 99.7775C158.802 99.7659 159.57 98.7004 159.744 96.2593C159.817 95.0489 159.649 93.4736 158.976 91.7796C158.312 90.0827 157.152 88.3105 155.592 86.6802C152.463 83.3994 147.875 80.6687 142.49 78.7981C139.79 77.8686 136.879 77.1389 133.756 76.7248C132.973 76.6234 132.178 76.5337 131.366 76.4786C131.099 76.4526 130.229 76.412 129.531 76.4149C128.809 76.4005 128.092 76.4236 127.37 76.4468C124.438 76.5684 121.927 77.2402 119.111 77.7528L119.106 78.9342C119.12 81.7112 118.958 84.3724 119.662 87.2681C119.816 87.9775 120.01 88.6841 120.228 89.3791Z" fill="#382405"/>
<path d="M274.449 89.0896C277.151 90.2189 279.477 91.5625 281.255 93.0278C284.877 95.9177 285.981 99.5373 286.005 99.4736C285.987 99.4678 286.39 98.6889 286.64 97.0789C286.886 95.4891 286.866 92.9525 285.735 90.0539C284.639 87.1668 282.467 84.0395 279.347 81.4536C277.781 80.1592 276.012 78.9951 273.985 78.0251C270.609 76.5077 266.723 75.5782 263.418 75.6593C261.353 75.7114 259.198 75.7838 257.218 75.9112C257.798 79.3224 258.305 82.4613 259.079 85.5279C259.48 87.0568 259.923 88.5278 260.416 89.9091C260.689 90.6996 260.814 90.882 261.008 91.3222L261.568 92.4573C263.093 95.4254 264.969 97.936 266.958 99.6908C268.927 101.475 271.056 102.349 272.483 102.503C273.93 102.659 274.628 102.364 274.628 102.393C274.646 102.378 273.93 102.048 273.089 101.194C272.251 100.322 271.421 98.909 270.833 96.9746C270.229 95.0432 269.797 92.6311 269.452 89.8714L269.325 88.8261C269.299 88.5278 269.203 87.9574 269.272 87.9863C269.351 87.8386 269.441 87.7402 269.531 87.6823C269.702 87.5665 269.873 87.6128 269.983 87.6881C270.076 87.7489 270.113 87.8068 270.108 87.8039C270.102 87.8039 270.076 87.6997 270.183 87.5838C271.647 88.0095 273.103 88.5307 274.449 89.0896Z" fill="#382405"/>
<path d="M252.372 106.837C252.584 106.634 252.822 106.461 253.045 106.27C253.506 105.911 253.973 105.557 254.452 105.239C256.363 103.947 258.41 103.018 260.35 102.517C264.25 101.474 267.51 102.143 267.478 102.071C267.463 102.085 267.083 101.405 266.08 100.4C265.082 99.401 263.383 98.0661 260.799 97.1626C258.242 96.2563 254.794 95.9001 251.128 96.8007C250.215 97.0179 249.293 97.3248 248.376 97.7012C247.921 97.9039 247.457 98.0979 247.008 98.3412C246.773 98.4657 246.573 98.5613 246.309 98.7147L245.36 99.3402C242.724 101.078 240.445 103.64 239.068 106.206C238.238 107.665 237.841 109.073 237.412 110.451L236.783 112.539C236.562 113.271 236.368 113.958 236.258 114.52C238.853 115.145 241.217 115.672 243.49 116.072C245.784 116.442 248.023 116.628 250.064 116.506C250.572 116.483 251.067 116.437 251.546 116.379C251.787 116.353 252.019 116.321 252.248 116.28L252.744 116.167C253.393 116.002 254.011 115.817 254.599 115.594C255.777 115.159 256.818 114.598 257.676 114.01C259.416 112.811 260.396 111.485 260.93 110.567C261.463 109.64 261.617 109.093 261.629 109.096C261.646 109.029 259.399 110.13 256.296 109.988C255.522 109.947 254.704 109.849 253.843 109.663C253.413 109.579 252.967 109.464 252.517 109.345L252.187 109.246L252.042 109.145C251.952 109.073 251.874 109.003 251.804 108.937C251.233 108.366 251.36 107.836 251.691 107.602C251.961 107.405 252.184 107.376 252.161 107.39C252.169 107.387 252.03 107.382 252.027 107.202L252.053 107.112L252.372 106.837Z" fill="#382405"/>
<path d="M285.654 53.0032C284.285 55.5514 283.557 58.3342 283.192 60.7695C282.827 63.2511 282.786 65.5619 282.879 67.7105C283.088 72.0106 283.83 75.6679 284.546 78.6998C286.054 84.7228 287.33 88.4062 287.304 88.438C287.33 88.4699 288.745 84.6736 289.928 78.6042L291.938 68.3649C292.724 64.6845 293.626 60.8911 295.206 57.9578C299.054 50.5447 303.103 44.3942 307.502 41.458C309.674 39.9406 311.909 39.1935 313.562 38.8518C315.215 38.5102 316.233 38.4754 316.23 38.4609C316.222 38.4754 315.439 37.8615 313.719 37.1781C312.02 36.515 309.215 35.8345 305.669 36.402C302.143 36.932 298.121 38.7881 294.617 41.7186C291.088 44.6432 288 48.5148 285.654 53.0032Z" fill="#382405"/>
<path d="M274.751 76.0443C277.627 79.774 280.545 82.108 282.627 83.5442C284.723 84.9776 286.014 85.5046 286.005 85.5162C286.083 85.5191 282.305 81.164 279.446 73.4208C278.06 69.584 277.033 64.9074 277.509 60.1671C277.625 59.0291 277.842 57.7173 278.1 56.4172C278.358 55.117 278.695 53.8139 279.089 52.5109C279.878 49.9047 280.933 47.2928 282.264 44.6548C284.906 39.3788 288.386 34.4677 291.515 29.5189C294.635 24.6107 297.39 19.4302 298.159 14.4728C298.994 9.49793 297.692 5.55976 296.543 3.32427C295.383 1.02797 294.418 0.02027 294.447 0C294.412 0 294.783 1.37257 294.919 3.76443C295.07 6.1476 294.792 9.5124 293.011 12.9062C291.286 16.3376 288.113 19.8559 284.274 24.0431C280.481 28.2332 275.977 33.237 272.646 39.8334C270.987 43.1143 269.775 46.6065 269.082 50.0727C268.734 51.8014 268.507 53.5244 268.403 55.2097C268.307 56.8892 268.29 58.5195 268.429 60.2511C269.018 67.0676 271.926 72.3494 274.751 76.0443Z" fill="#382405"/>
<path d="M223.716 93.213C226.842 96.4649 230.867 97.6694 234.335 97.6897C237.835 97.7129 241.089 96.5546 243.386 94.5131C245.732 92.4861 246.689 89.628 246.66 87.4707C246.671 85.2671 246.045 83.6137 245.48 82.3743C244.279 79.91 243.229 78.8907 243.264 78.8647C243.226 78.8647 243.696 80.301 243.85 82.7913C243.908 84.0162 243.838 85.5306 243.299 86.9408C242.768 88.3568 241.733 89.5267 240.271 90.1348C238.824 90.7574 236.902 90.8761 235.043 90.3751C233.181 89.8974 231.473 88.7536 230.644 87.3462C229.794 85.9679 229.6 84.2971 230.035 82.0529C230.267 80.9438 230.673 79.7363 231.212 78.4912C231.479 77.8657 231.783 77.2431 232.137 76.5684C232.479 75.8937 232.743 75.4333 233.086 74.9294C235.704 70.9565 240.701 68.6689 245.775 68.0608C250.867 67.4093 255.899 68.2403 259.99 69.5231C264.102 70.8175 267.362 72.5376 269.566 73.8377C271.77 75.1466 272.956 76.0153 272.962 76.0008C272.947 76.0095 272.289 74.7094 270.688 72.5868C269.082 70.4787 266.483 67.5106 262.38 64.7075C258.297 61.9566 252.602 59.3273 245.517 58.9943C241.997 58.8466 238.137 59.2983 234.315 60.8331C230.513 62.3417 226.741 65.0695 224.163 68.9179C223.522 69.8561 222.945 70.9189 222.527 71.7934C222.104 72.6592 221.686 73.5916 221.329 74.5472C220.61 76.4583 220.062 78.4911 219.833 80.6456C219.616 82.7971 219.717 85.0847 220.358 87.3057C220.99 89.5209 222.17 91.6116 223.716 93.213Z" fill="#382405"/>
<path d="M495.595 86.8075C496.444 88.8866 497.709 90.8412 499.231 92.2804C500.751 93.7341 502.43 94.6491 503.932 95.1993C506.968 96.2765 509.346 96.2186 510.941 96.1664C512.539 96.0796 513.394 95.8943 513.397 95.9001L511.318 94.6636C510.039 93.8557 508.157 92.6511 506.579 90.9281C504.958 89.1704 504.129 87.1521 503.938 84.4562C503.819 83.1039 503.833 81.4968 503.9 79.7825C504.065 79.6319 504.196 79.6811 504.248 79.7275L504.286 79.7593C504.286 79.7593 504.268 79.7362 504.283 79.6985L504.294 79.6667C504.306 79.6638 504.277 79.6551 504.326 79.6522L504.663 79.7014L505.985 79.9157C507.728 80.2226 509.389 80.6078 510.9 81.0914C513.939 82.047 516.358 83.3558 517.921 85.0266C519.513 86.6743 520.186 88.8142 520.389 90.4011C520.603 91.9966 520.528 92.9898 520.548 92.9812C520.531 92.9667 521.221 92.3007 522.044 90.6993C522.833 89.1443 523.764 86.2891 522.749 82.655C521.781 79.047 518.831 75.4389 514.983 72.9892C513.058 71.7382 510.903 70.7247 508.598 69.9631C508.021 69.7778 507.435 69.6012 506.838 69.4477L506.391 69.3348L505.631 69.1726C505.109 69.0713 504.584 68.9699 504.054 68.8917C501.928 68.5442 499.803 68.4487 497.747 68.4487L493.417 68.4429C493.495 72.6098 493.521 76.6146 493.922 80.3848C494.241 82.5682 494.734 84.7139 495.595 86.8075Z" fill="#382405"/>
<path d="M492.118 106.513C493.174 105.317 494.238 104.289 495.311 103.461C497.436 101.802 499.701 100.956 502.07 100.875C504.419 100.785 506.617 101.379 508.105 101.86C509.61 102.355 510.468 102.728 510.471 102.717C510.463 102.723 510.094 101.88 509.108 100.51C508.105 99.1724 506.472 97.1918 503.413 95.6715C501.894 94.9331 499.997 94.3656 497.86 94.2642C495.728 94.1571 493.403 94.5335 491.199 95.3762C488.989 96.213 486.901 97.4871 485.048 99.0306C484.584 99.4186 484.135 99.824 483.697 100.241C483.532 100.397 483.163 100.771 482.815 101.159C482.464 101.53 482.137 101.92 481.803 102.306C480.481 103.875 479.347 105.563 478.297 107.249L476.343 110.359C477.915 111.531 479.399 112.629 480.919 113.694C482.45 114.757 484.103 115.707 485.733 116.529L486.301 116.813L486.658 116.969L487.371 117.262L488.789 117.801C489.734 118.139 490.671 118.426 491.605 118.675C495.317 119.651 498.933 119.935 502.001 119.416C505.083 118.944 507.453 117.404 508.404 116.008C509.39 114.627 509.407 113.732 509.445 113.752C509.442 113.72 508.76 114.352 507.456 114.76C506.151 115.18 504.332 115.102 502.21 114.352C500.078 113.622 497.61 112.296 494.948 110.631L492.921 109.319L491.886 108.624L491.367 108.265L491.103 108.088C491.031 108.03 491.077 108.045 491.063 108.022C491.039 107.813 491.155 107.738 491.219 107.721L491.254 107.715C491.254 107.715 491.228 107.715 491.199 107.686L491.181 107.66C491.161 107.66 491.147 107.66 491.326 107.44L492.118 106.513Z" fill="#382405"/>
<path d="M512.423 117.971C512.429 117.994 511.747 117.93 510.541 118.371C509.335 118.788 507.632 119.955 506.304 122.019C504.97 124.061 504.077 126.835 503.903 129.872C503.883 130.284 503.86 130.567 503.88 131.091C503.915 131.679 503.981 132.308 504.057 132.927C504.228 134.175 504.501 135.444 504.863 136.689C505.623 139.194 506.777 141.319 507.946 143.714L508.531 144.849C510.987 143.456 513.386 141.988 515.555 140.618C517.701 139.281 519.942 137.56 520.606 136.689C522.619 134.54 524.147 131.766 524.373 129.203C524.631 126.632 523.732 124.837 523.068 123.878C522.364 122.899 521.833 122.529 521.85 122.514C521.833 122.509 521.766 123.177 521.479 124.188C521.183 125.199 520.563 126.479 519.501 127.344C518.466 128.23 517.045 128.873 515.21 129.638C514.459 130 514.189 130.014 514.058 129.951C513.998 129.956 513.951 129.982 513.884 129.979C513.551 129.965 513.244 129.916 513.014 129.646C512.829 129.424 512.78 129.169 512.797 128.92C512.73 128.827 512.652 128.749 512.62 128.616C512.524 128.184 512.458 127.75 512.385 127.318C511.944 125.978 511.614 124.718 511.454 123.577C511.225 122.01 511.356 120.589 511.707 119.581C512.043 118.565 512.44 117.977 512.423 117.971Z" fill="#382405"/>
<path d="M446.297 55.0849C446.312 55.0878 446.352 54.416 446.599 53.3967C446.848 52.3745 447.416 51.0685 448.437 50.1593C449.441 49.2297 450.833 48.5319 452.633 47.6892C453.86 47.0377 453.729 46.9392 453.86 47.0377C453.959 47.1709 454.017 47.7558 454.002 47.7992V47.8079C454.002 47.8079 454.051 47.6892 454.193 47.6371C454.266 47.611 454.356 47.5994 454.466 47.6197C454.524 47.6342 454.585 47.64 454.646 47.6834C454.73 47.7877 454.849 48.1265 454.942 48.335C455.736 50.2375 456.354 52.0212 456.635 53.5878C456.934 55.1457 456.858 56.5704 456.551 57.5926C456.258 58.6205 455.884 59.2229 455.904 59.2315C455.896 59.2084 456.577 59.2431 457.766 58.7509C458.952 58.2875 460.608 57.0482 461.846 54.9343C463.096 52.8378 463.873 50.0261 463.922 46.9856C463.925 46.5744 463.937 46.2877 463.896 45.7636C463.833 45.1815 463.746 44.5589 463.644 43.9393C463.418 42.7028 463.096 41.4461 462.681 40.2125C461.817 37.7453 460.576 35.672 459.306 33.3294L458.677 32.2145C456.278 33.7087 453.941 35.2724 451.83 36.7347C449.742 38.1594 447.576 39.9721 446.947 40.8698C445.027 43.0966 443.618 45.9373 443.499 48.5029C443.345 51.0859 444.319 52.8378 445.024 53.7673C445.769 54.72 446.312 55.0704 446.297 55.0849Z" fill="#382405"/>
<path d="M528.324 88.516C529.539 89.767 530.794 90.4387 531.803 90.8586C533.854 91.6665 535.017 91.6752 535.011 91.71C535.04 91.6926 534.045 90.9947 532.786 89.4976C531.511 88.0121 530.356 85.5884 530.997 82.8983C531.545 80.1821 533.503 76.9911 536.2 73.6581C537.551 71.9902 539.079 70.2788 540.729 68.5384L541.356 67.8811C541.431 67.8001 541.622 67.5974 541.611 67.6176L541.637 67.6292C541.666 67.635 541.686 67.6466 541.698 67.6611C541.73 67.6929 541.73 67.7248 541.73 67.7248C541.73 67.7248 541.73 67.6958 541.762 67.6669C541.779 67.6524 541.799 67.6408 541.825 67.635L541.88 67.6321C541.895 67.6437 541.886 67.6032 541.924 67.6611L542.118 67.9969C543.174 69.8299 543.995 71.7151 544.606 73.6291C545.212 75.549 545.601 77.4775 545.821 79.3742C546.082 81.1638 546.053 82.7217 545.795 84.2245C545.299 87.1898 543.763 89.3442 542.185 90.3982C540.616 91.4754 539.369 91.6752 539.401 91.71C539.404 91.652 540.486 92.208 542.756 91.9764C543.879 91.8461 545.297 91.432 546.738 90.5025C548.182 89.5845 549.603 88.1598 550.751 86.3152C551.891 84.5054 552.781 82.1599 553.173 79.7159C553.602 77.3907 553.79 74.7729 553.541 72.0017C553.291 69.2392 552.598 66.3204 551.38 63.4941L551.143 62.9584L550.728 62.1303C550.447 61.5511 550.116 60.9951 549.794 60.4333C549.139 59.3185 548.411 58.2558 547.645 57.2539C546.1 55.2732 544.479 53.4634 542.791 51.4827L542.71 51.3958C540.79 53.2809 538.928 55.0966 537.107 56.9817C536.206 57.9402 535.318 58.9044 534.474 59.8976L533.845 60.6419L533.462 61.1196L532.824 61.9507C531.154 64.1775 529.707 66.4854 528.524 68.8367C526.181 73.4988 524.774 78.5808 525.627 83.1271C526.047 85.3712 527.112 87.2824 528.324 88.516Z" fill="#382405"/>
<path d="M551.255 96.2593C551.429 98.7004 552.198 99.7659 552.137 99.7775C552.183 99.8007 552.108 98.4484 552.891 96.5054C553.651 94.5595 555.541 92.3935 558.676 90.8617C561.776 89.2893 565.963 88.1773 570.69 87.52C573.053 87.1986 575.553 86.9756 578.094 86.9206L579.999 86.9119C580.454 86.9119 580.306 86.9293 580.338 86.9408L580.349 86.9785C580.358 87.0219 580.332 87.048 580.326 87.0567H580.323C580.323 87.0567 580.35 87.0393 580.387 87.0567L580.416 87.0769C580.422 87.0885 580.434 87.0682 580.428 87.1088L580.318 87.4766C580.147 88.0267 579.955 88.574 579.746 89.1184C578.897 91.296 577.748 93.3867 576.467 95.2805C573.892 99.0739 570.774 102.074 567.75 103.942C564.728 105.844 561.747 106.542 559.581 106.58C557.409 106.626 556.13 106.235 556.133 106.273C556.153 106.235 557.02 107.217 559.239 108.221C561.416 109.226 565.198 109.976 569.675 108.96C574.126 107.984 579.088 105.413 583.38 101.159C585.523 99.0304 587.512 96.4851 589.093 93.4417C589.484 92.683 589.847 91.8867 590.18 91.0643L590.435 90.3984L590.772 89.3791C590.992 88.6841 591.183 87.9775 591.337 87.2681C592.042 84.3724 591.879 81.7112 591.894 78.9342L591.888 77.7528C589.075 77.2402 586.561 76.5684 583.629 76.4468C582.907 76.4236 582.188 76.4005 581.469 76.4149C580.773 76.412 579.9 76.4526 579.633 76.4786C578.821 76.5337 578.027 76.6234 577.244 76.7248C574.121 77.1389 571.212 77.8686 568.509 78.7981C563.127 80.6687 558.537 83.3994 555.408 86.6802C553.848 88.3105 552.688 90.0827 552.024 91.7796C551.354 93.4736 551.183 95.0489 551.255 96.2593Z" fill="#382405"/>
<path d="M610.673 152.23C610.346 153.171 609.963 154.072 609.502 154.909C609.076 155.682 608.615 156.423 608.075 157.092C607.762 157.48 607.417 157.857 607.063 158.219C606.448 158.852 605.793 159.435 605.143 159.884C604.096 160.604 602.925 161.103 601.727 161.386C599.318 161.957 596.847 161.708 594.739 160.97C592.277 160.127 590.659 158.378 589.58 156.467C590.215 157.115 590.978 157.738 591.903 158.306C593.782 159.446 597.656 159.511 600.205 158.731C601.466 158.364 602.687 157.72 603.769 156.907C604.859 156.111 605.903 155.129 606.776 153.921C607.344 153.171 607.794 152.308 608.148 151.388C608.913 149.392 609.168 147.099 608.783 144.875C608.264 141.615 606.756 138.51 604.688 135.704C604.505 135.467 604.294 135.232 604.105 134.998C602.093 132.49 599.634 130.069 596.168 128.572C592.712 126.962 588.568 126.163 584.447 126.282C576.101 126.513 567.866 129.812 560.048 134.204C559.056 134.766 558.067 135.348 557.078 135.948C557.368 135.024 557.638 134.092 557.844 133.15C557.922 132.797 557.974 132.45 558.044 132.096C558.218 132.001 558.395 131.888 558.572 131.792C563.113 129.34 567.666 127.049 572.062 125.173C573.155 124.712 574.245 124.275 575.263 123.925C576.232 123.583 577.267 123.314 578.317 123.085C580.41 122.627 582.562 122.413 584.699 122.364C588.974 122.291 593.202 122.926 596.998 124.182C598.894 124.814 600.683 125.604 602.284 126.554C603.07 127.017 603.83 127.556 604.592 128.144C605.349 128.682 605.897 129.233 606.506 129.864C608.832 132.403 610.343 135.765 611.152 139.107C611.456 140.39 611.633 141.675 611.741 142.952C612.016 146.239 611.648 149.43 610.673 152.23ZM387.381 109.527C388.872 108.401 390.04 107.211 390.965 106.159C393.772 102.789 394.721 100.614 394.773 100.646C394.741 100.6 393.198 102.467 389.875 104.992C388.21 106.203 386.036 107.584 383.411 108.279C380.819 108.994 377.768 108.658 375.848 106.672C373.882 104.761 373.195 101.344 374.427 98.3729C375.593 95.3671 378.568 92.8653 382.498 91.3363C383.962 90.7746 386.326 90.4502 388.669 90.3141C391.049 90.178 393.569 90.2099 396.116 90.3749C398.662 90.5458 401.251 90.8556 403.774 91.3392L405.644 91.7417L406.607 91.9821C407.335 92.179 408.005 92.3614 408.71 92.6047C415.626 95.5438 418.007 100.493 418.787 102.942C408.62 102.766 397.713 104.813 387.381 109.527ZM375.106 116.654C374.274 117.253 373.45 117.884 372.638 118.533C372.563 117.847 372.516 117.155 372.395 116.486C371.594 111.928 369.57 108.045 367.334 105.473C365.099 102.858 362.811 101.431 361.23 100.591C359.632 99.7628 358.69 99.4877 358.696 99.4704C358.681 99.4791 359.235 100.31 360.059 101.799C360.876 103.287 361.941 105.45 362.631 108.082C363.341 110.72 363.614 113.767 363.335 117.123C363.069 120.485 362.28 124.194 361.259 128.245C361.01 129.224 360.755 130.2 360.499 131.17C359.226 132.919 358.026 134.737 356.924 136.651C356.329 137.671 355.886 138.788 355.584 139.97C355.196 138.814 354.691 137.7 354.079 136.651C352.974 134.737 351.774 132.919 350.501 131.17C350.245 130.2 349.99 129.224 349.741 128.245C348.72 124.194 347.931 120.485 347.665 117.123C347.383 113.767 347.659 110.72 348.369 108.082C349.059 105.45 350.124 103.287 350.939 101.799C351.765 100.31 352.316 99.4791 352.304 99.4704C352.31 99.4877 351.368 99.7628 349.77 100.591C348.189 101.431 345.901 102.858 343.666 105.473C341.43 108.045 339.406 111.928 338.605 116.486C338.484 117.155 338.434 117.847 338.362 118.533C337.55 117.884 336.726 117.253 335.894 116.654C333.652 115.029 331.344 113.578 328.998 112.261C329.888 112.495 330.848 112.649 331.878 112.66C333.963 112.707 336.323 112.116 338.35 110.709C342.488 107.961 344.771 102.071 343.384 96.4096C342.744 93.5834 341.253 90.9077 339.272 88.7012C337.292 86.4831 334.847 84.7138 332.229 83.3557C329.074 81.7978 326.226 81.3056 323.32 80.8451C320.426 80.4397 317.515 80.2718 314.545 80.2863C311.573 80.3037 308.551 80.5064 305.443 80.9842C304.663 81.1058 303.88 81.2448 303.091 81.404L301.948 81.653C301.977 81.6415 301.948 81.6444 301.954 81.6386C301.937 81.6241 301.937 81.6096 301.942 81.6009L301.951 81.5835C301.951 81.5835 301.916 81.6212 301.882 81.5923C301.873 81.5865 301.864 81.5778 301.858 81.5604L301.85 81.5343L302.203 80.8075C302.74 79.7593 303.358 78.7545 304.039 77.8018C306.768 73.9823 310.578 71.1677 314.696 69.659C315.723 69.271 316.775 68.9785 317.837 68.7469C318.883 68.521 320.038 68.353 320.966 68.2864C322.932 68.1561 324.93 68.411 326.818 68.9612C330.611 70.0702 333.899 72.3231 336.361 74.9466C341.36 80.2718 343.054 86.6742 343.706 90.9512C344.333 95.3237 344.135 97.8662 344.185 97.8546C344.133 97.8459 345.005 95.483 345.388 90.8933C345.533 88.9329 345.548 86.5497 345.168 83.8248C346.635 87.8528 348.546 90.9135 350.245 92.8044C351.156 93.8237 351.951 94.5274 352.565 95.011C353.076 95.6075 353.369 95.8942 353.357 95.9C353.369 95.9029 353.311 95.7581 353.215 95.4975C353.609 95.7697 353.83 95.8913 353.821 95.9C353.841 95.8942 353.389 95.3382 352.777 94.2378C351.956 91.7475 350.538 86.5613 350.335 79.4755C350.167 74.4167 350.544 68.3936 351.907 62.078C352.591 58.9304 353.528 55.7075 354.824 52.6728C355.219 51.7635 355.407 51.3784 355.5 51.2278C355.593 51.3784 355.781 51.7635 356.176 52.6728C357.472 55.7075 358.409 58.9304 359.093 62.078C360.456 68.3936 360.836 74.4167 360.665 79.4755C360.462 86.5613 359.044 91.7475 358.22 94.2378C357.611 95.3382 357.159 95.8942 357.182 95.9C357.167 95.8913 357.391 95.7697 357.785 95.4975C357.689 95.7581 357.634 95.9029 357.643 95.9C357.634 95.8942 357.927 95.6075 358.435 95.011C359.049 94.5274 359.844 93.8237 360.757 92.8044C362.457 90.9135 364.368 87.8528 365.835 83.8248C365.452 86.5468 365.47 88.9329 365.612 90.8933C365.997 95.483 366.868 97.8459 366.815 97.8546C366.865 97.8662 366.67 95.3237 367.294 90.9512C367.946 86.6742 369.643 80.2718 374.642 74.9466C377.101 72.3231 380.39 70.0702 384.185 68.9612C386.073 68.411 388.068 68.1561 390.035 68.2864C390.962 68.353 392.117 68.521 393.163 68.7469C394.225 68.9785 395.277 69.271 396.307 69.659C400.422 71.1677 404.229 73.9823 406.961 77.8018C407.642 78.7545 408.26 79.7593 408.797 80.8075L409.15 81.5343L409.145 81.5604C409.136 81.5778 409.127 81.5865 409.118 81.5923C409.084 81.6212 409.049 81.5835 409.049 81.5835L409.06 81.6009C409.063 81.6096 409.063 81.6241 409.046 81.6386C409.052 81.6444 409.023 81.6415 409.052 81.653L407.909 81.404C407.12 81.2448 406.337 81.1058 405.56 80.9842C402.449 80.5064 399.424 80.3037 396.458 80.2863C393.485 80.2718 390.574 80.4397 387.68 80.8451C384.774 81.3056 381.926 81.7978 378.771 83.3557C376.153 84.7138 373.708 86.4831 371.725 88.7012C369.744 90.9077 368.257 93.5834 367.619 96.4096C366.232 102.071 368.512 107.961 372.653 110.709C374.677 112.116 377.037 112.707 379.122 112.66C380.149 112.649 381.112 112.495 382.005 112.261C379.656 113.578 377.35 115.029 375.106 116.654ZM321.125 104.992C317.802 102.467 316.259 100.6 316.23 100.646C316.279 100.614 317.231 102.789 320.032 106.159C320.96 107.211 322.128 108.401 323.619 109.527C313.287 104.813 302.38 102.766 292.213 102.942C292.993 100.493 295.374 95.5438 302.29 92.6047C302.998 92.3614 303.665 92.179 304.396 91.9821L305.359 91.7417L307.229 91.3392C309.749 90.8556 312.338 90.5458 314.885 90.3749C317.431 90.2099 319.951 90.178 322.334 90.3141C324.677 90.4502 327.041 90.7746 328.499 91.3363C332.434 92.8653 335.407 95.3671 336.573 98.3729C337.802 101.344 337.118 104.761 335.152 106.672C333.232 108.658 330.181 108.994 327.589 108.279C324.967 107.584 322.79 106.203 321.125 104.992ZM326.211 46.3195L326.24 46.2993C326.278 46.2761 326.307 46.2877 326.322 46.3051L326.333 46.3224C326.333 46.3224 326.333 46.3195 326.336 46.3137C326.336 46.3137 326.342 46.3051 326.336 46.3022L326.333 46.2964L326.533 46.3977C326.667 46.4643 326.8 46.5367 326.925 46.612C327.972 47.1883 328.952 47.8572 329.883 48.5753C331.741 50.0058 333.362 51.694 334.751 53.4691C337.538 57.0337 339.409 60.9198 340.693 64.3251C341.436 66.3637 342.007 68.214 342.445 69.8154C342.578 72.2246 342.854 74.5151 343.248 76.6608C342.575 75.0016 341.717 73.3134 340.603 71.6397C339.098 69.3723 337.115 67.1368 334.638 65.2228C334.496 65.0461 334.375 64.8869 334.232 64.7073C332.107 61.9274 329.555 58.6205 327.957 54.7866C327.165 52.8668 326.62 50.8166 326.374 48.5695C326.307 48.0078 326.261 47.4373 326.226 46.8524L326.203 46.4151C326.203 46.3167 326.209 46.334 326.211 46.3195ZM368.555 69.8183C368.993 68.2141 369.564 66.3637 370.307 64.3251C371.591 60.9198 373.462 57.0337 376.249 53.4691C377.638 51.694 379.259 50.0058 381.12 48.5753C382.048 47.8572 383.028 47.1883 384.075 46.612C384.203 46.5367 384.33 46.4643 384.464 46.3977L384.664 46.2964V46.3022C384.658 46.3051 384.664 46.3137 384.664 46.3137C384.664 46.3195 384.664 46.3224 384.664 46.3224L384.678 46.3051C384.693 46.2877 384.722 46.2761 384.76 46.2993L384.789 46.3195C384.792 46.334 384.797 46.3167 384.797 46.4151L384.771 46.8524C384.742 47.4373 384.693 48.0078 384.626 48.5695C384.38 50.8166 383.837 52.8668 383.046 54.7866C381.442 58.6205 378.89 61.9274 376.768 64.7073C376.626 64.8869 376.504 65.0461 376.365 65.2228C373.885 67.1368 371.902 69.3723 370.397 71.6397C369.283 73.3134 368.428 75.0016 367.755 76.6579C368.146 74.5151 368.422 72.2246 368.555 69.8183ZM150.952 134.204C143.134 129.812 134.899 126.513 126.553 126.282C122.432 126.163 118.288 126.962 114.832 128.572C111.366 130.069 108.907 132.49 106.898 134.998C106.706 135.232 106.495 135.467 106.312 135.704C104.241 138.51 102.739 141.615 102.217 144.875C101.834 147.099 102.084 149.392 102.852 151.388C103.206 152.308 103.656 153.171 104.224 153.921C105.097 155.129 106.141 156.111 107.231 156.907C108.313 157.72 109.534 158.364 110.795 158.731C113.344 159.511 117.218 159.446 119.1 158.306C120.025 157.738 120.788 157.115 121.42 156.467C120.341 158.378 118.723 160.127 116.261 160.97C114.156 161.708 111.68 161.957 109.273 161.386C108.075 161.103 106.906 160.604 105.857 159.884C105.207 159.435 104.555 158.852 103.937 158.219C103.583 157.857 103.241 157.48 102.925 157.092C102.385 156.423 101.924 155.682 101.498 154.909C101.037 154.072 100.654 153.171 100.324 152.23C99.3522 149.43 98.9868 146.239 99.2623 142.952C99.3696 141.675 99.5436 140.39 99.8481 139.107C100.66 135.765 102.171 132.403 104.494 129.864C105.103 129.233 105.651 128.682 106.41 128.144C107.17 127.556 107.93 127.017 108.719 126.554C110.317 125.604 112.106 124.814 114.002 124.182C117.798 122.926 122.026 122.291 126.301 122.364C128.438 122.413 130.592 122.627 132.683 123.085C133.733 123.314 134.768 123.583 135.737 123.925C136.755 124.275 137.845 124.712 138.938 125.173C143.334 127.049 147.887 129.34 152.428 131.792C152.605 131.888 152.782 132.001 152.956 132.096C153.026 132.45 153.078 132.797 153.156 133.15C153.365 134.092 153.629 135.024 153.919 135.948C152.933 135.348 151.947 134.766 150.952 134.204ZM710.365 167.482C709.898 166.29 709.109 164.519 707.61 162.446C706.12 160.379 703.858 158.042 700.659 155.98C697.475 153.907 693.377 152.152 688.581 150.95C678.968 148.57 666.67 148.205 652.753 150.817C649.305 151.446 645.579 152.476 642.166 153.449C638.689 154.405 635.111 155.314 631.451 156.041C627.823 156.747 623.99 157.321 620.594 157.2C619.759 157.165 618.97 157.077 618.315 156.933C617.996 156.858 617.709 156.773 617.488 156.687C617.245 156.576 617.294 156.58 617.276 156.554C617.253 156.504 617.274 156.446 617.291 156.415C617.303 156.397 614.232 154.877 614.159 154.828C614.165 154.816 614.165 154.747 614.191 154.547L613.704 155.508C614.168 154.668 614.574 153.785 614.933 152.867C617.105 153.015 619.153 152.914 621.078 152.714C623.955 152.39 626.602 151.839 629.108 151.246C639.057 148.761 647.003 145.848 653.763 144.565C657.118 143.894 660.128 143.587 662.72 143.723C665.307 143.853 667.453 144.452 669.045 145.272C670.64 146.083 671.695 147.041 672.351 147.719C673.003 148.405 673.293 148.81 673.299 148.805C673.293 148.808 673.099 148.373 672.588 147.58C672.072 146.795 671.214 145.64 669.706 144.47C668.204 143.309 666.017 142.22 663.268 141.603C660.525 140.969 657.271 140.775 653.676 140.925C646.484 141.174 637.877 143.016 628.232 144.253C625.831 144.536 623.363 144.756 620.916 144.768C619.48 144.777 618.056 144.696 616.694 144.507C616.789 142.657 616.728 140.763 616.47 138.861C615.905 134.758 614.553 130.469 611.741 126.554C611.045 125.578 610.207 124.654 609.302 123.771C608.374 122.955 607.576 122.231 606.553 121.478C604.587 120.018 602.432 118.846 600.176 117.864C595.658 115.93 590.714 114.757 585.482 114.447C582.867 114.288 580.176 114.369 577.435 114.731C574.721 115.061 571.78 115.88 569.324 116.769C565.557 118.107 561.886 119.625 558.186 121.29C557.884 119.451 557.432 117.667 556.809 115.982C554.929 110.781 551.719 106.539 548.353 103.18C544.957 99.7715 541.074 97.1046 536.979 95.622C532.896 94.1191 528.665 93.8643 524.988 94.6519C517.579 96.2272 512.583 101.457 511.429 106.432C511.098 107.775 511.092 109.073 511.289 110.254C511.313 111.551 511.614 112.765 512.096 113.775C512.992 115.721 514.424 117.036 515.799 117.8C517.196 118.559 518.527 118.796 519.568 118.831C519.827 118.837 520.018 118.811 520.238 118.802C520.224 118.727 520.206 118.657 520.206 118.585C520.021 118.576 519.873 118.585 519.667 118.57C518.69 118.449 517.466 118.151 516.254 117.369C515.61 116.96 514.975 116.399 514.41 115.715C513.917 115.113 513.476 114.424 513.145 113.622C513.105 113.517 513.087 113.399 513.047 113.292C512.461 111.635 512.354 109.597 513.238 107.712C514.143 105.742 516.155 103.962 518.556 102.925C523.443 100.802 530.385 102.207 535.912 106.449C538.679 108.615 541.036 111.366 541.984 115.012C543.136 118.736 543.579 122.827 542.805 126.861C542.634 127.776 542.39 128.679 542.092 129.577C541.654 130.9 541.077 132.195 540.378 133.449C539.464 135.091 538.342 136.66 537 138.105C535.512 139.692 533.627 141.403 531.881 142.437C530.02 143.546 527.827 144.357 525.478 144.887C515.993 146.957 504.573 145.281 494.148 140.74C488.928 138.444 483.915 135.314 479.704 131.297C475.496 127.284 472.188 122.335 470.535 116.758L459.156 118.533C461.667 125.882 467.597 133.544 472.898 138.218C478.214 142.918 484.187 146.274 490.225 148.674C496.286 151.06 502.453 152.494 508.535 153.082C514.613 153.652 520.641 153.412 526.38 151.92C529.242 151.162 532.038 150.087 534.601 148.506C535.866 147.73 537.13 146.772 538.162 145.779C539.137 144.884 540.14 143.87 541.033 142.834C542.315 141.366 543.437 139.785 544.397 138.134C546.151 135.125 547.346 131.876 547.865 128.61C547.996 127.79 548.074 126.977 548.129 126.169C548.413 121.97 547.706 117.936 546.453 114.392C546.056 113.309 545.705 112.362 545.157 111.25C544.623 110.193 543.991 109.226 543.298 108.352C541.921 106.591 540.323 105.166 538.661 103.973C535.318 101.61 531.69 100.171 528.132 99.5891C526.128 99.259 524.136 99.2416 522.254 99.5225C525.38 96.8932 531.861 96.6847 535.242 98.0341C538.783 99.4241 542.156 101.871 545.125 105.053C548.103 108.268 550.791 112.075 552.296 116.529C553.047 118.704 553.503 121.026 553.633 123.406C553.764 125.882 553.549 128.425 552.931 130.953C552.52 132.69 551.919 134.396 551.171 136.069C550.153 138.34 548.831 140.532 547.262 142.622C544.739 145.964 541.57 149.022 537.91 151.648C535.86 153.119 533.668 154.463 531.345 155.636C525.823 158.453 519.792 160.457 513.27 161.187C506.757 161.951 499.864 161.656 493 160.263C486.133 158.876 479.281 156.391 473 152.688C469.122 150.397 465.472 147.617 462.276 144.368C462.485 142.811 462.612 141.215 462.63 139.585C462.638 133.77 461.513 127.272 457.34 121.408C457.085 121.043 456.795 120.696 456.52 120.34L455.731 119.404C455.194 118.788 454.646 118.174 454.069 117.58C452.918 116.387 451.694 115.243 450.389 114.16C447.785 111.989 444.877 110.063 441.725 108.453C435.832 105.438 429.078 103.533 421.916 103.081L421.93 97.8806L421.91 90.7514C421.898 88.3856 421.634 85.8084 420.932 83.1096C420.593 81.7602 420.109 80.4021 419.584 79.0556L418.691 77.0663L418.036 75.8385C417.18 74.3124 416.206 72.8791 415.133 71.5412C410.864 66.1842 404.98 62.5355 398.957 60.9892C397.458 60.5867 395.944 60.329 394.457 60.1727C392.952 60.0163 391.563 59.9613 389.976 60.0308C388.596 60.1061 387.268 60.3203 385.983 60.6215C386.763 59.663 387.523 58.6119 388.237 57.4507C389.599 55.1891 390.678 52.5019 391.244 49.6699C391.392 48.9605 391.513 48.2452 391.603 47.5271L391.673 46.9856C391.699 46.7539 391.734 46.4122 391.745 46.0966L391.847 44.1507C391.873 41.5706 391.763 39.0455 391.679 36.3554L387.436 37.5716C386.169 37.9799 384.908 38.3071 383.626 38.9152C382.988 39.1816 382.353 39.4625 381.726 39.8071L380.993 40.198C380.813 40.2936 380.639 40.4007 380.471 40.5108C379.09 41.3418 377.832 42.3061 376.689 43.337C374.39 45.3929 372.595 47.7472 371.217 50.1043C369.73 52.6699 368.723 55.2181 368.025 57.636C367.668 55.1631 367.152 52.6293 366.406 50.0463L365.948 48.5493C365.751 47.9788 365.699 47.75 365.293 46.7221C364.629 45.002 363.834 43.2009 362.938 41.5967C362.1 40.0706 355.5 27.8131 355.5 27.8131C353.331 31.5543 348.868 40.1285 348.065 41.5967C347.169 43.2009 346.371 45.002 345.707 46.7221C345.301 47.75 345.249 47.9788 345.055 48.5493L344.594 50.0463C343.851 52.6293 343.332 55.1631 342.976 57.636C342.277 55.2181 341.27 52.6699 339.786 50.1043C338.405 47.7472 336.61 45.3929 334.314 43.337C333.168 42.3061 331.91 41.3418 330.529 40.5108C330.361 40.4007 330.187 40.2936 330.007 40.198L329.274 39.8071C328.644 39.4625 328.012 39.1816 327.374 38.9152C326.09 38.3071 324.831 37.9799 323.564 37.5716L319.321 36.3554C319.237 39.0455 319.127 41.5706 319.156 44.1507L319.258 46.0966C319.269 46.4122 319.301 46.7539 319.327 46.9856L319.397 47.5271C319.49 48.2452 319.608 48.9605 319.756 49.6699C320.322 52.5019 321.4 55.1891 322.763 57.4507C323.48 58.6119 324.237 59.663 325.02 60.6215C323.735 60.3203 322.404 60.1061 321.023 60.0308C319.44 59.9613 318.051 60.0163 316.546 60.1727C315.056 60.329 313.542 60.5867 312.043 60.9892C306.023 62.5355 300.136 66.1842 295.867 71.5412C294.794 72.8791 293.82 74.3124 292.962 75.8385L292.309 77.0663L291.413 79.0556C290.891 80.4021 290.407 81.7602 290.068 83.1096C289.366 85.8084 289.102 88.3856 289.09 90.7514L289.07 97.8806L289.084 103.081C281.925 103.533 275.168 105.438 269.276 108.453C266.123 110.063 263.218 111.989 260.611 114.16C259.309 115.243 258.079 116.387 256.931 117.58C256.354 118.174 255.806 118.788 255.269 119.404L254.483 120.34C254.205 120.696 253.915 121.043 253.66 121.408C249.49 127.272 248.359 133.77 248.37 139.585C248.388 141.215 248.515 142.811 248.724 144.368C245.529 147.617 241.878 150.397 238 152.688C231.719 156.391 224.864 158.876 218.006 160.263C211.139 161.656 204.243 161.951 197.73 161.187C191.208 160.457 185.179 158.453 179.655 155.636C177.332 154.463 175.14 153.119 173.09 151.648C169.433 149.022 166.261 145.964 163.738 142.622C162.169 140.532 160.847 138.34 159.829 136.069C159.081 134.396 158.483 132.69 158.072 130.953C157.451 128.425 157.236 125.882 157.367 123.406C157.497 121.026 157.953 118.704 158.701 116.529C160.209 112.075 162.9 108.268 165.875 105.053C168.847 101.871 172.217 99.4241 175.758 98.0341C179.142 96.6847 185.62 96.8932 188.746 99.5225C186.864 99.2416 184.872 99.259 182.871 99.5891C179.31 100.171 175.682 101.61 172.339 103.973C170.677 105.166 169.079 106.591 167.699 108.352C167.009 109.226 166.377 110.193 165.843 111.25C165.295 112.362 164.947 113.309 164.547 114.392C163.294 117.936 162.587 121.97 162.871 126.169C162.926 126.977 163.004 127.79 163.138 128.61C163.654 131.876 164.849 135.125 166.603 138.134C167.563 139.785 168.685 141.366 169.967 142.834C170.86 143.87 171.863 144.884 172.838 145.779C173.87 146.772 175.134 147.73 176.399 148.506C178.962 150.087 181.758 151.162 184.62 151.92C190.359 153.412 196.387 153.652 202.468 153.082C208.547 152.494 214.715 151.06 220.775 148.674C226.813 146.274 232.786 142.918 238.105 138.218C243.403 133.544 249.333 125.882 251.844 118.533L240.471 116.758C238.812 122.335 235.504 127.284 231.299 131.297C227.085 135.314 222.074 138.444 216.852 140.74C206.427 145.281 195.007 146.957 185.522 144.887C183.173 144.357 180.98 143.546 179.122 142.437C177.373 141.403 175.491 139.692 174 138.105C172.658 136.66 171.538 135.091 170.622 133.449C169.923 132.195 169.346 130.9 168.908 129.577C168.61 128.679 168.369 127.776 168.195 126.861C167.424 122.827 167.861 118.736 169.016 115.012C169.967 111.366 172.321 108.615 175.088 106.449C180.615 102.207 187.557 100.802 192.444 102.925C194.848 103.962 196.857 105.742 197.762 107.712C198.646 109.597 198.539 111.635 197.953 113.292C197.916 113.399 197.895 113.517 197.855 113.622C197.524 114.424 197.083 115.113 196.59 115.715C196.025 116.399 195.39 116.96 194.746 117.369C193.534 118.151 192.31 118.449 191.333 118.57C191.127 118.585 190.976 118.576 190.794 118.585C190.794 118.657 190.779 118.727 190.759 118.802C190.985 118.811 191.173 118.837 191.432 118.831C192.473 118.796 193.804 118.559 195.198 117.8C196.573 117.036 198.011 115.721 198.905 113.775C199.386 112.765 199.688 111.551 199.711 110.254C199.908 109.073 199.905 107.775 199.574 106.432C198.417 101.457 193.421 96.2272 186.012 94.6519C182.335 93.8643 178.104 94.1191 174.021 95.622C169.926 97.1046 166.046 99.7715 162.648 103.18C159.281 106.539 156.068 110.781 154.191 115.982C153.568 117.667 153.116 119.451 152.814 121.29C149.114 119.625 145.443 118.107 141.676 116.769C139.222 115.88 136.279 115.061 133.565 114.731C130.824 114.369 128.133 114.288 125.518 114.447C120.289 114.757 115.342 115.93 110.824 117.864C108.568 118.846 106.416 120.018 104.447 121.478C103.421 122.231 102.626 122.955 101.698 123.771C100.791 124.654 99.9583 125.578 99.2594 126.554C96.4466 130.469 95.0952 134.758 94.5297 138.861C94.2716 140.763 94.2108 142.657 94.3065 144.507C92.9435 144.696 91.5197 144.777 90.0872 144.768C87.6368 144.756 85.1719 144.536 82.7679 144.253C73.1201 143.016 64.5191 141.174 57.3245 140.925C53.7287 140.775 50.4779 140.969 47.7346 141.603C44.9827 142.22 42.7962 143.309 41.297 144.47C39.7861 145.64 38.9278 146.795 38.4145 147.58C37.9012 148.373 37.7098 148.808 37.7011 148.805C37.7069 148.81 37.994 148.405 38.6494 147.719C39.3048 147.041 40.3574 146.083 41.9581 145.272C43.5473 144.452 45.6931 143.853 48.2798 143.723C50.8694 143.587 53.8824 143.894 57.2375 144.565C63.9971 145.848 71.9427 148.761 81.8921 151.246C84.3976 151.839 87.0452 152.39 89.9247 152.714C91.8474 152.914 93.8947 153.015 96.0667 152.867C96.4263 153.785 96.8322 154.668 97.2933 155.508L96.8062 154.547C96.8352 154.747 96.8381 154.816 96.841 154.828C96.7685 154.877 93.6946 156.397 93.7091 156.415C93.7265 156.446 93.7468 156.504 93.7265 156.554C93.7062 156.58 93.7555 156.576 93.5148 156.687C93.2915 156.773 93.0015 156.858 92.6854 156.933C92.0301 157.077 91.2413 157.165 90.4061 157.2C87.0104 157.321 83.1768 156.747 79.5491 156.041C75.8894 155.314 72.3139 154.405 68.837 153.449C65.4209 152.476 61.6946 151.446 58.2466 150.817C44.3331 148.205 32.0319 148.57 22.4189 150.95C17.6225 152.152 13.525 153.907 10.3409 155.98C7.13947 158.042 4.88049 160.379 3.38996 162.446C1.89363 164.519 1.10195 166.29 0.635071 167.482C0.162393 168.675 0.0173992 169.312 0 169.306C0.0782963 169.382 0.881575 166.642 4.29471 162.971C6.01433 161.176 8.44442 159.247 11.6952 157.72C14.9314 156.174 18.9419 155.013 23.5614 154.422C32.7859 153.244 44.4665 154.168 57.1157 157.787C60.3056 158.685 63.3301 159.843 66.8564 161.15C70.3304 162.408 73.9726 163.643 77.8584 164.708C81.7703 165.742 85.8186 166.732 90.6439 166.895C91.8619 166.917 93.132 166.885 94.5413 166.665C95.2373 166.567 95.9768 166.399 96.7568 166.162C97.505 165.944 98.5751 165.486 99.4073 164.972C100.738 164.175 101.875 163.043 102.687 161.705C103.328 162.174 103.995 162.603 104.72 162.971C106.219 163.717 107.797 164.144 109.319 164.302C112.381 164.612 115.203 163.94 117.505 162.808C122.177 160.543 124.613 156.397 125.048 153.058C125.529 149.656 124.604 147.171 123.981 145.654C123.496 144.539 123.111 143.879 122.937 143.589C122.89 143.471 122.841 143.372 122.792 143.256C122.725 143.294 122.656 143.329 122.58 143.349C123.033 144.699 123.375 146.659 122.821 149.065C122.218 151.695 120.405 155.062 116.859 156.715C115.116 157.512 112.979 157.645 111.013 156.777C109.081 155.931 107.156 154.225 105.973 152.175C105.622 151.567 105.378 150.898 105.19 150.212C104.737 148.561 104.731 146.737 105.23 144.904C105.92 142.301 107.434 139.718 109.444 137.43C109.98 136.831 110.549 136.255 111.14 135.704C112.81 134.149 114.704 132.841 116.928 132.137C119.976 131.034 123.363 130.66 126.875 131.002C133.924 131.688 141.22 135.012 148.276 139.46C152.428 142.087 156.532 145.139 160.621 148.486C160.963 148.923 161.299 149.361 161.656 149.786C165.84 154.761 171.173 159 177.231 162.319C183.228 165.646 190.214 168.139 197.55 169.171C204.884 170.247 212.569 170.129 220.291 168.814C228.005 167.487 235.791 164.959 243.145 160.918C246.146 159.27 249.066 157.339 251.844 155.143C251.914 155.294 251.978 155.45 252.047 155.598C254.306 160.3 257.586 164.253 261.46 166.891C265.326 169.561 269.679 170.795 273.596 170.968C277.523 171.151 281.098 170.542 284.172 169.341C287.24 168.145 289.679 166.271 291.349 164.244C294.728 160.09 295.032 155.87 294.968 153.374C294.849 150.797 294.406 149.555 294.443 149.549C294.406 149.543 294.699 150.89 294.51 153.464C294.281 155.96 293.411 159.997 289.859 163.327C286.414 166.678 280.191 168.495 273.353 167.294C269.989 166.689 266.596 165.194 263.769 162.629C260.938 160.086 258.674 156.545 257.276 152.424C257.093 151.883 256.963 151.309 256.806 150.748C255.797 147.102 255.376 143.112 255.791 139.069C255.797 139.008 255.797 138.951 255.803 138.89C256.304 134.21 258.001 129.372 261.136 126.163C268.266 118.64 279.599 113.952 291.491 114.731C294.791 114.922 297.764 115.261 300.922 115.912C304.036 116.552 307.148 117.45 310.204 118.608C316.317 120.925 322.221 124.298 327.4 128.685C332.574 133.066 336.99 138.481 340.026 144.664C343.057 150.84 344.657 157.761 344.565 164.933C351.113 160.669 354.7 155.418 355.981 150.212C357.614 156.035 361.393 161.716 366.435 164.933C366.343 157.761 367.943 150.84 370.977 144.664C374.01 138.481 378.426 133.066 383.6 128.685C388.779 124.298 394.683 120.925 400.796 118.608C403.852 117.45 406.967 116.552 410.078 115.912C413.239 115.261 416.212 114.922 419.509 114.731C431.401 113.952 442.737 118.64 449.864 126.163C452.999 129.372 454.699 134.21 455.197 138.89C455.206 138.951 455.203 139.008 455.209 139.069C455.624 143.112 455.206 147.102 454.194 150.748C454.037 151.309 453.91 151.883 453.724 152.424C452.326 156.545 450.065 160.086 447.231 162.629C444.407 165.194 441.008 166.689 437.647 167.294C430.809 168.495 424.589 166.678 421.141 163.327C417.589 159.997 416.719 155.96 416.49 153.464C416.301 150.89 416.594 149.543 416.56 149.549C416.594 149.555 416.151 150.797 416.035 153.374C415.968 155.87 416.275 160.09 419.651 164.244C421.321 166.271 423.76 168.145 426.831 169.341C429.902 170.542 433.48 171.151 437.404 170.968C441.321 170.795 445.677 169.561 449.54 166.891C453.414 164.253 456.697 160.3 458.953 155.598C459.022 155.45 459.086 155.294 459.156 155.143C461.937 157.339 464.857 159.27 467.855 160.918C475.209 164.959 482.993 167.487 490.709 168.814C498.431 170.129 506.119 170.247 513.45 169.171C520.789 168.139 527.772 165.646 533.772 162.319C539.827 159 545.16 154.761 549.341 149.786C549.701 149.361 550.04 148.923 550.38 148.486C554.468 145.139 558.572 142.087 562.727 139.46C569.782 135.012 577.076 131.688 584.125 131.002C587.634 130.66 591.024 131.034 594.072 132.137C596.296 132.841 598.19 134.149 599.86 135.704C600.454 136.255 601.02 136.831 601.559 137.43C603.566 139.718 605.08 142.301 605.77 144.904C606.271 146.737 606.263 148.561 605.81 150.212C605.622 150.898 605.378 151.567 605.027 152.175C603.844 154.225 601.922 155.931 599.99 156.777C598.024 157.645 595.884 157.512 594.141 156.715C590.598 155.062 588.782 151.695 588.179 149.065C587.625 146.659 587.968 144.699 588.42 143.349C588.345 143.329 588.275 143.294 588.208 143.256C588.159 143.372 588.11 143.471 588.066 143.589C587.889 143.879 587.504 144.539 587.016 145.654C586.396 147.171 585.471 149.656 585.952 153.058C586.39 156.397 588.82 160.543 593.498 162.808C595.794 163.94 598.619 164.612 601.681 164.302C603.203 164.144 604.781 163.717 606.28 162.971C607.005 162.603 607.675 162.174 608.316 161.705C609.128 163.043 610.262 164.175 611.596 164.972C612.425 165.486 613.498 165.944 614.243 166.162C615.023 166.399 615.763 166.567 616.462 166.665C617.868 166.885 619.138 166.917 620.356 166.895C625.184 166.732 629.233 165.742 633.142 164.708C637.027 163.643 640.67 162.408 644.144 161.15C647.67 159.843 650.697 158.685 653.887 157.787C666.534 154.168 678.214 153.244 687.439 154.422C692.058 155.013 696.069 156.174 699.305 157.72C702.556 159.247 704.986 161.176 706.702 162.971C710.118 166.642 710.922 169.382 711 169.306C710.983 169.312 710.835 168.675 710.365 167.482Z" fill="#382405"/>
<path d="M587.252 145.808C587.524 144.936 587.768 144.328 587.939 143.931C587.771 144.421 587.492 145.121 587.229 145.915C587.237 145.88 587.243 145.842 587.252 145.808Z" fill="#382405"/>
<path d="M441.548 89.8714C441.203 92.6311 440.771 95.0432 440.168 96.9746C439.582 98.909 438.752 100.322 437.911 101.194C437.07 102.048 436.354 102.378 436.372 102.393C436.372 102.364 437.071 102.659 438.518 102.503C439.944 102.349 442.073 101.475 444.045 99.6908C446.031 97.936 447.904 95.4254 449.433 92.4573L449.992 91.3222C450.187 90.882 450.311 90.6996 450.584 89.9091C451.077 88.5278 451.521 87.0568 451.921 85.5279C452.695 82.4613 453.2 79.3224 453.782 75.9112C451.802 75.7838 449.647 75.7114 447.583 75.6593C444.277 75.5782 440.391 76.5077 437.015 78.0251C434.986 78.9951 433.219 80.1592 431.654 81.4536C428.533 84.0395 426.361 87.1668 425.265 90.0539C424.134 92.9525 424.117 95.4891 424.36 97.0789C424.61 98.6889 425.013 99.4678 424.995 99.4736C425.022 99.5373 426.124 95.9177 429.748 93.0278C431.523 91.5625 433.852 90.2189 436.551 89.0896C437.897 88.5307 439.356 88.0095 440.817 87.5838C440.927 87.6997 440.901 87.8039 440.893 87.8039C440.887 87.8068 440.927 87.7489 441.017 87.6881C441.127 87.6128 441.296 87.5665 441.47 87.6823C441.562 87.7402 441.652 87.8386 441.731 87.9863C441.8 87.9574 441.702 88.5278 441.675 88.8261L441.548 89.8714Z" fill="#382405"/>
<path d="M458.961 109.145L458.813 109.246L458.485 109.345C458.033 109.464 457.586 109.579 457.16 109.663C456.296 109.849 455.478 109.947 454.707 109.988C451.601 110.13 449.354 109.029 449.371 109.096C449.383 109.093 449.536 109.64 450.07 110.567C450.603 111.485 451.584 112.811 453.324 114.01C454.185 114.598 455.223 115.159 456.4 115.594C456.989 115.817 457.61 116.002 458.256 116.167L458.755 116.28C458.981 116.321 459.213 116.353 459.454 116.379C459.932 116.437 460.428 116.483 460.936 116.506C462.977 116.628 465.216 116.442 467.51 116.072C469.783 115.672 472.147 115.145 474.742 114.52C474.632 113.958 474.435 113.271 474.22 112.539L473.588 110.451C473.159 109.073 472.761 107.665 471.932 106.206C470.555 103.64 468.275 101.078 465.639 99.3402L464.691 98.7147C464.427 98.5613 464.224 98.4657 463.992 98.3412C463.543 98.0979 463.079 97.9039 462.623 97.7012C461.707 97.3248 460.788 97.0179 459.871 96.8007C456.206 95.9001 452.758 96.2563 450.2 97.1626C447.617 98.0661 445.92 99.401 444.92 100.4C443.919 101.405 443.537 102.085 443.522 102.071C443.493 102.143 446.75 101.474 450.65 102.517C452.59 103.018 454.637 103.947 456.551 105.239C457.03 105.557 457.496 105.911 457.955 106.27C458.178 106.461 458.416 106.634 458.63 106.837L458.946 107.112L458.973 107.202C458.967 107.382 458.833 107.387 458.839 107.39C458.819 107.376 459.039 107.405 459.309 107.602C459.639 107.836 459.764 108.366 459.196 108.937C459.126 109.003 459.048 109.073 458.961 109.145Z" fill="#382405"/>
<path d="M428.121 67.7105C428.214 65.5619 428.173 63.2511 427.805 60.7695C427.445 58.3342 426.717 55.5514 425.346 53.0032C423 48.5148 419.911 44.6432 416.385 41.7186C412.879 38.7881 408.857 36.932 405.331 36.402C401.784 35.8345 398.98 36.515 397.281 37.1781C395.561 37.8615 394.778 38.4754 394.773 38.4609C394.764 38.4754 395.782 38.5102 397.44 38.8518C399.09 39.1935 401.326 39.9406 403.498 41.458C407.897 44.3942 411.946 50.5447 415.794 57.9578C417.374 60.8911 418.276 64.6845 419.062 68.3649L421.074 78.6042C422.257 84.6736 423.67 88.4699 423.696 88.438C423.67 88.4062 424.946 84.7228 426.454 78.6998C427.17 75.6679 427.912 72.0106 428.121 67.7105Z" fill="#382405"/>
<path d="M419.486 29.5189C422.618 34.4677 426.095 39.3788 428.737 44.6548C430.068 47.2928 431.123 49.9047 431.915 52.5109C432.306 53.8139 432.643 55.117 432.901 56.4172C433.159 57.7173 433.376 59.0291 433.489 60.1671C433.968 64.9074 432.941 69.584 431.555 73.4208C428.696 81.164 424.917 85.5191 424.996 85.5162C424.987 85.5046 426.277 84.9776 428.374 83.5442C430.456 82.108 433.373 79.774 436.25 76.0443C439.074 72.3494 441.983 67.0676 442.572 60.2511C442.711 58.5195 442.694 56.8892 442.598 55.2097C442.493 53.5244 442.264 51.8014 441.919 50.0727C441.226 46.6065 440.014 43.1143 438.355 39.8334C435.023 33.237 430.52 28.2332 426.727 24.0431C422.887 19.8559 419.715 16.3376 417.99 12.9062C416.212 9.5124 415.931 6.1476 416.081 3.76443C416.218 1.37257 416.589 0 416.554 0C416.583 0.02027 415.618 1.02797 414.458 3.32427C413.312 5.55976 412.007 9.49793 412.842 14.4728C413.614 19.4302 416.366 24.6107 419.486 29.5189Z" fill="#382405"/>
<path d="M440.312 72.5868C438.715 74.7094 438.053 76.0095 438.039 76.0008C438.048 76.0153 439.231 75.1466 441.438 73.8377C443.639 72.5376 446.895 70.8175 451.013 69.5231C455.102 68.2403 460.133 67.4093 465.225 68.0608C470.3 68.6689 475.296 70.9565 477.915 74.9294C478.257 75.4333 478.521 75.8937 478.866 76.5684C479.217 77.2431 479.519 77.8657 479.785 78.4912C480.328 79.7363 480.734 80.9438 480.963 82.0529C481.404 84.2971 481.206 85.9679 480.357 87.3462C479.527 88.7536 477.819 89.8974 475.958 90.3751C474.099 90.8761 472.176 90.7574 470.732 90.1348C469.268 89.5267 468.235 88.3568 467.702 86.9408C467.162 85.5306 467.093 84.0162 467.151 82.7913C467.307 80.301 467.777 78.8647 467.737 78.8647C467.771 78.8907 466.721 79.91 465.521 82.3743C464.958 83.6137 464.329 85.2671 464.341 87.4707C464.312 89.628 465.269 92.4861 467.615 94.5131C469.911 96.5546 473.162 97.7129 476.668 97.6897C480.133 97.6694 484.158 96.4649 487.284 93.213C488.83 91.6116 490.013 89.5209 490.64 87.3057C491.283 85.0847 491.388 82.7971 491.167 80.6456C490.938 78.4911 490.393 76.4583 489.674 74.5472C489.314 73.5916 488.897 72.6592 488.473 71.7934C488.059 70.9189 487.479 69.8561 486.841 68.9179C484.26 65.0695 480.487 62.3417 476.685 60.8331C472.863 59.2983 469.004 58.8466 465.486 58.9943C458.399 59.3273 452.704 61.9566 448.621 64.7075C444.517 67.5106 441.919 70.4787 440.312 72.5868Z" fill="#382405"/>
<path d="M520.816 106.258C515.201 106.258 515.201 114.957 520.816 114.957C526.433 114.957 526.433 106.258 520.816 106.258Z" fill="#382405"/>
<path d="M354.436 111.769C348.819 111.769 348.819 120.467 354.436 120.467C360.053 120.467 360.053 111.769 354.436 111.769Z" fill="#382405"/>
<path d="M381.729 95.5295C376.112 95.5295 376.112 104.228 381.729 104.228C387.346 104.228 387.346 95.5295 381.729 95.5295Z" fill="#382405"/>
<path d="M596.02 143.662H595.44C593.065 143.662 591.085 145.643 591.085 148.014C591.085 150.386 593.065 152.361 595.44 152.361H596.02C598.395 152.361 600.376 150.386 600.376 148.014C600.376 145.643 598.395 143.662 596.02 143.662Z" fill="#382405"/>
<path d="M473.632 79.0009H473.197C470.822 79.0009 468.841 80.9816 468.841 83.3532C468.841 85.7248 470.822 87.6996 473.197 87.6996H473.632C476.007 87.6996 477.987 85.7248 477.987 83.3532C477.987 80.9816 476.007 79.0009 473.632 79.0009Z" fill="#382405"/>
<path d="M563.357 94.2266C559.425 94.2266 559.425 100.316 563.357 100.316C567.289 100.316 567.289 94.2266 563.357 94.2266Z" fill="#382405"/>
<path d="M538.966 79.0007C535.034 79.0007 535.034 85.0904 538.966 85.0904C542.895 85.0904 542.895 79.0007 538.966 79.0007Z" fill="#382405"/>
<path d="M510.654 83.787C506.722 83.787 506.722 89.8767 510.654 89.8767C514.586 89.8767 514.586 83.787 510.654 83.787Z" fill="#382405"/>
<path d="M500.201 103.36C498.539 103.36 497.153 104.744 497.153 106.403V106.837C497.153 108.496 498.539 109.884 500.201 109.884C501.862 109.884 503.251 108.496 503.251 106.837V106.403C503.251 104.744 501.862 103.36 500.201 103.36Z" fill="#382405"/>
<path d="M515.88 119.451C511.948 119.451 511.948 125.54 515.88 125.54C519.812 125.54 519.812 119.451 515.88 119.451Z" fill="#382405"/>
<path d="M433.562 93.7891C429.63 93.7891 429.63 99.8788 433.562 99.8788C437.494 99.8788 437.494 93.7891 433.562 93.7891Z" fill="#382405"/>
<path d="M451.419 52.0358C447.486 52.0358 447.486 58.1255 451.419 58.1255C455.351 58.1255 455.351 52.0358 451.419 52.0358Z" fill="#382405"/>
<path d="M420.93 147.722C416.998 147.722 416.998 153.809 420.93 153.809C424.859 153.809 424.859 147.722 420.93 147.722Z" fill="#382405"/>
<path d="M190.521 106.258C196.135 106.258 196.135 114.957 190.521 114.957C184.901 114.957 184.901 106.258 190.521 106.258Z" fill="#382405"/>
<path d="M329.607 95.5295C335.224 95.5295 335.224 104.228 329.607 104.228C323.99 104.228 323.99 95.5295 329.607 95.5295Z" fill="#382405"/>
<path d="M115.313 143.662H115.895C118.267 143.662 120.248 145.643 120.248 148.014C120.248 150.386 118.267 152.361 115.895 152.361H115.313C112.94 152.361 110.957 150.386 110.957 148.014C110.957 145.643 112.94 143.662 115.313 143.662Z" fill="#382405"/>
<path d="M237.705 79.0009H238.14C240.515 79.0009 242.495 80.9816 242.495 83.3532C242.495 85.7248 240.515 87.6996 238.14 87.6996H237.705C235.333 87.6996 233.349 85.7248 233.349 83.3532C233.349 80.9816 235.333 79.0009 237.705 79.0009Z" fill="#382405"/>
<path d="M147.98 94.2266C151.912 94.2266 151.912 100.316 147.98 100.316C144.051 100.316 144.051 94.2266 147.98 94.2266Z" fill="#382405"/>
<path d="M172.373 79.0007C176.303 79.0007 176.303 85.0904 172.373 85.0904C168.438 85.0904 168.438 79.0007 172.373 79.0007Z" fill="#382405"/>
<path d="M200.682 83.787C204.614 83.787 204.614 89.8767 200.682 89.8767C196.75 89.8767 196.75 83.787 200.682 83.787Z" fill="#382405"/>
<path d="M211.136 103.36C212.8 103.36 214.187 104.744 214.187 106.403V106.837C214.187 108.496 212.8 109.884 211.136 109.884C209.474 109.884 208.088 108.496 208.088 106.837V106.403C208.088 104.744 209.474 103.36 211.136 103.36Z" fill="#382405"/>
<path d="M195.456 119.451C199.388 119.451 199.388 125.54 195.456 125.54C191.524 125.54 191.524 119.451 195.456 119.451Z" fill="#382405"/>
<path d="M277.775 93.7891C281.707 93.7891 281.707 99.8788 277.775 99.8788C273.843 99.8788 273.843 93.7891 277.775 93.7891Z" fill="#382405"/>
<path d="M259.917 52.0358C263.849 52.0358 263.849 58.1255 259.917 58.1255C255.988 58.1255 255.988 52.0358 259.917 52.0358Z" fill="#382405"/>
<path d="M290.407 147.722C294.34 147.722 294.34 153.809 290.407 153.809C286.475 153.809 286.475 147.722 290.407 147.722Z" fill="#382405"/>
</svg>
