<svg width="169" height="119" viewBox="0 0 169 119" fill="none" xmlns="http://www.w3.org/2000/svg">
<path d="M145.921 42.0963C146.781 41.0103 147.64 39.9131 148.498 38.8024C148.911 38.2471 149.32 37.6873 149.729 37.1252C149.739 37.1207 149.745 37.1184 149.745 37.1184C149.755 37.1229 149.753 37.1319 149.755 37.1364C149.755 37.1364 149.755 37.1252 149.765 37.1252C149.772 37.1387 149.774 37.1499 149.782 37.1611C149.862 37.4039 149.937 37.649 150.013 37.8941C150.215 38.5056 150.416 39.1172 150.616 39.7287C151.023 40.9226 151.438 42.1233 151.853 43.3216C153.517 47.8566 155.202 52.4411 156.902 57.0727C160.14 65.983 162.735 74.8191 163.11 83.1696C163.249 85.9823 163.112 88.7141 162.758 91.3379C164.919 89.2829 166.922 87.2077 168.76 85.074C169.594 84.0915 170.43 83.0684 171.258 82.0274C171.538 81.6677 171.841 81.2675 172.137 80.874C171.752 70.9946 169.115 61.0253 166.088 51.8205C164.412 46.9033 162.745 42.0244 161.097 37.1836C160.7 35.9762 160.305 34.7733 159.908 33.566C159.423 31.9674 158.933 30.3733 158.446 28.7814C156.987 23.7833 155.8 17.8026 154.505 12.2671C154.41 11.8422 154.313 11.4128 154.216 10.9923C151.347 16.4019 148.283 22.0206 145.222 26.8096C144.444 27.99 143.67 29.1592 142.887 30.3171C142.492 30.8769 142.099 31.4368 141.704 31.9944C140.924 33.0646 140.136 34.1235 139.346 35.1735C136.751 38.5663 134.025 41.7433 131.243 44.8281C132.786 47.4924 134.293 50.3209 135.673 53.291C139.07 49.9161 142.56 46.2378 145.921 42.0963Z" fill="#FF9B00" fill-opacity="0.2"/>
<path d="M148.097 85.7552C147.275 81.9375 146.453 78.1152 145.627 74.293C144.644 68.7507 143.743 61.4323 142.768 55.256C142.754 55.1526 142.738 55.0447 142.721 54.9413C141.67 57.4999 140.525 60.1193 139.34 62.6779C139.751 63.9932 140.136 65.3288 140.465 66.68C141.849 72.274 142.423 77.9691 142.167 83.59C142.014 86.6456 141.736 89.0761 141.238 91.7337C140.902 93.4447 140.441 95.1624 139.848 96.9319C140.062 98.5642 140.179 100.143 140.152 101.674C140.088 104.887 139.51 107.989 138.401 110.438C140.547 108.817 142.854 107.128 145.405 105.267C146.755 104.284 148.087 103.304 149.409 102.326C149.935 96.9364 149.185 91.1176 148.097 85.7552Z" fill="#FF9B00" fill-opacity="0.2"/>
<path d="M30.295 85.0942C32.1193 87.2167 34.1177 89.2852 36.2775 91.3379C35.921 88.7141 35.7886 85.9823 35.9224 83.1696C36.2988 74.8191 38.8914 65.983 42.1333 57.0727C43.8303 52.4411 45.5145 47.8566 47.1822 43.3216C47.5987 42.1233 48.0126 40.9226 48.4212 39.7287C48.6211 39.1172 48.8202 38.5056 49.02 37.8941C49.0934 37.649 49.1744 37.4039 49.2524 37.1611C49.2578 37.1499 49.264 37.1387 49.2697 37.1252C49.2792 37.1252 49.2814 37.1364 49.2814 37.1364C49.2814 37.1319 49.2792 37.1229 49.287 37.1207C49.287 37.1207 49.2933 37.1207 49.3049 37.1252C49.7136 37.6873 50.126 38.2471 50.5385 38.8024C51.3924 39.9131 52.2503 41.0103 53.1161 42.0963C56.3516 46.0872 59.7117 49.6441 62.9945 52.92C63.6006 51.6497 64.2476 50.3838 64.948 49.1225C65.791 47.5891 66.6915 46.0984 67.609 44.6257C64.8865 41.6039 62.2295 38.4921 59.6865 35.1735C58.8962 34.1235 58.1122 33.0646 57.3315 31.9944C56.9363 31.4368 56.5414 30.8769 56.1501 30.3171C55.3661 29.1592 54.5878 27.99 53.8149 26.8096C50.7549 22.0206 47.6852 16.4019 44.8172 10.9923C44.7227 11.4128 44.626 11.8422 44.5268 12.2671C43.2337 17.8026 42.0443 23.7833 40.5899 28.7814C40.1019 30.3733 39.6139 31.9674 39.1259 33.566C38.7268 34.7733 38.3318 35.9762 37.9367 37.1836C36.2869 42.0244 34.6254 46.9033 32.9458 51.8205C29.9197 61.0253 27.2836 70.9969 26.9003 80.8762C27.1923 81.2652 27.4907 81.6564 27.8062 82.0634C28.6043 83.0707 29.4425 84.0914 30.295 85.0942Z" fill="#FF9B00" fill-opacity="0.2"/>
<path d="M56.2664 55.2557C55.2904 61.432 54.3956 68.7504 53.4062 74.2927C52.5789 78.1149 51.758 81.9371 50.9372 85.7549C49.8501 91.1172 49.1032 96.9361 49.6299 102.325C50.9483 103.303 52.2807 104.284 53.6267 105.264C55.869 106.903 58.275 108.664 60.6409 110.451C59.5257 108.003 58.9504 104.889 58.8827 101.673C58.8497 99.6656 59.0512 97.5723 59.4116 95.3847C58.9023 94.0312 58.408 92.6102 57.9782 91.0656C57.5926 89.6221 57.2424 88.2056 57.0314 86.2203L57.0181 86.0539C56.9269 84.6734 56.8606 83.3829 56.8316 82.0856C56.6867 76.3095 57.2478 70.7178 58.4971 65.4836C58.7606 64.3549 59.0747 63.2195 59.4171 62.084C58.3308 59.7143 57.2833 57.3017 56.3129 54.9409C56.2994 55.0444 56.2813 55.1523 56.2664 55.2557Z" fill="#FF9B00" fill-opacity="0.2"/>
<path d="M158.029 165.419C162.887 163.295 166.634 159.385 169.262 154.497C171.865 149.573 172.909 143.887 173.362 138.538C173.632 134.756 173.858 130.927 174.039 127.053C174.517 121.473 175.329 114.037 175.595 107.636C175.601 107.526 175.605 107.418 175.609 107.312C172.296 113.221 167.853 119.211 163.519 123.44C162.431 124.521 161.349 125.43 160.253 126.32C159.25 127.103 158.24 127.849 157.211 128.555C156.099 129.319 154.974 130.034 153.832 130.709C149.252 133.43 143.882 135.954 139.812 138.403C137.771 139.622 136.03 140.761 134.517 141.852C133.81 142.333 132.77 143.163 132.281 143.781C131.714 144.424 131.271 145.031 130.888 145.62C129.357 147.972 128.352 150.056 127.334 151.882C125.367 155.533 123.58 158.04 121.803 159.155C120.082 160.329 118.436 160.032 118.468 160.068C118.424 160.012 120.514 161.082 123.326 160.77C126.167 160.513 129.542 158.782 132.982 155.43C134.723 153.782 136.484 151.702 138.456 149.544C138.94 149.006 139.458 148.482 139.973 148.017C140.54 147.502 140.822 147.347 141.638 146.841C143.092 145.93 144.68 145 146.346 144.102C149.665 142.272 153.548 140.775 158.323 138.333C159.538 137.695 160.749 137.004 161.94 136.276C162.373 135.995 162.224 136.103 162.26 136.085C162.272 136.087 162.278 136.087 162.286 136.089C162.294 136.096 162.302 136.101 162.317 136.105C162.333 136.137 162.306 136.177 162.306 136.177C162.306 136.177 162.331 136.139 162.373 136.139C162.383 136.141 162.391 136.143 162.407 136.146C162.415 136.15 162.421 136.152 162.427 136.157C162.427 136.193 162.443 136.087 162.427 136.238C162.415 136.386 162.397 136.534 162.383 136.683C162.274 137.832 162.159 138.976 162.043 140.112C161.575 144.548 160.838 148.476 159.238 151.841C157.644 155.165 155.236 158.094 152.351 159.747C149.262 161.552 145.494 162.589 142.113 163.205C135.24 164.405 129.764 164.295 127.086 165.096C124.314 165.799 124.054 167.103 123.973 167.045C124.034 167.092 125.095 166.49 128.444 166.739C131.755 166.865 137.398 168.066 145.136 167.951C148.986 167.825 153.397 167.402 158.029 165.419Z" fill="#FF9B00" fill-opacity="0.2"/>
<path d="M16.6442 96.9901C16.8882 95.7513 17.1322 94.5124 17.38 93.2735C17.4942 92.6395 17.6091 92.0055 17.7263 91.3737C17.7697 91.1173 17.8136 90.861 17.8617 90.6114C17.8617 90.5979 17.8704 90.5867 17.8704 90.5732C17.8813 90.5732 17.8837 90.5845 17.8837 90.5845C17.8837 90.5845 17.8813 90.5687 17.8877 90.5642C17.8932 90.5642 17.8972 90.5642 17.9051 90.5732C18.3614 91.1601 18.8204 91.7356 19.2855 92.3112C20.2401 93.4556 21.2107 94.5776 22.2024 95.677C26.1567 100.019 30.3722 103.695 34.5459 106.881C42.9502 113.241 50.9076 117.835 57.1435 122.763C60.2885 125.203 63.0969 127.642 65.599 130.043C66.1877 130.628 66.7827 131.201 67.3769 131.766C67.6981 132.098 68.1726 132.717 68.5236 133.268C69.277 134.419 69.9137 135.685 70.493 136.935C72.7619 141.978 74.3904 146.783 76.2016 150.886C79.157 157.892 82.5634 162.951 86.2547 165.696C86.2468 165.687 86.243 165.676 86.2373 165.664L85.8108 165.311L85.8077 164.808L85.5903 164.522L85.6464 164.131C85.4858 163.681 85.3425 163.263 85.2047 162.937C83.6959 159.355 82.6641 155.315 81.9865 151.439C81.382 147.979 80.9428 144.325 80.2297 140.777C79.7417 138.974 79.186 137.094 78.4848 135.113C77.9992 133.814 77.4506 132.469 76.6124 131.026C76.1693 130.282 75.7387 129.6 74.9493 128.699C74.289 128.013 73.6648 127.363 73.01 126.707C70.3938 124.069 67.2486 121.23 63.5635 118.244C59.8839 115.256 55.6678 112.167 51.4097 109.057C47.1414 105.948 42.8637 102.8 38.8134 99.4049C34.7568 96.0121 30.9033 92.3427 27.3475 88.2124C26.4627 87.1714 25.5931 86.1124 24.7392 85.031C24.3015 84.4666 23.8734 83.9023 23.4452 83.3335C22.5897 82.1553 21.7467 80.9547 20.9258 79.7428C17.6508 74.8121 14.5372 68.8989 11.9013 63.1228C11.8274 63.5725 11.7564 64.0176 11.6825 64.4651C10.7119 70.2546 9.9398 76.4804 8.90958 81.6247C8.55698 83.2593 8.2084 84.8961 7.85801 86.5284C7.57552 87.7583 7.2882 88.9859 6.99947 90.2157C5.79759 95.1307 4.59248 100.043 3.39785 104.958C1.14117 114.815 -0.602927 125.481 1.18851 136.186C2.05572 141.49 3.83528 146.652 6.40668 151.205C7.73127 153.537 9.05284 155.513 10.8048 157.631C12.5467 159.695 14.4852 161.446 16.4733 162.962C24.5163 168.94 32.9773 171.708 40.4521 173.651C47.9765 175.528 54.7194 176.362 60.3272 177.012C65.9459 177.642 70.4055 178.107 73.5562 178.795C79.918 180.11 80.8791 182.413 80.9986 182.343C80.9712 182.359 80.8515 181.727 80.1423 180.755C79.4222 179.786 77.9898 178.539 75.1036 177.459C72.2511 176.358 67.9711 175.425 62.5545 174.291C57.1568 173.14 50.6352 171.749 43.5972 169.363C36.6412 166.984 28.879 163.576 22.6352 158.285C21.0958 156.97 19.6941 155.545 18.544 154.043C17.4344 152.581 16.2396 150.674 15.3258 148.91C13.4233 145.263 12.1491 141.276 11.5273 137.133C10.2382 128.8 11.5682 120.016 13.5336 111.015C14.5732 106.337 15.6115 101.662 16.6442 96.9901Z" fill="#FF9B00" fill-opacity="0.2"/>
<path d="M77.2338 159.155C75.4573 158.04 73.6644 155.533 71.7007 151.882C70.6822 150.056 69.6796 147.972 68.147 145.62C67.7638 145.031 67.3183 144.424 66.7531 143.781C66.2643 143.163 65.2271 142.333 64.514 141.852C63.0052 140.761 61.265 139.622 59.2192 138.403C55.1526 135.954 49.7825 133.43 45.2008 130.709C44.062 130.034 42.9365 129.319 41.8251 128.555C40.7949 127.849 39.7842 127.103 38.7824 126.32C37.6867 125.43 36.6021 124.521 35.5161 123.44C31.1857 119.211 26.741 113.221 23.4235 107.312C23.4313 107.418 23.4329 107.526 23.437 107.636C23.7068 114.037 24.52 121.473 24.9977 127.053C25.1748 130.927 25.3991 134.756 25.6721 138.538C26.1246 143.887 27.1692 149.573 29.7712 154.497C32.3992 159.385 36.1473 163.295 41.0042 165.419C45.6425 167.402 50.0493 167.825 53.8979 167.951C61.6341 168.066 67.2774 166.865 70.5893 166.739C73.939 166.49 75.0009 167.092 75.0607 167.045C74.9811 167.103 74.716 165.799 71.9485 165.096C69.2718 164.295 63.7922 164.405 56.9188 163.205C53.5431 162.589 49.7769 161.552 46.6822 159.747C43.7969 158.094 41.3907 155.165 39.7953 151.841C38.1961 148.476 37.4578 144.548 36.9918 140.112C36.8753 138.976 36.7588 137.832 36.6502 136.683C36.6353 136.534 36.621 136.386 36.6061 136.238C36.5904 136.087 36.6061 136.193 36.6077 136.157C36.6172 136.152 36.621 136.15 36.6259 136.146C36.6408 136.143 36.6502 136.141 36.6605 136.139C36.7028 136.139 36.728 136.177 36.728 136.177C36.728 136.177 36.6966 136.137 36.7179 136.105C36.7337 136.101 36.7399 136.096 36.747 136.089C36.7532 136.087 36.7643 136.087 36.7705 136.085C36.8108 136.103 36.6605 135.995 37.0925 136.276C38.289 137.004 39.4914 137.695 40.7098 138.333C45.4849 140.775 49.3684 142.272 52.6914 144.102C54.3545 145 55.9388 145.93 57.395 146.841C58.2118 147.347 58.4929 147.502 59.0627 148.017C59.5759 148.482 60.0929 149.006 60.5809 149.544C62.5525 151.702 64.3125 153.782 66.0495 155.43C69.4968 158.782 72.8671 160.513 75.7077 160.77C78.5213 161.082 80.6087 160.012 80.5686 160.068C80.5952 160.032 78.9551 160.329 77.2338 159.155Z" fill="#FF9B00" fill-opacity="0.2"/>
<path d="M137.924 90.9602C138.418 88.3341 138.657 86.0228 138.79 83.3967C139.022 78.2771 138.504 72.9238 137.201 67.6716C134.624 57.093 129.05 47.3238 123 38.2471L113.749 24.7321L111.499 21.3528L108.642 16.8561C105.742 12.1435 102.97 6.45961 100.155 1.20965L99.5161 0C96.7829 5.07233 94.0181 10.5606 91.2349 15.4396L89.1028 19.0527L88.0206 20.8065L85.8608 24.188C82.9346 28.6578 79.8288 32.9836 76.7128 37.3747C73.6101 41.7635 70.4942 46.2581 67.8259 51.1033C65.1491 55.9396 63.0037 61.1648 61.7639 66.4575C60.5038 71.7456 60.0891 77.0135 60.2126 81.9914C60.2402 83.2281 60.3039 84.4602 60.3914 85.7777C60.5677 87.4618 60.8637 88.6534 61.2084 89.944C61.9017 92.4307 62.7691 94.6228 63.6561 96.7408C67.2853 105.098 71.2379 112.158 74.627 118.768C81.5209 131.863 86.4046 142.722 88.2803 150.727C90.2841 158.717 89.1263 163.432 89.1767 163.394C89.1052 163.448 91.0822 158.938 90.1755 150.398C89.405 141.913 85.7931 130.059 80.2356 116.178C77.5361 109.228 74.2296 101.685 71.5456 93.7235C70.8972 91.7427 70.295 89.7281 69.9291 87.817C69.7465 86.9087 69.6173 85.8519 69.6095 85.2493L69.6983 82.0949C69.9014 77.7511 70.5563 73.4004 71.8321 69.1757C74.2847 60.6791 79.7641 52.8908 86.2402 44.4391C89.4475 40.2055 92.8098 35.7784 96.0124 31.0568L98.3898 27.4684L99.5222 25.6742C99.5302 25.6674 99.5403 25.6674 99.5403 25.6674C99.5524 25.6697 99.5524 25.6809 99.5524 25.6809C99.5524 25.6854 99.5524 25.6719 99.5665 25.6719L99.5927 25.7057L100.066 26.4319L101.271 28.2374L103.693 31.7605L113.248 45.0349C119.347 53.5653 124.505 61.8955 127.128 70.473C128.46 74.7404 129.167 79.0416 129.278 83.2843C129.335 85.337 129.248 87.6416 129.042 89.5033C128.823 91.4144 128.377 93.3615 127.793 95.2839C125.395 103.023 121.41 110.211 118.029 116.83C114.579 123.463 111.481 129.617 109.319 135.305C107.13 140.973 105.917 146.189 105.696 150.504C105.448 154.828 106.153 158.142 106.828 160.253C107.529 162.373 108.11 163.385 108.087 163.394C108.255 163.448 106.073 158.827 107.614 150.742C108.386 146.747 110.153 142.059 112.887 136.942C115.599 131.8 119.244 126.23 123.36 120.002C127.408 113.716 132.178 106.937 135.778 98.1213C136.655 95.9044 137.422 93.5346 137.924 90.9602Z" fill="#FF9B00" fill-opacity="0.2"/>
<path d="M108.523 112.614C107.82 116.524 106.417 120.47 105.218 124.117C103.484 129.155 99.4156 133.821 98.8877 137.729C98.5008 133.882 96.662 131.804 94.1269 125.365C92.7265 121.806 91.5823 116.173 90.7124 112.007C90.4977 110.973 90.3214 109.943 90.2206 108.992C90.0985 107.947 90.141 107.546 90.2285 106.346C90.3812 104.196 90.7022 102.029 91.2202 99.9469C92.2307 95.7581 94.2967 91.9067 97.1246 87.257L99.2584 83.6529C99.5183 83.201 99.4337 83.3696 99.4619 83.3336H99.4881L99.5264 83.3359C99.5707 83.3561 99.5707 83.41 99.5707 83.41C99.5707 83.41 99.5707 83.3583 99.611 83.3426L99.6493 83.3359L99.6795 83.3403C99.7037 83.3786 99.6493 83.2684 99.738 83.4236L99.9938 83.88L102.013 87.4212C104.614 92.0191 106.667 96.2505 107.765 100.466C108.833 104.637 109.184 108.979 108.523 112.614ZM118.023 98.4494C117.223 92.6711 115.017 87.0232 112.512 81.8834L107.04 71.0417C104.642 65.7715 102.049 58.8601 99.6453 53.1222L99.5264 52.8277C97.1911 58.4598 94.6612 64.9352 92.3119 70.4279C91.7177 71.8174 91.0808 73.0698 90.4584 74.3581L88.6983 77.7644L86.789 81.4337C84.1884 86.3194 81.6164 92.2124 80.9505 98.0694C80.5846 100.97 80.5491 103.749 80.7292 106.395C80.7734 107.596 81.0252 109.559 81.4054 110.789C81.7691 112.115 82.1776 113.304 82.6057 114.422C84.3254 118.878 86.1594 122.615 87.7554 126.095C90.9873 132.989 93.3578 138.585 94.4053 142.664C94.5857 143.322 94.7211 143.918 94.8375 144.487V218H103.685V168.419C103.715 168.421 103.756 168.421 103.786 168.423V168.147C103.756 168.151 103.715 168.16 103.685 168.163V141.461C104.775 137.549 107.342 132.658 110.866 126.673C112.762 123.319 114.973 119.64 116.693 114.851C118.462 109.786 118.787 104.217 118.023 98.4494Z" fill="#FF9B00" fill-opacity="0.2"/>
<path d="M195.636 104.958C194.44 100.043 193.235 95.1307 192.034 90.2157C191.75 88.9859 191.464 87.7583 191.175 86.5284C190.829 84.8961 190.478 83.2593 190.126 81.6247C189.094 76.4804 188.322 70.2546 187.353 64.4651C187.281 64.0176 187.206 63.5725 187.138 63.1228C184.496 68.8989 181.387 74.8121 178.111 79.7428C177.285 80.9547 176.447 82.1553 175.59 83.3335C175.161 83.9023 174.732 84.4666 174.297 85.031C173.438 86.1124 172.572 87.1714 171.687 88.2124C168.131 92.3427 164.279 96.0121 160.225 99.4049C156.173 102.8 151.893 105.948 147.626 109.057C143.366 112.167 139.149 115.256 135.474 118.244C131.782 121.23 128.639 124.069 126.022 126.707C125.367 127.363 124.744 128.013 124.088 128.699C123.298 129.6 122.865 130.282 122.423 131.026C121.585 132.469 121.035 133.814 120.551 135.113C118.714 140.296 117.825 144.867 116.731 148.936C116.25 150.879 115.736 152.673 115.198 154.344C114.273 159.047 113.131 163.423 110.586 167.07C110.644 167.043 110.701 167.018 110.759 166.986C115.23 164.758 119.342 159.158 122.832 150.886C124.648 146.783 126.27 141.978 128.538 136.935C129.121 135.685 129.762 134.419 130.511 133.268C130.864 132.717 131.335 132.098 131.658 131.766C132.252 131.201 132.846 130.628 133.435 130.043C135.939 127.642 138.746 125.203 141.889 122.763C148.123 117.835 156.084 113.241 164.488 106.881C168.661 103.695 172.878 100.019 176.831 95.677C177.823 94.5776 178.794 93.4556 179.749 92.3112C180.212 91.7356 180.674 91.1601 181.131 90.5732C181.139 90.5642 181.145 90.5642 181.145 90.5642C181.155 90.5687 181.151 90.5822 181.151 90.5822C181.151 90.5822 181.151 90.5732 181.163 90.5732C181.169 90.5867 181.169 90.5979 181.171 90.6114C181.22 90.861 181.264 91.1173 181.306 91.3737C181.423 92.0055 181.542 92.6395 181.655 93.2735C181.903 94.5124 182.145 95.7513 182.393 96.9901C183.422 101.662 184.46 106.337 185.501 111.015C187.464 120.016 188.798 128.8 187.51 137.133C186.886 141.276 185.612 145.263 183.71 148.91C182.795 150.674 181.603 152.581 180.486 154.043C179.34 155.545 177.938 156.97 176.396 158.285C170.152 163.576 162.391 166.984 155.437 169.363C148.397 171.749 141.879 173.14 136.477 174.291C131.063 175.425 126.788 176.358 123.93 177.459C121.043 178.539 119.614 179.786 118.889 180.755C118.186 181.727 118.061 182.359 118.037 182.343C118.152 182.413 119.119 180.11 125.476 178.795C128.629 178.107 133.09 177.642 138.708 177.012C144.315 176.362 151.059 175.528 158.583 173.651C166.058 171.708 174.52 168.94 182.56 162.962C184.548 161.446 186.489 159.695 188.23 157.631C189.981 155.513 191.302 153.537 192.626 151.205C195.201 146.652 196.974 141.49 197.847 136.186C199.636 125.481 197.895 114.815 195.636 104.958Z" fill="#FF9B00" fill-opacity="0.2"/>
<path d="M49.8845 147.572C44.5766 147.572 44.5766 156.754 49.8845 156.754C55.1909 156.754 55.1909 147.572 49.8845 147.572Z" fill="#FF9B00" fill-opacity="0.2"/>
<path d="M146.989 147.572C141.682 147.572 141.682 156.754 146.989 156.754C152.298 156.754 152.298 147.572 146.989 147.572Z" fill="#FF9B00" fill-opacity="0.2"/>
<path d="M98.4362 102.575C93.131 102.575 93.131 111.758 98.4362 111.758C103.745 111.758 103.745 102.575 98.4362 102.575Z" fill="#FF9B00" fill-opacity="0.2"/>
</svg>
