<svg width="435" height="457" viewBox="0 0 435 457" fill="none" xmlns="http://www.w3.org/2000/svg">
<path d="M226.696 280.056C227.023 286.449 228.838 294.174 232.095 302.573C235.316 311.001 239.927 320.118 245.066 329.937C250.103 339.745 256.029 350.396 259.609 361.856C260.475 364.703 261.137 367.589 261.464 370.425C261.771 373.177 261.897 376.588 261.814 379.633C261.645 385.915 260.589 392.283 258.613 398.609C254.706 411.311 247.027 423.654 237.947 436.288L223.719 455.951L220.104 461.172L218.316 463.845L217.615 464.918L217.572 464.973C217.552 464.973 217.552 464.949 217.552 464.949C217.552 464.949 217.552 464.977 217.537 464.977C217.529 464.981 217.521 464.977 217.505 464.961L215.82 462.315L212.279 457C207.515 450 202.502 443.446 197.729 437.176C188.089 424.651 179.922 413.117 176.271 400.529C174.373 394.267 173.401 387.827 173.093 381.395L172.964 376.722C172.975 375.823 173.168 374.262 173.436 372.917C173.991 370.082 174.881 367.1 175.842 364.162C179.851 352.371 184.765 341.2 188.786 330.907C197.067 310.342 202.443 292.786 203.592 280.214C203.675 279.445 203.695 278.763 203.75 278.037C202.994 278.708 202.242 279.362 201.45 280.127C201.096 280.462 200.722 280.873 200.359 281.227C197.343 292.928 190.286 308.457 180.438 327.07C175.393 336.862 169.498 347.32 164.095 359.694C162.776 362.833 161.485 366.083 160.457 369.77C159.941 371.675 159.5 373.441 159.236 375.938C159.106 377.886 159.008 379.715 158.972 381.545C158.787 388.92 159.405 396.724 161.284 404.559C163.123 412.395 166.328 420.132 170.305 427.297C174.283 434.478 178.922 441.131 183.541 447.634C188.18 454.14 192.811 460.545 197.166 467.17L200.383 472.174L201.994 474.777L205.168 480.124C209.31 487.356 213.421 495.484 217.497 503L218.45 501.202C222.636 493.429 226.767 485.01 231.087 478.03L235.336 471.369L238.695 466.361L252.462 446.34C261.479 432.901 269.777 418.432 273.608 402.757C275.55 394.977 276.325 387.05 275.975 379.463C275.778 375.575 275.424 372.156 274.699 368.26C273.943 364.446 272.801 360.937 271.497 357.652C266.13 344.599 259.038 334.555 253.005 325.244C246.878 316.017 241.447 307.763 237.407 300.152C233.331 292.565 230.709 285.624 229.559 279.701C229.319 278.463 229.173 277.312 229.039 276.188C228.256 275.557 227.495 274.969 226.763 274.449C226.645 276.184 226.582 278.014 226.696 280.056Z" fill="#382405"/>
<path d="M217.58 379.546L217.541 379.554L217.478 379.546C217.415 379.522 217.415 379.44 217.415 379.44C217.415 379.447 217.415 379.522 217.356 379.554L217.296 379.562L217.253 379.558C217.214 379.507 217.336 379.755 216.954 379.085L213.776 373.745C209.566 366.852 206.487 361.15 204.987 354.951C204.215 351.863 203.738 348.653 203.51 345.467C203.376 343.692 203.313 343.097 203.49 341.551C203.648 340.143 203.908 338.617 204.231 337.083C205.526 330.915 207.212 324.823 208.519 319.251C211.236 308.079 212.705 298.606 212.583 292.025C212.563 285.396 211.012 282.012 211.094 282.032C211.035 282.032 211.39 285.648 209.728 291.67C208.168 297.715 204.644 306.008 199.828 316.218C197.45 321.368 194.717 326.905 192.161 333.506C191.519 335.162 190.913 336.921 190.373 338.889C189.81 340.715 189.432 343.621 189.365 345.4C189.093 349.315 189.141 353.432 189.688 357.731C190.688 366.402 194.512 375.133 198.387 382.374L201.23 387.804L203.853 392.851C204.774 394.76 205.723 396.617 206.605 398.68C210.106 406.807 213.871 416.406 217.352 424.742L217.529 424.312C221.108 415.806 224.967 405.577 228.543 397.765L236.683 381.711C240.424 374.088 243.696 365.728 244.897 357.167C246.031 348.621 245.543 340.376 242.916 332.871C240.353 325.781 237.061 320.327 234.241 315.362C228.449 305.578 224.365 297.755 223.085 291.686C221.687 285.668 222.652 282.012 222.526 282.032C222.684 282.04 220.53 285.175 220.211 291.93C219.762 298.654 222.089 308.351 225.834 319.144C227.618 324.547 229.701 330.391 230.752 336.184C231.737 341.57 231.213 348.002 229.622 354.182C227.988 360.424 224.932 366.686 221.057 373.501L218.053 378.749L217.663 379.428C217.529 379.656 217.615 379.491 217.58 379.546Z" fill="#382405"/>
<path d="M203.592 222.786C202.443 210.218 197.067 192.658 188.786 172.097C184.765 161.8 179.851 150.629 175.842 138.838C174.881 135.904 173.991 132.914 173.436 130.087C173.168 128.738 172.975 127.181 172.964 126.282L173.093 121.612C173.401 115.169 174.373 108.729 176.271 102.471C179.922 89.8833 188.089 78.3527 197.729 65.8282C202.502 59.5581 207.515 53.0041 212.279 46.0044L215.82 40.6847L217.505 38.0386C217.521 38.0268 217.529 38.0229 217.537 38.0268C217.552 38.0268 217.552 38.0465 217.552 38.0465C217.552 38.0465 217.552 38.0268 217.572 38.0268L217.615 38.0821L218.316 39.1547L220.104 41.8323L223.719 47.0455L237.947 66.7115C247.027 79.3464 254.706 91.6895 258.613 104.395C260.589 110.717 261.645 117.085 261.814 123.371C261.897 126.416 261.771 129.827 261.464 132.579C261.137 135.415 260.475 138.301 259.609 141.148C256.029 152.608 250.103 163.255 245.066 173.059C239.927 182.882 235.316 192.007 232.095 200.431C228.838 208.826 227.023 216.555 226.696 222.944C226.472 226.816 226.791 230.066 227.287 232.783C227.763 232.546 228.252 232.282 228.752 231.998C228.732 229.502 228.925 226.619 229.559 223.299C230.709 217.372 233.331 210.435 237.407 202.852C241.447 195.237 246.878 186.983 253.005 177.76C259.038 168.449 266.13 158.401 271.497 145.348C272.801 142.063 273.943 138.554 274.699 134.744C275.424 130.848 275.778 127.429 275.975 123.537C276.325 115.95 275.55 108.023 273.608 100.247C269.777 84.5715 261.479 70.099 252.462 56.6597L238.695 36.6387L235.336 31.6305L231.087 24.97C226.767 17.9901 222.636 9.57081 218.45 1.79824L217.497 0C213.421 7.52019 209.31 15.6477 205.168 22.88L201.994 28.2273L200.383 30.826L197.166 35.8303C192.811 42.4553 188.18 48.8555 183.541 55.3662C178.922 61.869 174.283 68.5216 170.305 75.7066C166.328 82.868 163.123 90.605 161.284 98.4406C159.405 106.28 158.787 114.084 158.972 121.455C159.008 123.285 159.106 125.114 159.236 127.062C159.5 129.562 159.941 131.325 160.457 133.234C161.485 136.921 162.776 140.166 164.095 143.305C169.498 155.684 175.393 166.138 180.438 175.93C190.7 195.324 197.969 211.417 200.765 223.267C201.308 225.424 201.659 227.352 201.927 229.166C202.6 229.667 203.262 230.144 203.911 230.57C203.97 228.291 203.907 225.716 203.592 222.786Z" fill="#382405"/>
<path d="M229.622 148.818C231.213 155.002 231.737 161.434 230.752 166.816C229.701 172.609 227.618 178.454 225.834 183.856C222.089 194.653 219.762 204.346 220.211 211.07C220.53 217.825 222.684 220.964 222.526 220.968C222.652 220.988 221.687 217.332 223.085 211.318C224.365 205.249 228.449 197.422 234.241 187.642C237.061 182.677 240.353 177.219 242.916 170.129C245.543 162.624 246.031 154.375 244.897 145.833C243.696 137.276 240.424 128.908 236.683 121.293L228.543 105.235C224.967 97.4272 221.108 87.19 217.529 78.6879L217.352 78.258C213.871 86.5945 210.106 96.1929 206.605 104.324C205.723 106.383 204.774 108.24 203.853 110.153L201.23 115.196L198.387 120.631C194.512 127.867 190.688 136.598 189.688 145.273C189.141 149.568 189.093 153.685 189.365 157.601C189.432 159.379 189.81 162.293 190.373 164.111C190.913 166.079 191.519 167.838 192.161 169.498C194.717 176.099 197.45 181.628 199.828 186.786C204.644 196.996 208.168 205.285 209.728 211.33C211.39 217.352 211.035 220.976 211.094 220.968C211.012 220.988 212.563 217.6 212.583 210.983C212.705 204.39 211.236 194.921 208.519 183.75C207.212 178.178 205.526 172.089 204.231 165.917C203.908 164.383 203.648 162.861 203.49 161.449C203.313 159.904 203.376 159.308 203.51 157.534C203.738 154.347 204.215 151.137 204.987 148.053C206.487 141.85 209.566 136.148 213.776 129.255L216.954 123.915C217.336 123.245 217.214 123.497 217.253 123.442H217.296L217.356 123.446C217.415 123.474 217.415 123.553 217.415 123.557C217.415 123.557 217.415 123.482 217.478 123.458L217.541 123.446L217.58 123.454C217.615 123.509 217.529 123.344 217.663 123.576L218.053 124.255L221.057 129.495C224.932 136.314 227.988 142.576 229.622 148.818Z" fill="#382405"/>
<path d="M420.196 352.983L416.562 345.963L413.911 340.549L403.484 318.596C396.36 304.06 388 289.623 376.364 278.463C370.61 272.895 364.133 268.257 357.399 264.767C353.941 262.993 350.803 261.589 347.07 260.28C343.404 259.026 339.792 258.265 336.299 257.748C322.328 255.871 310.089 257.007 299.023 257.575C287.982 258.276 278.133 258.86 269.529 258.564C260.932 258.3 253.616 257.109 247.917 255.145C246.728 254.735 245.634 254.29 244.598 253.84C243.661 254.215 242.763 254.578 241.952 254.948C243.381 255.922 244.976 256.884 246.795 257.803C252.485 260.706 260.07 263.009 268.965 264.377C277.861 265.793 288.056 266.361 299.114 266.81C310.116 267.346 322.285 267.532 333.992 270.162C336.886 270.825 339.71 271.696 342.324 272.828C344.861 273.944 347.877 275.537 350.464 277.134C355.816 280.419 360.797 284.52 365.275 289.398C374.308 299.135 381.14 311.967 387.532 326.159L397.416 348.333L400.121 354.071L402.125 358.113L402.145 358.172C402.137 358.188 402.121 358.184 402.121 358.184C402.125 358.184 402.141 358.192 402.129 358.208C402.129 358.216 402.125 358.22 402.106 358.227L398.971 358.366L392.603 358.768C384.165 359.411 375.993 360.475 368.189 361.481C352.531 363.579 338.477 364.892 325.766 361.765C319.406 360.282 313.346 357.908 307.628 354.95L303.52 352.734C302.749 352.273 301.5 351.326 300.473 350.415C298.299 348.527 296.161 346.263 294.109 343.956C285.906 334.59 278.704 324.732 271.817 316.107C258.168 298.642 245.677 285.202 235.379 277.919C233.02 276.2 230.827 274.843 228.842 273.759C228.894 274.543 228.949 275.336 229.039 276.188C230.473 277.327 231.965 278.589 233.548 280.127C242.404 288.479 252.686 302.83 264.323 321.427C270.269 330.698 276.361 341.038 284.371 351.91C286.418 354.623 288.584 357.368 291.254 360.105C292.648 361.505 293.955 362.77 295.983 364.249C297.602 365.334 299.134 366.331 300.701 367.282C306.978 371.123 314.047 374.49 321.757 376.781C329.455 379.104 337.745 380.197 345.932 380.327C354.13 380.461 362.203 379.771 370.138 379.014C378.081 378.252 385.937 377.436 393.844 376.975L399.782 376.683L402.834 376.588L409.048 376.509C417.369 376.525 426.457 377.026 434.995 377.251L433.916 375.531C429.289 368.007 424.075 360.215 420.196 352.983Z" fill="#382405"/>
<path d="M226.926 272.753C226.859 273.301 226.802 273.865 226.763 274.449C227.495 274.969 228.256 275.557 229.039 276.188C228.949 275.336 228.894 274.543 228.842 273.759C228.181 273.396 227.536 273.053 226.926 272.753Z" fill="#382405"/>
<path d="M328.126 315.737C328.059 315.753 328.33 315.769 327.566 315.769L321.356 315.855C313.288 316.061 306.822 315.879 300.71 314.077C297.654 313.201 294.638 312.014 291.767 310.618C290.168 309.838 289.621 309.605 288.373 308.674C287.231 307.834 286.045 306.845 284.876 305.8C280.186 301.596 275.763 297.085 271.601 293.165C263.3 285.223 255.842 279.217 250.088 276.026C244.343 272.73 240.645 272.383 240.704 272.324C240.665 272.375 243.973 273.873 248.356 278.326C252.798 282.699 258.212 289.903 264.631 299.186C267.895 303.824 271.318 308.958 275.752 314.479C276.862 315.859 278.079 317.267 279.508 318.722C280.804 320.118 283.135 321.905 284.639 322.851C287.888 325.044 291.476 327.063 295.469 328.731C303.459 332.213 312.929 333.254 321.124 333.51L327.243 333.759L332.914 334.015C335.029 334.165 337.108 334.268 339.333 334.536C348.122 335.565 358.298 337.099 367.252 338.25L366.965 337.88C361.401 330.521 354.478 322.059 349.508 315.059L339.703 299.963C334.981 292.916 329.386 285.889 322.581 280.573C315.761 275.317 308.377 271.618 300.58 270.147C293.161 268.822 286.801 268.948 281.095 268.908C269.742 269.043 260.929 268.676 255.046 266.747C249.147 264.949 246.462 262.287 246.422 262.402C246.501 262.268 248.139 265.706 253.825 269.362C259.413 273.12 268.959 275.944 280.166 278.093C285.726 279.252 291.83 280.36 297.363 282.352C302.51 284.193 307.81 287.861 312.362 292.325C316.934 296.868 320.833 302.645 324.786 309.416L328.216 315.323C328.346 315.552 328.252 315.398 328.275 315.457L328.259 315.493L328.224 315.536C328.173 315.583 328.102 315.544 328.102 315.544C328.11 315.548 328.173 315.583 328.169 315.65L328.145 315.706L328.126 315.737Z" fill="#382405"/>
<path d="M185.711 249.203C174.271 243.915 156.393 239.802 134.475 236.698C123.563 235.038 111.434 233.717 99.2349 231.292C96.2224 230.661 93.1902 229.943 90.4691 229.005C89.1735 228.563 87.7205 227.948 86.9447 227.518L82.9636 225.061C77.5568 221.579 72.4652 217.521 68.0075 212.742C58.9464 203.281 53.0552 190.434 47.046 175.807C44.0138 168.535 40.8399 160.913 37.1816 153.274L34.3502 147.552L32.8972 144.76C32.8972 144.741 32.8972 144.737 32.8972 144.733C32.9129 144.717 32.9287 144.725 32.9366 144.725C32.9366 144.733 32.9129 144.717 32.9287 144.701L32.9838 144.693L34.2715 144.614L37.477 144.405L43.8012 143.885L67.9168 141.373C83.3848 139.815 97.896 139.322 110.84 142.288C117.298 143.735 123.323 146.006 128.852 149.007C131.522 150.451 134.416 152.269 136.637 153.913C138.925 155.609 141.087 157.628 143.119 159.801C151.243 168.642 157.488 179.104 163.45 188.375C169.373 197.741 174.957 206.302 180.631 213.306C186.262 220.329 192.039 225.763 197.403 229.241C199.104 230.361 200.738 231.264 202.286 232.017C202.199 231.13 202.072 230.172 201.927 229.166C201.013 228.496 200.092 227.766 199.135 226.946C194.587 222.983 189.909 217.237 185.38 209.91C180.816 202.595 176.394 193.766 171.483 183.836C166.439 173.95 161.308 162.774 152.7 151.594C150.51 148.83 148.041 146.069 145.119 143.518C142.122 140.943 139.338 138.916 136.078 136.806C129.691 132.705 122.445 129.42 114.75 127.204C99.2782 122.701 82.6209 122.657 66.4835 123.753L42.2851 125.682L36.2759 126.096L28.3922 126.451C20.1896 126.703 10.849 126.076 2.03201 125.824L0 125.753C4.46163 133.044 9.4431 140.671 13.6212 147.88L16.6534 153.31L18.0986 156.007L20.8236 161.303C24.3756 168.393 27.5967 175.61 30.9046 182.882C34.2203 190.142 37.6541 197.488 41.8716 204.535C46.0773 211.566 51.169 218.207 57.0246 223.724C62.8645 229.273 69.303 233.705 75.773 237.235C77.3757 238.118 79.0059 238.946 80.7504 239.81C83.0501 240.827 84.7947 241.332 86.7006 241.84C90.4062 242.787 93.8597 243.288 97.2345 243.71C110.635 245.216 122.626 245.338 133.617 245.859C155.519 246.651 173.07 248.391 184.715 251.896C186.853 252.5 188.692 253.162 190.397 253.84C191.177 253.505 191.921 253.158 192.618 252.815C190.673 251.628 188.397 250.394 185.711 249.203Z" fill="#382405"/>
<path d="M203.805 232.723C203.853 232.025 203.896 231.335 203.911 230.57C203.262 230.144 202.6 229.667 201.927 229.166C202.072 230.172 202.199 231.13 202.286 232.017C202.801 232.27 203.309 232.511 203.805 232.723Z" fill="#382405"/>
<path d="M107.729 187.393L113.77 187.416C121.598 187.46 128.553 187.949 134.763 189.644C140.902 191.356 146.726 194.12 150.888 197.665C155.374 201.471 159.379 206.199 163.167 210.446C170.633 219.094 177.847 225.96 183.884 228.929C189.893 232.033 193.685 231.733 193.611 231.875C193.689 231.776 190.047 230.783 185.546 226.559C180.931 222.426 176.209 214.969 170.645 205.052C167.762 200.122 164.691 194.542 159.839 188.773C154.657 182.743 147.774 178.197 139.823 174.908C131.817 171.666 122.945 170.325 114.49 169.754L96.5298 168.791C87.9924 167.983 77.2105 166.212 68.0627 165.065L67.6099 165.006C73.0718 172.191 79.4944 180.251 84.7791 187.357C86.114 189.155 87.2481 190.902 88.4295 192.661L91.4853 197.452L94.7617 202.638C99.0855 209.618 104.724 217.304 111.73 222.501C115.176 225.124 118.708 227.23 122.228 228.953C123.8 229.785 126.505 230.909 128.36 231.331C130.337 231.847 132.164 232.198 133.912 232.474C140.902 233.555 147.049 233.953 152.696 234.47C163.939 235.397 172.866 236.485 178.875 238.153C184.912 239.726 187.865 241.844 187.893 241.793C187.873 241.868 185.719 238.831 179.997 235.503C174.366 232.104 165.439 228.641 154.421 225.412C148.943 223.763 142.835 222.174 136.854 220.218C135.365 219.733 133.916 219.193 132.621 218.625C131.191 218.002 130.715 217.651 129.242 216.653C126.603 214.855 124.063 212.84 121.779 210.632C117.168 206.223 113.77 200.706 109.923 193.612L106.894 188.177C106.508 187.515 106.654 187.744 106.63 187.681L106.65 187.649L106.686 187.602C106.741 187.558 106.812 187.602 106.812 187.602C106.812 187.602 106.745 187.558 106.76 187.495L106.784 187.44L106.808 187.408C106.867 187.405 106.686 187.393 106.949 187.393H107.729Z" fill="#382405"/>
<path d="M237.597 229.241C242.961 225.763 248.742 220.329 254.369 213.306C260.047 206.298 265.623 197.741 271.55 188.375C277.516 179.104 283.761 168.642 291.881 159.801C293.909 157.628 296.075 155.609 298.363 153.913C300.588 152.269 303.482 150.451 306.148 149.007C311.669 146.006 317.702 143.735 324.168 142.288C337.1 139.322 351.615 139.815 367.083 141.373L391.203 143.877L397.523 144.405L400.728 144.614L402.016 144.689L402.075 144.701C402.087 144.717 402.067 144.733 402.067 144.725C402.071 144.725 402.087 144.717 402.095 144.733C402.107 144.737 402.107 144.741 402.103 144.76L400.654 147.552L397.814 153.274C394.16 160.913 390.99 168.535 387.954 175.807C381.945 190.434 376.058 203.281 366.997 212.742C362.535 217.521 357.447 221.579 352.036 225.061L348.055 227.518C347.28 227.948 345.826 228.563 344.531 229.005C341.81 229.943 338.782 230.661 335.761 231.288C323.558 233.713 311.441 235.038 300.529 236.698C278.607 239.802 260.729 243.915 249.293 249.203C246.603 250.394 244.323 251.628 242.386 252.815C243.079 253.158 243.826 253.505 244.598 253.84C246.307 253.162 248.147 252.5 250.281 251.896C261.93 248.391 279.481 246.651 301.383 245.859C312.374 245.338 324.365 245.216 337.769 243.71C341.14 243.288 344.598 242.787 348.299 241.84C350.209 241.332 351.954 240.827 354.246 239.81C355.994 238.946 357.624 238.118 359.223 237.235C365.697 233.705 372.135 229.273 377.975 223.724C383.835 218.203 388.923 211.566 393.132 204.535C397.35 197.488 400.784 190.142 404.095 182.882C407.403 175.61 410.632 168.393 414.177 161.303L416.897 156.007L418.343 153.31L421.379 147.88C425.557 140.671 430.534 133.044 435 125.753L432.968 125.824C424.151 126.076 414.81 126.703 406.608 126.451L398.724 126.096L392.715 125.682L368.521 123.753C352.383 122.657 335.722 122.701 320.254 127.204C312.559 129.42 305.309 132.705 298.926 136.806C295.662 138.916 292.878 140.943 289.881 143.518C286.959 146.069 284.49 148.822 282.304 151.594C273.696 162.774 268.561 173.95 263.521 183.836C258.606 193.766 254.188 202.595 249.624 209.91C245.095 217.237 240.409 222.983 235.861 226.946C233.321 229.143 230.914 230.768 228.752 231.998C228.76 232.582 228.784 233.141 228.808 233.678C231.391 232.747 234.392 231.355 237.597 229.241Z" fill="#382405"/>
<path d="M227.536 234.111C227.953 233.981 228.375 233.839 228.808 233.678C228.784 233.141 228.76 232.582 228.752 231.998C228.252 232.282 227.763 232.546 227.287 232.783C227.369 233.236 227.445 233.693 227.536 234.111Z" fill="#382405"/>
<path d="M240.567 253.975C241.008 254.294 241.467 254.625 241.952 254.948C242.763 254.578 243.661 254.215 244.598 253.84C243.826 253.505 243.079 253.158 242.386 252.815C241.744 253.205 241.13 253.592 240.567 253.975Z" fill="#382405"/>
<path d="M271.833 210.446C275.613 206.199 279.626 201.471 284.107 197.665C288.277 194.12 294.098 191.356 300.233 189.64C306.451 187.949 313.401 187.46 321.23 187.416L327.267 187.393H328.05C328.314 187.393 328.133 187.405 328.2 187.408L328.219 187.44L328.243 187.495C328.255 187.558 328.188 187.602 328.188 187.602C328.188 187.602 328.255 187.558 328.314 187.594L328.349 187.649L328.365 187.681C328.342 187.744 328.495 187.515 328.109 188.177L325.081 193.612C321.226 200.706 317.831 206.223 313.22 210.632C310.936 212.84 308.4 214.855 305.762 216.653C304.281 217.651 303.805 218.002 302.379 218.625C301.083 219.193 299.634 219.725 298.142 220.218C292.16 222.174 286.053 223.763 280.579 225.412C269.557 228.641 260.633 232.104 255.002 235.503C249.277 238.831 247.13 241.868 247.111 241.793C247.134 241.844 250.088 239.726 256.121 238.153C262.134 236.485 271.061 235.397 282.304 234.47C287.947 233.953 294.098 233.555 301.095 232.47C302.844 232.198 304.667 231.847 306.632 231.331C308.495 230.909 311.2 229.785 312.771 228.953C316.292 227.23 319.828 225.124 323.27 222.501C330.275 217.304 335.914 209.618 340.234 202.638L343.51 197.452L346.566 192.661C347.751 190.902 348.886 189.155 350.224 187.357C355.509 180.251 361.92 172.191 367.394 165.006L366.929 165.065C357.789 166.212 347.007 167.983 338.466 168.791L320.509 169.754C312.054 170.321 303.182 171.666 295.181 174.908C287.23 178.197 280.339 182.743 275.16 188.773C270.313 194.542 267.237 200.122 264.355 205.048C258.794 214.969 254.069 222.426 249.454 226.559C244.953 230.783 241.31 231.776 241.393 231.863C241.318 231.733 245.11 232.033 251.108 228.929C257.148 225.96 264.367 219.094 271.833 210.446Z" fill="#382405"/>
<path d="M201.435 276.645C200.845 277.047 200.238 277.465 199.624 277.919C189.326 285.203 176.828 298.642 163.183 316.107C156.299 324.732 149.097 334.59 140.89 343.956C138.835 346.263 136.704 348.527 134.531 350.416C133.503 351.327 132.243 352.273 131.479 352.734L127.372 354.951C121.65 357.908 115.597 360.282 109.234 361.765C96.526 364.892 82.4638 363.579 66.8147 361.481C59.0058 360.475 50.8307 359.411 42.3918 358.768L36.0321 358.366L32.8936 358.228C32.8739 358.22 32.87 358.216 32.87 358.208C32.8542 358.192 32.8739 358.184 32.8778 358.184C32.8778 358.184 32.8622 358.188 32.8543 358.172L32.8739 358.113L33.4489 356.962L34.8783 354.071L37.5837 348.334L47.4677 326.159C53.8589 311.967 60.6872 299.135 69.7208 289.398C74.2021 284.512 79.1796 280.419 84.5352 277.134C87.1224 275.537 90.1427 273.944 92.6748 272.828C95.2895 271.696 98.113 270.825 101.011 270.162C112.715 267.532 124.891 267.347 135.881 266.81C146.943 266.361 157.134 265.793 166.034 264.377C174.926 263.005 182.514 260.706 188.2 257.803C190.019 256.885 191.614 255.922 193.048 254.948C192.232 254.578 191.338 254.215 190.397 253.84C189.365 254.29 188.271 254.735 187.082 255.145C181.384 257.109 174.067 258.3 165.471 258.564C156.87 258.86 147.022 258.277 135.972 257.575C124.906 257.007 112.675 255.871 98.7037 257.748C95.2068 258.265 91.5957 259.026 87.9296 260.28C84.1965 261.589 81.058 262.993 77.5965 264.767C70.8588 268.257 64.3928 272.895 58.6356 278.463C47.0031 289.623 38.6351 304.06 31.5193 318.596L21.0918 340.549L18.4376 345.964L14.803 352.983C10.9281 360.215 5.71033 368.007 1.0833 375.532L0.0043263 377.251C8.53774 377.026 17.6264 376.525 25.9511 376.51L32.1612 376.588L35.2131 376.683L41.1514 376.975C49.0626 377.436 56.9148 378.253 64.8615 379.014C72.7924 379.771 80.869 380.461 89.0716 380.323C97.2506 380.197 105.54 379.104 113.246 376.782C120.957 374.49 128.017 371.119 134.294 367.282C135.866 366.331 137.397 365.33 139.016 364.249C141.044 362.77 142.351 361.505 143.749 360.105C146.415 357.368 148.577 354.623 150.625 351.91C158.634 341.038 164.734 330.698 170.68 321.427C181.848 303.579 191.751 289.698 200.359 281.227C200.489 280.738 200.656 280.21 200.766 279.733C201.042 278.645 201.238 277.643 201.435 276.645Z" fill="#382405"/>
<path d="M203.75 278.037C203.821 277.012 203.889 275.999 203.913 275.056C203.11 275.545 202.286 276.066 201.435 276.645C201.238 277.643 201.042 278.645 200.766 279.733C200.656 280.21 200.489 280.738 200.359 281.227C200.722 280.873 201.096 280.462 201.45 280.127C202.242 279.362 202.994 278.708 203.75 278.037Z" fill="#382405"/>
<path d="M194.434 253.975C193.875 253.592 193.256 253.205 192.618 252.815C191.921 253.158 191.177 253.505 190.397 253.84C191.338 254.215 192.232 254.578 193.048 254.948C193.532 254.625 193.997 254.294 194.434 253.975Z" fill="#382405"/>
<path d="M163.399 293.165C159.232 297.085 154.81 301.596 150.124 305.796C148.954 306.845 147.773 307.834 146.631 308.674C145.383 309.605 144.832 309.838 143.229 310.618C140.362 312.011 137.346 313.201 134.294 314.077C128.182 315.879 121.712 316.061 113.643 315.855L107.433 315.769C106.669 315.769 106.937 315.753 106.878 315.737L106.851 315.706L106.827 315.65C106.827 315.583 106.894 315.548 106.898 315.544C106.898 315.544 106.827 315.583 106.776 315.536L106.74 315.493L106.728 315.453C106.752 315.398 106.65 315.552 106.788 315.323L107.177 314.645L110.214 309.416C114.167 302.645 118.062 296.864 122.642 292.325C127.19 287.861 132.49 284.193 137.641 282.352C143.17 280.36 149.27 279.252 154.83 278.093C166.041 275.944 175.583 273.12 181.174 269.362C186.857 265.706 188.499 262.268 188.578 262.402C188.534 262.287 185.856 264.949 179.954 266.747C174.07 268.676 165.261 269.043 153.908 268.908C148.198 268.948 141.839 268.818 134.424 270.143C126.623 271.614 119.243 275.317 112.423 280.573C105.614 285.889 100.022 292.916 95.2968 299.963L85.4875 315.059C80.5219 322.059 73.599 330.521 68.0387 337.88L67.7513 338.25C76.7021 337.099 86.8816 335.565 95.667 334.536C97.8919 334.268 99.9671 334.165 102.078 334.015L107.752 333.759L113.876 333.51C122.075 333.25 131.541 332.209 139.535 328.731C143.524 327.063 147.112 325.044 150.364 322.851C151.869 321.905 154.192 320.118 155.488 318.722C156.921 317.267 158.138 315.859 159.248 314.479C163.682 308.954 167.1 303.824 170.373 299.186C176.792 289.903 182.202 282.699 186.648 278.326C191.019 273.869 194.335 272.367 194.295 272.324C194.358 272.383 190.657 272.73 184.911 276.026C179.158 279.209 171.696 285.223 163.399 293.165Z" fill="#382405"/>
<path d="M215.742 338.668C206.232 338.668 206.232 353.433 215.742 353.433C225.248 353.433 225.248 338.668 215.742 338.668Z" fill="#382405"/>
<path d="M136.125 290.685C126.623 290.685 126.623 305.449 136.125 305.449C145.631 305.449 145.631 290.685 136.125 290.685Z" fill="#382405"/>
<path d="M134.656 197.673C125.142 197.673 125.142 212.438 134.656 212.438C144.158 212.438 144.158 197.673 134.656 197.673Z" fill="#382405"/>
<path d="M216.475 151.902C206.969 151.902 206.969 166.67 216.475 166.67C225.981 166.67 225.981 151.902 216.475 151.902Z" fill="#382405"/>
<path d="M295.354 198.411H294.618C290.601 198.411 287.246 201.767 287.246 205.793C287.246 209.819 290.601 213.171 294.618 213.171H295.354C299.367 213.171 302.726 209.819 302.726 205.793C302.726 201.767 299.367 198.411 295.354 198.411Z" fill="#382405"/>
<path d="M293.881 288.472C284.375 288.472 284.375 303.232 293.881 303.232C303.387 303.232 303.387 288.472 293.881 288.472Z" fill="#382405"/>
</svg>
